<?xml version="1.0" encoding="UTF-8"?><svg id="tudo_isto_é_copy_2_Image" xmlns="http://www.w3.org/2000/svg" viewBox="0 0 1410.52 898.32"><defs><style>.cls-1{fill:#8c2d19;}</style></defs><path class="cls-1" d="M1404.64,883.45c-21.72,0-42.36,0-63,0-8.5,0-17,.24-25.48-.17-2.08-.1-5.03-1.8-5.93-3.59-16.05-31.92-31.86-63.97-47.68-96-28.34-57.4-56.66-114.81-84.99-172.21-.35-.7-.82-1.34-1.69-2.74-6.02,12.72-11.72,24.8-17.46,36.87-36.94,77.78-73.9,155.54-110.75,233.37-1.57,3.31-3.31,4.59-7.07,4.57-27.32-.17-54.64-.09-81.96-.09h-5.5c73.73-156.05,147.14-311.44,221.08-467.96,76.99,156.36,153.46,311.67,230.42,467.96Z"/><path class="cls-1" d="M587.28,417.63c82.86,85.45,164.87,170.04,248.12,255.9v-255.44h84.63v461.42c-.42,.44-.83,.88-1.25,1.31-1.55-2.02-2.92-4.22-4.68-6.05-49.8-51.67-99.55-103.38-149.48-154.92-57.71-59.57-115.55-119-173.45-178.38-2.95-3.02-3.98-5.99-3.96-10.08,.13-35.8,.08-71.6,.08-107.41,0-1.78,0-3.56,0-6.36Z"/><path class="cls-1" d="M343.83,418.98h84.72v6.88c0,94.08-.14,188.16,.16,282.24,.04,12.9,.93,26.07,3.63,38.64,8.09,37.69,43.86,63.75,82.16,60.58,32.27-2.66,69.48-28.74,71.7-72.26,1.17-22.92,.77-45.92,1.08-68.89,.03-1.95,0-3.9,0-6.93,1.93,1.69,3.16,2.65,4.24,3.75,25.46,25.89,50.94,51.75,76.24,77.8,1.65,1.7,2.77,4.94,2.53,7.3-7.67,75.7-71.65,137.06-147.74,143.69-86.21,7.5-160.44-52.69-175.72-133.1-4.85-25.52-3.94-51.37-3.21-77.17,.07-2.49,.21-4.99,.21-7.48,.01-82.59,0-165.18,0-247.77v-7.29Z"/><path class="cls-1" d="M316.18,419.05v84.39h-90.53v380.78h-84.88V503.62c-2.56,0-4.49,0-6.42,0-25.49,0-50.98-.03-76.47,.03-2.97,0-5.03-.07-5.01-4.08,.14-25.81,.07-51.62,.1-77.43,0-.97,.28-1.93,.47-3.1H316.18Z"/><path d="M380.83,196.28c6.36-17.33,12.3-34.04,18.6-50.61,16.48-43.41,33.07-86.78,49.71-130.12,3.16-8.22,6.51-10.16,12.31-7.92,7.49,2.9,10.18,8.34,7.66,15.66-29.98,87-60.01,173.98-89.93,261-4.65,13.53-9.1,27.14-12.98,40.9-1.64,5.83-1.73,12.13-2.21,18.23-.39,4.9,2.97,7.14,6.93,5.73,4.67-1.66,9.67-4.11,12.93-7.68,12.32-13.48,19.3-30.28,26.45-46.72,9.28-21.33,17.15-43.27,26.03-64.77,5.85-14.16,17.18-23.48,29.98-31.09,2.12-1.26,5.03-1.21,8.25-1.91,2.72-6.25,6.54-12.78,14.55-14.86,9.74-2.53,18.51-.3,25.83,6.68,10.44,9.96,15.87,22.37,17.51,36.58,2.44,21.26-.33,41.83-8.01,61.77-.41,1.06-.72,2.17-.22,4.95,4.46-1.92,9.39-3.17,13.3-5.88,10.73-7.45,17.17-18.5,22.39-30.07,2.34-5.2,5.47-5.15,9.54-3.83,4.45,1.44,3.94,4.78,2.47,8.13-5.67,12.92-12.67,24.93-23.76,34.09-7.65,6.33-15.98,10.02-26.26,7.81-1.31-.28-3.71,1.43-4.63,2.85-7.41,11.44-13.88,23.55-22.08,34.37-4.98,6.58-11.88,12.28-19.01,16.56-21.59,12.96-42.06,5.26-49.75-18.7-3.02-9.4-3.85-19.51-5.72-29.51-.43,.68-1.01,1.47-1.47,2.33-5.77,10.88-11.23,21.94-17.43,32.57-2.8,4.81-6.69,9.17-10.73,13.06-17.94,17.24-38.87,4.24-43.07-12.23-1.18-4.63-1.86-9.39-2.83-14.42-5.31,7.59-9.83,15.39-15.62,22.09-13.16,15.23-33.86,18.29-45.58-.85-4.45-7.28-5.97-16.36-8.71-24.66-.51-1.53-.49-3.23-.88-6.04-1.52,2.77-2.38,4.64-3.5,6.34-6.07,9.3-12.16,18.59-18.3,27.84-9.57,14.41-34.39,13.53-43.07-5.34-3.12-6.78-4.25-14.48-6.19-21.45,.17-.22-.38,.43-.86,1.12-5.98,8.77-11.47,17.92-18.02,26.24-10.17,12.92-28.98,12.32-39.25-.67-5.18-6.56-6.66-11.1-8.41-26.48-.99,1.53-1.62,2.48-2.24,3.45-4.53,7.16-8.41,14.85-13.76,21.34-6.64,8.07-15.23,14.13-26.52,11.39-12.2-2.95-19.39-11.58-21.58-23.66-3.43-18.9-3.43-37.98,2.95-56.25,12.39-35.49,25.56-70.7,38.4-106.03,2.15-5.91,4.26-11.83,6.61-18.37-2.42,0-4.19,.02-5.96,0-29.64-.36-59.28-.63-88.92-1.19-5.58-.1-11.23-1-16.66-2.31-1.85-.45-3.13-3.29-4.67-5.04,1.85-.96,3.68-2.69,5.56-2.75,26.79-.84,53.59-1.45,80.38-2.12,10.98-.28,21.97-.42,32.94-1,1.74-.09,4.28-1.85,4.9-3.44,3.77-9.77,6.91-19.79,10.63-29.58,2.41-6.34,5.23-12.54,8.32-18.58,.81-1.59,3.16-3.03,5-3.34,9.05-1.51,16.5,7.53,13.48,16.21-4.42,12.71-9,25.35-13.72,38.58,2.03,.12,3.59,.27,5.15,.29,36.97,.4,73.94,.68,110.91,1.23,12.3,.18,24.6,1.05,36.89,1.68,1.46,.07,3.29,.16,4.28,1.02,1.81,1.57,3.12,3.71,4.64,5.61-1.94,1.2-3.83,3.33-5.83,3.45-11.46,.69-22.95,1.18-34.43,1.22-40.65,.13-81.3,.06-121.96,.04-2.69,0-4.95-.26-6.13,3.32-17.66,53.56-35.6,107.03-53.11,160.64-2.08,6.36-2.5,13.39-2.79,20.15-.27,6.2,2.23,7.58,8.18,6.22,9-2.06,13.89-8.78,18.14-16.02,14.3-24.33,25.17-50.12,34.72-76.7,8.92-24.84,20.34-48.79,30.74-73.09,1.89-4.43,6.97-6.08,11.34-4.05,7.22,3.35,9.84,9.2,7.37,16.68-13.18,39.97-26.52,79.89-39.46,119.94-2.39,7.39-3.61,15.23-4.53,22.97-.36,3,1.67,8.98,2.5,8.96,4.15-.1,9.41-.49,12.21-3.05,13.9-12.68,22.74-28.81,29.73-46.14,13.13-32.54,26.5-64.99,39.91-97.43,2.47-5.98,5.5-11.74,8.39-17.55,2.18-4.37,7.15-6.34,11.35-4.7,5.9,2.32,10.28,8.91,8.62,14.07-4.12,12.83-8.55,25.56-12.98,38.29-8.9,25.58-19.34,50.66-24.68,77.4-1.94,9.72-5.41,19.13-7.35,28.85-.65,3.26,.14,8.92,2.25,10.18,4.52,2.7,9.97,.72,13.57-3.17,4.74-5.1,9.98-10.23,13-16.34,11.14-22.5,22.32-45.05,31.83-68.25,9.09-22.2,18.92-43.64,35.39-61.46,9.01-9.75,19.78-16.12,33.15-17.77,10.3-1.27,18.77,1.46,24.63,10.5,.87,1.35,1.88,2.61,3.28,4.56Zm-84.05,140.06c.16,2.32,.21,4.15,.43,5.96,.88,7.05,2.37,8.51,8.99,6.41,4.25-1.35,8.89-3.68,11.69-6.98,13.89-16.39,24.16-35.18,31.92-55.03,7.55-19.33,12.85-39.53,20.05-59.01,3.36-9.1,2.54-17.58,.35-26.35-1.41-5.65-5.19-7.23-10.68-5.11-7.75,3-12.11,9.35-16.82,15.72-27.55,37.17-40.95,79.43-45.92,124.39Zm173.69-117.04c-3.23,6.31-7.49,12.6-9.8,19.53-7.2,21.59-13.9,43.35-20.31,65.19-3.45,11.75-4.63,23.83-1.13,35.94,3.04,10.52,8.81,14.5,18.52,10.02,7.07-3.26,13.8-8.78,18.72-14.88,10.23-12.69,16.08-27.88,20.67-43.45,.45-1.53-.09-4-1.13-5.2-9.25-10.68-14.72-23.35-18.73-36.57-3-9.88-4.55-20.2-6.81-30.58Zm31.05,57.69c1.58-7.34,3.47-13.36,4.1-19.51,1.83-17.83,3.69-35.7,4.48-53.59,.45-10.2-9-14.87-17.89-9.71-6.51,3.77-9.39,9.88-9.55,17.07-.15,6.63,.01,13.35,.92,19.91,2.24,16.15,7.85,31.1,17.93,45.85Z"/><path d="M1062.98,291.11c7.53,.26,13.64-2.9,17.84-8.06,6.98-8.57,13.49-17.66,19.12-27.16,2.83-4.78,5.82-4.88,9.81-3.5,4.56,1.57,3.47,5.02,2.03,8.22-5.81,12.87-13.06,24.72-24.17,33.81-7.8,6.38-16.26,10.22-26.74,7.9-1.29-.29-3.66,1.55-4.63,3-7.54,11.35-14.25,23.31-22.49,34.12-4.83,6.33-11.4,11.81-18.2,16.05-23.88,14.89-47.28,4.19-52.32-23.57-1.45-7.97-2.08-16.09-3.25-25.49-3.09,6.12-5.48,11.27-8.23,16.21-4.53,8.13-9.23,16.16-14,24.15-1.27,2.12-2.89,4.11-4.66,5.85-7.69,7.59-16.02,14.03-27.79,10.56-12.53-3.7-18.44-13.17-20.03-25.42-1.02-7.85-.97-15.84-1.43-24.4-3.28,5.01-6.18,9.72-9.36,14.22-8.53,12.07-18.57,22.53-31.37,30.3-10.07,6.11-19.96,5.75-29.8,.33-13.24-7.3-21.22-19.35-27.97-32.37-1.75-3.38-3.48-6.77-5.5-10.69-4.09,7.19-7.64,14.06-11.79,20.56-4.12,6.44-8.51,12.76-13.38,18.64-5.63,6.8-12.65,11.77-22.16,9.42-10.68-2.64-19.4-7.8-22.4-19.54-4.57-17.9-4.32-35.98,1.36-53.23,8.47-25.72,18.55-50.92,28.13-76.27,1.27-3.37,3.45-6.46,5.51-9.47,3.86-5.6,7.07-6.43,12.68-3.67,6.75,3.32,9.3,8.03,7.34,13.93-8.75,26.38-17.73,52.68-26.26,79.12-4.19,12.98-7.7,26.18-11.28,39.34-.86,3.16-1.05,6.58-1.07,9.88-.04,6.02,2.64,7.7,8.3,5.25,8.05-3.48,14.61-8.98,18.62-16.73,9.85-19.05,19.16-38.38,28.88-57.5,12.35-24.3,24.74-48.59,37.46-72.69,2.99-5.66,7.02-10.93,11.36-15.65,1.63-1.78,5.8-2.51,8.27-1.8,1.75,.5,4.01,4.52,3.6,6.44-4.97,23.21-1.15,46.1,2.03,68.99,2.26,16.3,5.55,32.46,7.46,48.79,1.05,9,.19,18.23,.19,29.43,5.15-7.45,9.34-13.59,13.61-19.68,22.5-32.09,35.39-68.81,50.32-104.53,7.5-17.94,14.83-35.94,22.53-54.62-2.44-.15-3.99-.32-5.54-.34-29.8-.38-59.61-.64-89.41-1.2-5.58-.1-11.23-1-16.66-2.3-1.81-.43-3.03-3.28-4.53-5.02,1.84-.96,3.65-2.7,5.51-2.76,26.79-.84,53.58-1.46,80.38-2.13,10.98-.28,21.97-.42,32.94-1,1.81-.09,4.45-1.69,5.11-3.27,3.89-9.19,7.14-18.64,10.93-27.87,2.89-7.04,5.96-14.05,9.53-20.76,2.43-4.56,7.07-3.9,11.1-2.45,6.55,2.37,9.43,9.26,6.89,15.92-4.27,11.19-8.64,22.34-12.96,33.52-.58,1.51-1.07,3.07-1.76,5.05,21.55,0,42.54-.35,63.51,.08,29.61,.61,59.22,1.81,88.82,2.76,.67,.02,1.36,0,1.99,.18,3.26,.99,7.58,1.29,7.07,6.09-.5,4.66-4.64,3.99-7.87,4.01-51.63,.4-103.26,.72-154.88,1.26-1.9,.02-4.91,1.65-5.49,3.23-19.24,52.31-38.36,104.67-57.15,157.14-2.44,6.81-3.43,14.22-4.36,21.45-1.03,8.04,1.67,9.9,9.36,7.93,8-2.04,12.61-8.03,16.52-14.36,16.13-26.12,29.54-53.53,39.6-82.62,3.56-10.3,8.43-20.26,13.67-29.86,5.83-10.69,15.44-18.56,26.23-23.04,6.25-2.59,9.55-6.27,13.43-10.86,8.72-10.34,25.7-9.56,35.95,1.06,10.18,10.55,15.09,23.31,16.17,37.71,1.53,20.41-1.31,40.18-9.05,59.19-.44,1.08-.82,2.18-1.18,3.28-.1,.3-.01,.65-.01,1.46Zm-51.51-72.09c-3.34,6.1-7.58,11.89-9.85,18.37-8.01,22.9-15.72,45.92-22.79,69.12-3.66,12.02-4.66,24.54-.12,36.81,2.41,6.51,6.26,8.73,13.16,7.85,10.26-1.3,17.72-7.52,22.76-15.6,7.18-11.5,12.9-23.91,19.22-35.94,3.51-6.69,4.39-13.02-2.34-18.52-1.22-1-1.91-2.7-2.7-4.16-9.73-18.02-16.49-36.9-17.35-57.92Zm-193.59,15.13c-.64,1.13-1.36,2.22-1.92,3.39-7.63,16.03-15.36,32.01-22.84,48.11-9.84,21.19-9.76,21.23,2.07,41.6,.67,1.15,1.21,2.44,2.11,3.37,6.15,6.4,11.62,13.82,18.78,18.79,8.66,6.02,17.48,.7,17.99-9.81,.25-5.11,.29-10.39-.66-15.39-5.67-29.81-13.39-59.26-15.53-90.07Zm222.56,43.37c1.08-2.86,1.62-3.87,1.84-4.94,2.31-11.4,5.17-22.74,6.68-34.25,1.51-11.51,2.21-23.19,2.24-34.8,.02-9.96-8.4-14.31-17.23-9.63-7.23,3.83-10.03,10.39-10.49,18.12-.87,14.81,1.14,29.28,6.51,43.1,2.79,7.18,6.5,14,10.46,22.41Z"/><path d="M1253.09,306.64c2.19-38.26,12.84-73.9,40.29-102.69,9.3-9.75,20.08-18.1,34.15-20.4,17.59-2.88,32.52,11.53,30.96,29.26-1.87,21.2-14.41,36.46-27.9,51.08-13.85,15.01-30.05,27.24-47.42,37.98-1.92,1.19-3.56,4.22-3.78,6.54-.76,8.09-1.49,16.28-1.04,24.37,.81,14.53,9.36,20.52,23.44,16.29,14.14-4.26,24.95-13.83,34.55-24.6,17.52-19.65,30.5-42.32,42.31-65.67,3.1-6.14,5.86-8.48,9.65-6.57,4.07,2.06,4.95,7.28,1.81,12.67-9.96,17.1-19.77,34.29-30.14,51.14-10.19,16.56-24.63,29.01-40.16,40.52-18.23,13.51-43.9,8.63-56.43-12.3-6.19-10.33-10.36-25.05-10.28-37.62Zm30.07-21.41c.5,.39,1,.77,1.5,1.16,11.7-8.93,24.05-17.15,34.94-26.98,13.99-12.62,23.49-28.47,26.68-47.39,.65-3.87,.06-8.3-1.19-12.07-1.54-4.64-5.75-6.33-10.11-3.88-4.12,2.31-8.21,5.18-11.33,8.68-16.66,18.64-27.06,40.92-36.06,63.9-2.07,5.29-2.98,11.04-4.43,16.57Z"/><path d="M1274.84,126.25c-.83,.05-1.83,.42-2.46,.09-2.02-1.07-3.89-2.41-5.82-3.64,1.33-1.61,2.33-3.87,4.03-4.71,18.62-9.18,37.33-18.16,56.05-27.14,8.63-4.14,17.22-8.41,26.03-12.17,5.85-2.5,10.49,.1,13.39,5.34,2.76,4.99,.26,9.32-2.75,13.23-1.08,1.41-2.66,2.52-4.19,3.48-18.92,11.79-61.33,24.59-84.27,25.52Z"/><path d="M776.53,166.25c-11.02,.08-23.33-11.27-23.99-22.13-.42-6.88,4.96-11.89,12.5-11.65,10.86,.34,21.12,9.43,22.82,20.21,1.21,7.71-3.63,13.51-11.33,13.57Z"/></svg>