<?xml version="1.0" encoding="UTF-8"?><svg id="Outros" xmlns="http://www.w3.org/2000/svg" viewBox="0 0 500 500"><defs><style>.cls-1{fill:#2a2a2a;}</style></defs><path class="cls-1" d="M250,495C114.91,495,5,385.09,5,250S114.91,5,250,5s245,109.91,245,245-109.91,245-245,245Zm0-480C120.42,15,15,120.42,15,250s105.42,235,235,235,235-105.42,235-235S379.58,15,250,15Z"/><path class="cls-1" d="M250,346.04c-52.95,0-96.04-43.08-96.04-96.04s43.08-96.04,96.04-96.04,96.04,43.08,96.04,96.04-43.08,96.04-96.04,96.04Zm0-182.08c-47.44,0-86.04,38.6-86.04,86.04s38.6,86.04,86.04,86.04,86.04-38.6,86.04-86.04-38.6-86.04-86.04-86.04Z"/><path class="cls-1" d="M89.05,175.17c-.72,0-1.46-.16-2.16-.49-2.49-1.19-3.54-4.18-2.35-6.67,20.96-43.73,59.36-77.45,105.33-92.52,2.62-.86,5.45,.57,6.31,3.19,.86,2.62-.57,5.45-3.19,6.31-43.4,14.22-79.64,46.06-99.43,87.34-.86,1.79-2.65,2.84-4.51,2.84Z"/><path class="cls-1" d="M250,288.41c-21.18,0-38.41-17.23-38.41-38.41s17.23-38.41,38.41-38.41,38.41,17.23,38.41,38.41-17.23,38.41-38.41,38.41Zm0-66.83c-15.67,0-28.42,12.75-28.42,28.42s12.75,28.42,28.42,28.42,28.42-12.75,28.42-28.42-12.75-28.42-28.42-28.42Z"/></svg>