<?xml version="1.0" encoding="UTF-8"?><svg id="Outros" xmlns="http://www.w3.org/2000/svg" viewBox="0 0 500 500"><defs><style>.cls-1{fill:#efefef;}</style></defs><path class="cls-1" d="M387.27,153.63c.79,.51,1.69,.76,2.58,.76,1.15,0,2.29-.41,3.19-1.22l46.31-41.62c1.11-1,1.69-2.45,1.57-3.94-.12-1.49-.92-2.83-2.18-3.64l-18.98-12.2,15.22-23.67c1.43-2.22,.78-5.17-1.43-6.6-2.22-1.43-5.18-.78-6.6,1.44l-15.22,23.66-18.69-12.02c-1.25-.81-2.81-.98-4.21-.47-1.4,.51-2.48,1.64-2.93,3.06l-18.65,59.41c-.64,2.05,.16,4.28,1.97,5.45l4.86,3.13-24.9,38.73L315.16,18.2c-1.57-7.65-8.38-13.2-16.19-13.2H169.43c-7.81,0-14.62,5.55-16.19,13.2L59.4,475.15c-1,4.88,.23,9.9,3.38,13.77,3.15,3.87,7.82,6.08,12.81,6.08H392.81c4.99,0,9.66-2.22,12.81-6.08,3.15-3.86,4.38-8.88,3.38-13.77l-57.06-277.88,30.19-46.95,5.14,3.31ZM162.6,20.12c.66-3.23,3.53-5.57,6.83-5.57h129.55c3.29,0,6.17,2.34,6.83,5.57l35.99,175.26-102.81,159.9v-90.49h32.4c2.64,0,4.78-2.14,4.78-4.78s-2.14-4.78-4.78-4.78h-32.4v-44.3h32.4c2.64,0,4.78-2.14,4.78-4.78s-2.14-4.78-4.78-4.78h-32.4v-44.3h32.4c2.64,0,4.78-2.14,4.78-4.78s-2.14-4.78-4.78-4.78h-32.4v-44.3h32.4c2.64,0,4.78-2.14,4.78-4.78s-2.14-4.78-4.78-4.78h-74.36c-2.64,0-4.78,2.14-4.78,4.78s2.14,4.78,4.78,4.78h32.4v44.3h-32.4c-2.64,0-4.78,2.14-4.78,4.78s2.14,4.78,4.78,4.78h32.4v44.3h-32.4c-2.64,0-4.78,2.14-4.78,4.78s2.14,4.78,4.78,4.78h32.4v44.3h-32.4c-2.64,0-4.78,2.14-4.78,4.78s2.14,4.78,4.78,4.78h32.4v101.98H92.03c-.22,0-.42,.04-.63,.06L162.6,20.12Zm235.61,462.76c-1.33,1.63-3.3,2.57-5.4,2.57H75.59c-2.1,0-4.07-.93-5.4-2.57-1.33-1.63-1.85-3.74-1.43-5.8l20.83-101.44c.72,.43,1.54,.69,2.44,.69H378.95l20.69,100.75c.42,2.06-.1,4.18-1.43,5.8Zm-21.23-116.11H242.95l101.59-158,32.45,158Zm16.16-280.76l17.4,11.19s.02,.02,.04,.03c.02,.01,.04,.02,.06,.03l17.67,11.36-38.94,35-6.07-3.9s-.02-.02-.03-.02-.02,0-.03-.02l-5.78-3.72,15.68-49.95Z"/></svg>