<?xml version="1.0" encoding="UTF-8"?><svg id="Outros" xmlns="http://www.w3.org/2000/svg" viewBox="0 0 500 500"><defs><style>.cls-1{fill:#efefef;}</style></defs><path class="cls-1" d="M56.97,495c-23.71,0-43-19.29-43-42.99V104.86c0-23.71,19.29-42.99,43-42.99h13.81v26.53c0,20.02,16.29,36.32,36.32,36.32s36.31-16.29,36.31-36.32v-26.53h213.18v26.53c0,20.02,16.29,36.32,36.31,36.32s36.31-16.29,36.31-36.32v-26.53h13.81c23.71,0,43,19.29,43,42.99V452.01c0,23.7-19.29,42.99-43,42.99H56.97Zm0-423.67c-18.49,0-33.53,15.04-33.53,33.52V452.01c0,18.48,15.04,33.52,33.53,33.52H443.02c18.49,0,33.53-15.04,33.53-33.52V104.86c0-18.49-15.04-33.52-33.53-33.52h-4.34v17.06c0,25.25-20.54,45.79-45.78,45.79s-45.78-20.54-45.78-45.79v-17.06H152.88v17.06c0,25.25-20.54,45.79-45.78,45.79s-45.79-20.54-45.79-45.79v-17.06h-4.34Zm28.44,383.05c-16.17,0-29.32-12.38-29.32-27.6V201.92c0-15.23,13.15-27.62,29.32-27.62H414.58c16.17,0,29.33,12.39,29.33,27.62v224.87c0,15.22-13.16,27.6-29.33,27.6H85.41Zm0-270.62c-10.95,0-19.85,8.14-19.85,18.15v224.87c0,9.99,8.91,18.13,19.85,18.13H414.58c10.95,0,19.85-8.13,19.85-18.13V201.92c0-10.01-8.91-18.15-19.85-18.15H85.41Z"/><path class="cls-1" d="M107.1,102.96c-8.03,0-14.56-6.54-14.56-14.57V19.56c0-8.03,6.53-14.56,14.56-14.56s14.56,6.53,14.56,14.56V88.39c0,8.03-6.53,14.57-14.56,14.57Zm0-88.49c-2.81,0-5.09,2.28-5.09,5.09V88.39c0,2.81,2.28,5.1,5.09,5.1s5.09-2.29,5.09-5.1V19.56c0-2.81-2.28-5.09-5.09-5.09Z"/><path class="cls-1" d="M392.9,102.96c-8.03,0-14.57-6.54-14.57-14.57V19.56c0-8.03,6.54-14.56,14.57-14.56s14.56,6.53,14.56,14.56V88.39c0,8.03-6.53,14.57-14.56,14.57Zm0-88.49c-2.81,0-5.1,2.28-5.1,5.09V88.39c0,2.81,2.29,5.1,5.1,5.1s5.09-2.29,5.09-5.1V19.56c0-2.81-2.28-5.09-5.09-5.09Z"/><path class="cls-1" d="M100.82,300.94v-85.33h83.3v85.33H100.82Zm9.47-9.47h64.36v-66.39H110.29v66.39Z"/><path class="cls-1" d="M210.46,300.94v-85.33h83.3v85.33h-83.3Zm9.47-9.47h64.35v-66.39h-64.35v66.39Z"/><path class="cls-1" d="M100.82,410.48v-85.33h83.3v85.33H100.82Zm9.47-9.47h64.36v-66.39H110.29v66.39Z"/><path class="cls-1" d="M210.46,410.48v-85.33h83.3v85.33h-83.3Zm9.47-9.47h64.35v-66.39h-64.35v66.39Z"/><path class="cls-1" d="M324.17,300.94v-85.33h83.3v85.33h-83.3Zm9.47-9.47h64.35v-66.39h-64.35v66.39Z"/><path class="cls-1" d="M324.17,410.48v-85.33h83.3v85.33h-83.3Zm9.47-9.47h64.35v-66.39h-64.35v66.39Z"/></svg>