<?xml version="1.0" encoding="UTF-8"?><svg id="Outros" xmlns="http://www.w3.org/2000/svg" viewBox="0 0 500 500"><defs><style>.cls-1{fill:#efefef;}</style></defs><path class="cls-1" d="M412.02,352.63h0V26.36c0-11.78-9.58-21.36-21.36-21.36H115.4c-15.12,0-27.42,12.3-27.42,27.42V409.81c0,3.29,.18,6.4,.51,9.33l.05,1.83,.22,.2c3.23,22.19,16.65,33.43,40.01,33.43h11.12v32.92c0,3.96,3.09,7.24,6.99,7.46,1.35,.09,2.69-.38,3.7-1.31l20.98-19.45,20.98,19.45h0c.92,.85,2.13,1.32,3.32,1.32,.1,0,.21,0,.31-.01,3.95-.22,7.04-3.5,7.04-7.46v-32.92h187.42c11.78,0,21.36-9.58,21.36-21.36v-61s0-.04,0-.06v-19.56ZM115.4,14.09H390.66c6.77,0,12.27,5.5,12.27,12.27V372.24c-.03,5.98-4.9,10.84-10.89,10.84H129.12c-13.72,0-24.72,3.84-31.8,11.1-.09,.09-.16,.18-.25,.27V32.42c0-10.11,8.22-18.33,18.33-18.33Zm78.74,468.67l-19.24-17.84c-.93-.86-2.13-1.29-3.33-1.29s-2.41,.43-3.35,1.3l-19.23,17.83v-60.15h45.15v60.15Zm196.51-37.25H203.23v-24.14c0-4.33-3.52-7.85-7.85-7.85h-47.62c-4.33,0-7.85,3.52-7.85,7.85v24.14h-11.12c-19.05,0-28.92-8.32-31.19-26.69l-.02-.83c-.03-7.31,2.08-13.18,6.26-17.47,5.33-5.47,14.08-8.36,25.29-8.36H392.03c4.02,0,7.75-1.2,10.89-3.25v44.33c0,6.76-5.5,12.27-12.27,12.27Z"/><path class="cls-1" d="M161.87,234.58c1.17-.24,2.64-.08,3.74-.08,1.51,0,3.02,.09,4.52,.22,4.01,.35,8.07,.74,11.94,1.95,2,.63,3.97,1.39,6.06,1.67,3.11,.42,6.59,.62,9.61-.4,.03-.01,.07-.02,.1-.01,.15,0,.26,.14,.25,.28-.04,.71-.02,2.29,.74,4.3,1.38,3.64,4.36,6.4,6.94,8.47,5.42,4.35,20.78,16.44,44.22,16.55,23.44-.11,38.8-12.2,44.22-16.55,2.58-2.07,5.56-4.83,6.94-8.47,.76-2.01,.79-3.58,.74-4.3,0-.03,0-.07,.01-.1,.05-.14,.2-.22,.34-.17,3.02,1.02,6.5,.81,9.61,.4,2.09-.28,4.06-1.04,6.06-1.67,3.86-1.21,7.92-1.6,11.94-1.95,1.5-.13,3.01-.21,4.52-.22,1.11,0,2.58-.16,3.74,.08,.08,.02,.15,0,.22-.05,.12-.09,.14-.26,.05-.38-.63-.85-1.87-1.62-2.63-2.09-1.22-.76-2.55-1.34-3.9-1.84-3.27-1.21-6.53-2.29-9.64-3.89-.03-.02-.06-.04-.08-.06-.1-.11-.09-.28,.02-.38,3.92-3.51,6.27-8.36,9.68-12.32,.28-.33,.87-.98,1.34-1.5,.06-.07,.08-.17,.05-.26-.05-.14-.2-.22-.34-.17-2.07,.69-7.18,2.48-12.4,4.93-4.05,1.9-8.43,3.9-13,3.23-1.53-.22-3.01-.67-4.49-1.1-1.58-.46-3.13-.99-4.71-1.48-1.55-.48-3.17-.77-4.8-.58-.99,.11-2.03,.36-2.95,.8v-71h-81.11v71c-.92-.45-1.96-.7-2.95-.8-1.63-.18-3.25,.11-4.8,.58-1.57,.48-3.13,1.02-4.71,1.48-1.48,.43-2.96,.87-4.49,1.1-4.57,.67-8.95-1.33-13-3.23-5.22-2.45-10.32-4.24-12.4-4.93-.09-.03-.19,0-.26,.05-.11,.1-.12,.27-.02,.38,.47,.52,1.06,1.17,1.34,1.5,3.41,3.96,5.75,8.81,9.68,12.32,.02,.02,.05,.05,.06,.08,.07,.13,.02,.29-.12,.36-3.11,1.6-6.37,2.68-9.64,3.89-1.35,.5-2.67,1.08-3.9,1.84-.76,.47-2,1.24-2.63,2.09-.04,.06-.06,.14-.05,.21,.03,.15,.17,.24,.32,.21Z"/></svg>