<?xml version="1.0" encoding="UTF-8"?><svg id="Outros" xmlns="http://www.w3.org/2000/svg" viewBox="0 0 500 500"><defs><style>.cls-1{fill:#efefef;}</style></defs><path class="cls-1" d="M410.9,0H89.1C39.89,0,0,39.89,0,89.1V410.9c0,49.21,39.89,89.1,89.1,89.1H410.9c49.21,0,89.1-39.89,89.1-89.1V89.1C500,39.89,460.11,0,410.9,0Zm-7.68,313.56c-.75,16.41-3.36,27.61-7.17,37.42-3.94,10.13-9.21,18.73-17.78,27.3-8.57,8.57-17.17,13.84-27.3,17.78-9.81,3.81-21.01,6.42-37.42,7.17-16.44,.75-21.69,.93-63.56,.93s-47.11-.18-63.56-.93c-16.41-.75-27.61-3.36-37.42-7.17-10.14-3.94-18.73-9.21-27.3-17.78-8.57-8.57-13.84-17.17-17.78-27.3-3.81-9.81-6.42-21.01-7.17-37.42-.75-16.44-.93-21.69-.93-63.56s.18-47.11,.93-63.56c.75-16.41,3.35-27.61,7.17-37.42,3.94-10.14,9.21-18.73,17.78-27.3,8.57-8.57,17.17-13.84,27.3-17.78,9.81-3.81,21.01-6.42,37.42-7.16,16.44-.75,21.69-.93,63.56-.93s47.11,.18,63.56,.93c16.41,.75,27.61,3.36,37.42,7.16,10.14,3.94,18.73,9.21,27.3,17.78,8.57,8.57,13.84,17.17,17.78,27.3,3.81,9.81,6.42,21.01,7.17,37.42,.75,16.44,.92,21.69,.92,63.56s-.18,47.11-.92,63.56Z"/><path class="cls-1" d="M370.17,159.08c-2.8-7.19-6.13-12.33-11.53-17.72-5.39-5.39-10.53-8.73-17.72-11.53-5.43-2.11-13.6-4.62-28.63-5.31-16.25-.74-21.13-.9-62.29-.9s-46.04,.16-62.29,.9c-15.03,.69-23.19,3.2-28.62,5.31-7.2,2.8-12.33,6.14-17.73,11.53-5.39,5.4-8.73,10.53-11.53,17.72-2.11,5.43-4.62,13.59-5.31,28.63-.74,16.25-.9,21.13-.9,62.29s.16,46.04,.9,62.29c.69,15.03,3.2,23.19,5.31,28.62,2.8,7.2,6.14,12.33,11.53,17.73,5.4,5.39,10.53,8.73,17.73,11.53,5.43,2.11,13.59,4.62,28.62,5.31,16.25,.74,21.13,.9,62.29,.9s46.04-.16,62.29-.9c15.03-.69,23.19-3.2,28.63-5.31,7.19-2.8,12.33-6.14,17.72-11.53,5.4-5.4,8.73-10.53,11.53-17.73,2.11-5.43,4.62-13.59,5.31-28.62,.74-16.25,.9-21.13,.9-62.29s-.16-46.04-.9-62.29c-.69-15.03-3.2-23.19-5.31-28.63Zm-120.17,170.08c-43.72,0-79.16-35.44-79.16-79.16s35.44-79.16,79.16-79.16,79.16,35.44,79.16,79.16-35.44,79.16-79.16,79.16Zm82.29-142.95c-10.22,0-18.5-8.29-18.5-18.5s8.28-18.5,18.5-18.5,18.5,8.28,18.5,18.5-8.28,18.5-18.5,18.5Z"/><path class="cls-1" d="M250,198.62c-28.38,0-51.38,23-51.38,51.38s23,51.38,51.38,51.38,51.38-23.01,51.38-51.38-23-51.38-51.38-51.38Z"/></svg>