<?xml version="1.0" encoding="UTF-8"?><svg id="Outros" xmlns="http://www.w3.org/2000/svg" viewBox="0 0 500 500"><defs><style>.cls-1{fill:#efefef;}</style></defs><path class="cls-1" d="M410.9,0H89.1C39.89,0,0,39.89,0,89.1V410.9C0,460.11,39.89,500,89.1,500H410.9c49.21,0,89.1-39.89,89.1-89.1V89.1C500,39.89,460.11,0,410.9,0ZM186.03,364.29h-51.71V197.24h51.71v167.05Zm-26.1-188.92c-16.89,0-30.58-13.81-30.58-30.83s13.68-30.82,30.58-30.82,30.58,13.8,30.58,30.82-13.69,30.83-30.58,30.83Zm219.88,188.92h-51.47v-87.69c0-24.05-9.14-37.48-28.15-37.48-20.7,0-31.51,13.99-31.51,37.48v87.69h-49.6V197.24h49.6v22.5s14.91-27.6,50.34-27.6,60.78,21.63,60.78,66.38v105.77Z"/></svg>