<?xml version="1.0" encoding="UTF-8"?><svg id="Outros" xmlns="http://www.w3.org/2000/svg" viewBox="0 0 500 500"><defs><style>.cls-1{fill:#efefef;}</style></defs><path class="cls-1" d="M461.3,85.92H38.7c-18.58,0-33.7,15.12-33.7,33.7V380.37c0,18.58,15.12,33.7,33.7,33.7H461.3c18.58,0,33.7-15.12,33.7-33.7V119.63c0-18.58-15.12-33.7-33.7-33.7Zm-122.53,163.75L481.04,107.39c2.21,3.56,3.5,7.75,3.5,12.24V380.37c0,4.32-1.19,8.36-3.24,11.82l-142.53-142.53Zm122.53-153.28c4.55,0,8.79,1.32,12.37,3.58l-146,146h0l-49.06,49.07c-7.6,7.6-17.76,11.79-28.6,11.79s-21-4.19-28.6-11.79L26.33,99.97c3.59-2.26,7.83-3.58,12.37-3.58H461.3ZM18.71,392.2c-2.06-3.47-3.24-7.51-3.24-11.82V119.63c0-4.49,1.28-8.68,3.5-12.24L161.24,249.67,18.71,392.2Zm20,11.42c-4.72,0-9.11-1.42-12.78-3.84l142.71-142.71,45.37,45.37c9.93,9.93,22.96,14.89,36,14.89s26.08-4.96,36-14.89l45.36-45.36,142.71,142.71c-3.67,2.43-8.06,3.84-12.78,3.84H38.7Z"/></svg>