<?xml version="1.0" encoding="UTF-8"?><svg id="Outros" xmlns="http://www.w3.org/2000/svg" viewBox="0 0 500 500"><defs><style>.cls-1{fill:#2a2a2a;}</style></defs><path class="cls-1" d="M439.71,485.34c-3.25-79.93-20.88-141.58-52.41-183.44h10.34c1.21-.02,2.37-.5,3.22-1.36s1.33-2.02,1.33-3.23c0-1.24-.45-124.24-1.23-178.98-.48-34.06-14.61-61.33-43.22-83.36-27.29-21.03-64.14-20.56-70.69-20.31-8.1-2.8-65.14-21.08-111.3,1.36-61.04,29.67-74.41,91.38-74.41,112.66,0,15.26-.59,167.1-.59,168.63,0,1.21,.47,2.37,1.33,3.23s2.01,1.34,3.23,1.34h12.55c-58.96,76.86-57.82,179.58-57.74,183.98l.07,4.65c.04,2.49,2.07,4.48,4.55,4.48H435.36c1.24,0,2.42-.51,3.28-1.4,.86-.89,1.32-2.1,1.27-3.34l-.2-4.92Zm-112-134.54l7.41,20.68-70.35,114.03,47.7-183.51,56.88-.08-15.81,35.09-23.03,7.94c-1.15,.4-2.09,1.24-2.62,2.33-.53,1.1-.59,2.36-.18,3.51Zm-154.89-3.51c-.53-1.1-1.47-1.94-2.62-2.33l-23.03-7.94-15.83-35.13h56.86l47.73,183.62-70.35-114.03,7.41-20.68c.41-1.15,.35-2.41-.18-3.51Zm189.76-198.3c.29,4.01,.43,8.05,.43,12.07,0,76.15-50.45,138.1-112.46,138.1-57.64,0-106.15-54.27-111.85-124.25,48.35-2.09,86.67-25.32,110.59-44.8,18.05-14.69,30.57-29.19,36.97-37.32,7.47,16.01,29.17,51.4,76.32,56.19Zm-59.51,153.02l-7.14,27.49-29.94-22.3c6.83-1.05,13.49-2.8,19.92-5.17l17.17-.02Zm-26.28,101.1l-9.52-50.05,13.45-23.53,11.23,8.36c.49,.37,1.04,.61,1.6,.75l-16.76,64.47Zm-69.62-64.47c.56-.14,1.11-.38,1.6-.75l11.23-8.36,13.45,23.53-9.52,50.05-16.76-64.47Zm33.75,9.15l-13.56-23.74,21.08-15.7c.7,.01,1.4,.03,2.1,.03,.58,0,1.16-.02,1.73-.03l21.08,15.7-13.53,23.67-18.91,.07Zm-6.1-40.65l-30.03,22.36-7.18-27.62h17.31c6.43,2.4,13.08,4.17,19.89,5.25Zm10.39,177.87l-15.96-61.41c.06-.18,.12-.35,.15-.54l12.58-66.17,16.72-.06,12.6,66.23c.04,.19,.1,.36,.15,.53l-15.96,61.41c-.08,.29-.12,.59-.14,.88h-10.01c-.02-.29-.06-.59-.14-.88ZM110.44,128.69c0-.71,1.89-71.71,69.29-104.47,45.23-21.99,104.5-.9,105.09-.68,.59,.21,1.22,.31,1.84,.27,.39-.02,38.87-2.16,65.52,18.38,26.26,20.23,39.24,45.17,39.67,76.27,.69,48.68,1.12,151.46,1.21,174.32l-88.26,.12c39.94-24.19,67.43-74.2,67.43-131.84,0-5.54-.26-11.12-.77-16.59-.04-.42-.15-.81-.29-1.18,0-.02-.01-.03-.02-.05-.09-.22-.18-.44-.3-.64-.11-.21-.25-.4-.4-.59,0-.01-.02-.02-.02-.03-.77-.98-1.93-1.65-3.28-1.74-57.73-3.61-74.7-55.74-75.39-57.95-.52-1.67-1.95-2.9-3.67-3.15-1.74-.26-3.45,.49-4.44,1.94-.57,.84-58.01,83.63-149.92,84.87-2.51,.03-4.52,2.1-4.49,4.61h0c-.05,.33-.07,.65-.05,.99,3.1,53.28,29.76,98.54,67.06,121.23H109.86c.1-25.61,.57-150.32,.57-164.09Zm-41.23,357.03c-.08-4.26-1.17-103.05,55.1-177.28l15.37,34.11c.52,1.14,1.48,2.02,2.67,2.43l20.53,7.08-6.6,18.41c-.47,1.3-.32,2.75,.41,3.93l68.79,111.49H69.21v-.18Zm206.03,.18l68.79-111.49c.73-1.18,.88-2.62,.41-3.93l-6.6-18.41,20.53-7.08c1.19-.41,2.15-1.29,2.67-2.43l17.01-37.76c31.64,40.35,49.33,101.18,52.57,180.91v.18h-155.38Z"/></svg>