<?xml version="1.0" encoding="UTF-8"?><svg id="Outros" xmlns="http://www.w3.org/2000/svg" viewBox="0 0 500 500"><defs><style>.cls-1{fill:#efefef;}</style></defs><path class="cls-1" d="M250,5c-92.84,0-168.37,75.53-168.37,168.37,0,49.05,43.21,132.92,79.46,194.65,24.07,40.98,45.38,72.71,55.94,87.98,26.99,39.01,30.16,39.01,32.96,39.01s5.93,0,32.9-39.01c10.57-15.29,31.9-47.05,55.95-87.98,36.27-61.74,79.51-145.62,79.51-194.65,0-92.84-75.53-168.37-168.37-168.37Zm-.01,478.04c-22.91-24.98-157.98-226.81-157.98-309.68C92.01,86.25,162.89,15.38,250,15.38s157.99,70.87,157.99,157.99c0,82.44-135.08,284.59-158,309.68Z"/><path class="cls-1" d="M352.61,156.5l-99.61-77.62c-1.88-1.47-4.51-1.46-6.39,0l-99.23,77.62c-1.74,1.36-2.43,3.69-1.71,5.78,.72,2.09,2.69,3.5,4.91,3.5h25.32v84.22c0,2.87,2.32,5.19,5.19,5.19h137.82c2.87,0,5.19-2.32,5.19-5.19v-84.22h25.32c2.22,0,4.19-1.41,4.91-3.5,.72-2.09,.03-4.42-1.72-5.78Zm-84.76,88.31h-35.7v-48.72h35.7v48.72Zm51.06-89.4c-2.87,0-5.19,2.32-5.19,5.19v84.22h-35.49v-53.91c0-2.87-2.32-5.19-5.19-5.19h-46.08c-2.87,0-5.19,2.32-5.19,5.19v53.91h-35.49v-84.22c0-2.87-2.32-5.19-5.19-5.19h-15.46l84.18-65.85,84.5,65.85h-15.41Z"/></svg>