<?xml version="1.0" encoding="UTF-8"?><svg id="Outros" xmlns="http://www.w3.org/2000/svg" viewBox="0 0 500 500"><defs><style>.cls-1{fill:#efefef;}</style></defs><path class="cls-1" d="M489.8,9.39c-3.31-2.63-7.56-3.59-11.68-2.65L185.32,74.17c-6.3,1.45-10.69,6.98-10.69,13.44V387.66c-15.42-22.03-45.14-36.99-79.19-36.99-49.87,0-90.44,32.06-90.44,71.46s40.57,71.47,90.44,71.47,89.72-31.51,90.42-70.44c0-.11,.02-.22,.02-.33V199.3L483.76,126.1v203.77c-15.42-22.03-45.14-36.99-79.19-36.99-49.87,0-90.44,32.06-90.44,71.46s40.57,71.47,90.44,71.47,89.96-31.69,90.43-70.78c0-.07,.01-.14,.01-.22V20.18c0-4.23-1.9-8.16-5.2-10.79ZM95.44,482.36c-43.67,0-79.19-27.02-79.19-60.22s35.53-60.22,79.19-60.22,79.19,27.01,79.19,60.22-35.53,60.22-79.19,60.22Zm309.13-57.8c-43.67,0-79.19-27.02-79.19-60.22s35.53-60.22,79.19-60.22,79.19,27.01,79.19,60.22-35.53,60.22-79.19,60.22ZM185.87,187.72V87.6c0-1.19,.81-2.21,1.97-2.48L480.64,17.71c1.04-.25,1.79,.2,2.15,.49,.36,.29,.96,.92,.96,1.99V114.52L185.87,187.72Z"/></svg>