<?xml version="1.0" encoding="UTF-8"?><svg id="Outros" xmlns="http://www.w3.org/2000/svg" viewBox="0 0 500 500"><defs><style>.cls-1{fill:#2a2a2a;}</style></defs><path class="cls-1" d="M491.17,8.02c-3.32-2.65-7.6-3.61-11.74-2.66L184.95,73.16c-6.33,1.46-10.75,7.01-10.75,13.51V388.45c-15.51-22.16-45.4-37.2-79.65-37.2-50.15,0-90.95,32.24-90.95,71.87s40.8,71.88,90.95,71.88,90.24-31.69,90.94-70.85c0-.11,.02-.22,.02-.33V199.01L485.09,125.39v204.93c-15.51-22.16-45.4-37.2-79.65-37.2-50.15,0-90.95,32.24-90.95,71.87s40.8,71.88,90.95,71.88,90.48-31.87,90.94-71.19c0-.07,.01-.14,.01-.22V18.87c0-4.25-1.91-8.2-5.23-10.85ZM94.55,483.69c-43.92,0-79.65-27.17-79.65-60.57s35.73-60.56,79.65-60.56,79.65,27.17,79.65,60.56-35.73,60.57-79.65,60.57Zm310.89-58.13c-43.92,0-79.65-27.17-79.65-60.57s35.73-60.56,79.65-60.56,79.65,27.17,79.65,60.56-35.73,60.57-79.65,60.57ZM185.51,187.36V86.67c0-1.2,.81-2.22,1.98-2.49L481.96,16.38c1.04-.25,1.8,.2,2.16,.49,.36,.29,.96,.93,.96,2V113.74L185.51,187.36Z"/></svg>