<?xml version="1.0" encoding="UTF-8"?><svg id="Outros" xmlns="http://www.w3.org/2000/svg" viewBox="0 0 500 500"><defs><style>.cls-1{fill:#2a2a2a;}</style></defs><path class="cls-1" d="M403.39,29.38h-1.42v-2.29c0-12.18-9.91-22.09-22.09-22.09H96.61c-12.18,0-22.09,9.91-22.09,22.09V448.54c0,12.18,9.91,22.09,22.09,22.09h1.42v2.3c0,12.18,9.91,22.08,22.08,22.08h225.87c5.37,0,10.42-2.09,14.22-5.89l59.38-59.38c3.8-3.8,5.89-8.85,5.89-14.22V51.46c0-12.18-9.91-22.08-22.08-22.08ZM96.61,461.3c-7.04,0-12.76-5.72-12.76-12.76V27.09c0-7.04,5.72-12.76,12.76-12.76H379.89c7.04,0,12.76,5.72,12.76,12.76v2.29H120.11c-12.18,0-22.08,9.91-22.08,22.08V461.3h-1.42Zm23.5,24.38c-7.03,0-12.76-5.72-12.76-12.76V51.46c0-7.04,5.72-12.76,12.76-12.76H403.39c7.03,0,12.76,5.72,12.76,12.76V415.51c0,.31-.02,.61-.04,.92h-52.92c-9.33,0-16.92,7.59-16.92,16.92v52.32c-.09,0-.19,.01-.28,.01H120.11Zm235.48-5.14v-47.19c0-4.19,3.41-7.59,7.59-7.59h47.19l-54.79,54.78Z"/><path class="cls-1" d="M158.3,203.17c2.56,.25,4.84-1.63,5.09-4.2,.37-3.82-1.06-6.24-2.33-7.6-1.96-2.11-5.01-3.2-8.55-3.12-5.89,.15-11.85,4.76-11.85,13.25,0,3.77,1.48,7.2,4.18,9.65,2.11,1.92,5.83,4.05,11.96,4.05,.86,0,1.77-.04,2.73-.13,10.61-1,17.05-7.94,16.81-18.1-.03-1.16-.04-9.6-.04-21.01,12.19-2.29,18.53-11.55,18.53-20.71,0-11.65-7.07-19.43-18.51-20.49,0-5.37,0-10.46,.01-14.96,5.09-3.83,10.12-7.6,11.16-8.3,5.11-3.44,8.41-9.13,8.41-14.48s-3.81-14.24-14.02-14.24c-8.89,0-14.87,7.25-14.87,18.04v14.33c-3.81,2.86-7.47,5.61-9.85,7.37l-.8,.59c-4.92,3.58-15.14,11.04-15.14,25.89s10.86,25.87,25.75,27.34c0,11.65,.01,19.66,.04,20.87,.13,5.24-2.61,8.05-8.36,8.6-3.37,.31-6.12-.24-7.54-1.53-.76-.69-1.13-1.6-1.13-2.76,0-3.58,2.12-3.91,2.77-3.93,.67-.02,1.13,.07,1.37,.15,0,.09,0,.21-.02,.36-.25,2.56,1.63,4.84,4.2,5.09Zm18.03-102.37c0-2.62,.54-8.72,5.54-8.72,4.46,0,4.69,4.1,4.69,4.92,0,1.92-1.48,4.85-4.3,6.75-.78,.52-2.8,2.02-5.94,4.37v-7.32Zm-.03,43.34c6.18,.83,9.19,4.47,9.19,11.11,0,4.5-2.92,9.27-9.2,11.12,0-7.09,0-14.75,.01-22.23Zm-9.32-8.34c-2.4,.84-4.56,2.13-6.37,3.83-3.55,3.33-5.51,8.06-5.51,13.32,0,2.58,2.09,4.66,4.66,4.66s4.66-2.09,4.66-4.66,.88-4.94,2.55-6.51c0,7.24,0,14.17,0,20.46-8.47-1.3-16.42-7.49-16.42-17.93s6.81-15.07,11.31-18.35l.86-.63c1.17-.86,2.64-1.96,4.28-3.19,0,3.01,0,6.01,0,8.99Z"/><path class="cls-1" d="M220.4,103.63h157.79c2.58,0,4.66-2.09,4.66-4.66s-2.09-4.66-4.66-4.66H220.4c-2.58,0-4.66,2.09-4.66,4.66s2.09,4.66,4.66,4.66Z"/><path class="cls-1" d="M220.4,153.65h157.79c2.58,0,4.66-2.09,4.66-4.66s-2.09-4.66-4.66-4.66H220.4c-2.58,0-4.66,2.09-4.66,4.66s2.09,4.66,4.66,4.66Z"/><path class="cls-1" d="M220.4,203.67h157.79c2.58,0,4.66-2.09,4.66-4.66s-2.09-4.66-4.66-4.66H220.4c-2.58,0-4.66,2.09-4.66,4.66s2.09,4.66,4.66,4.66Z"/><path class="cls-1" d="M145.31,253.69h232.87c2.58,0,4.66-2.09,4.66-4.66s-2.09-4.66-4.66-4.66H145.31c-2.58,0-4.66,2.09-4.66,4.66s2.09,4.66,4.66,4.66Z"/><path class="cls-1" d="M145.31,303.71h232.87c2.58,0,4.66-2.09,4.66-4.66s-2.09-4.66-4.66-4.66H145.31c-2.58,0-4.66,2.09-4.66,4.66s2.09,4.66,4.66,4.66Z"/><path class="cls-1" d="M145.31,353.74h232.87c2.58,0,4.66-2.09,4.66-4.66s-2.09-4.66-4.66-4.66H145.31c-2.58,0-4.66,2.09-4.66,4.66s2.09,4.66,4.66,4.66Z"/><path class="cls-1" d="M382.85,399.09c0-2.58-2.09-4.66-4.66-4.66H145.31c-2.58,0-4.66,2.09-4.66,4.66s2.09,4.66,4.66,4.66h232.87c2.58,0,4.66-2.09,4.66-4.66Z"/></svg>