<?xml version="1.0" encoding="UTF-8"?><svg id="Outros" xmlns="http://www.w3.org/2000/svg" viewBox="0 0 500 500"><defs><style>.cls-1{fill:#efefef;}</style></defs><path class="cls-1" d="M319.25,307.31c-41.39-25.47-93.92-31.04-154.42-17.51-4.78,1.59-8.76,6.37-7.16,11.94,1.59,4.78,6.37,8.75,11.94,7.16,55.72-12.74,102.68-7.96,140.09,15.12,4.78,3.18,10.35,1.59,13.53-3.18,2.39-4.78,1.59-11.14-3.98-13.53Z"/><path class="cls-1" d="M339.15,261.14c-49.35-30.25-120.99-39-179.1-21.49-6.37,1.59-9.55,8.76-7.96,15.12,1.59,6.37,8.76,9.55,15.13,7.96,50.15-15.92,115.41-7.96,158.4,18.31,5.57,3.98,12.74,1.59,16.72-3.98,3.98-5.57,1.59-13.53-3.18-15.92Z"/><path class="cls-1" d="M410.9,0H89.1C39.89,0,0,39.89,0,89.1V410.9C0,460.11,39.89,500,89.1,500H410.9c49.21,0,89.1-39.89,89.1-89.1V89.1C500,39.89,460.11,0,410.9,0ZM250,409.19c-87.92,0-159.19-71.27-159.19-159.19S162.08,90.81,250,90.81s159.19,71.27,159.19,159.19-71.27,159.19-159.19,159.19Z"/><path class="cls-1" d="M359.05,207.81c-58.9-35.02-152.03-38.21-208.54-21.49-7.17,2.39-11.94,10.35-9.55,18.31,2.39,7.16,10.35,11.94,18.31,9.55,48.55-15.12,133.72-11.94,184.66,18.31,7.17,3.98,16.72,1.59,20.7-3.98,3.98-7.16,1.59-16.72-5.57-20.7Z"/></svg>