<?xml version="1.0" encoding="UTF-8"?><svg id="Outros" xmlns="http://www.w3.org/2000/svg" viewBox="0 0 500 500"><defs><style>.cls-1{fill:#efefef;}</style></defs><path class="cls-1" d="M360.64,493.87c-3.78,0-7.63-.14-11.43-.43-39.88-3.07-78.92-19.03-139.23-56.92-31.07-19.52-57.61-44.25-79.48-65.87-21.87-21.69-46.9-48.02-66.67-78.84C25.34,231.85,9,192.97,5.55,153.15c-2.3-26.54,.66-76.54,46.26-113.27C82.23,15.38,110.35,8.37,124.39,6.37c1.05-.16,2.08-.24,3.08-.24,9.21,0,17.15,6.4,19.32,15.56l22.34,94.54c3.02,12.77-1.7,26.27-12.01,34.39l-23.48,18.49c-6.37,5.01-8.31,13.82-4.62,20.95,12.97,25.07,39.91,72.28,74.54,106.84,34.91,34.3,82.34,60.73,107.52,73.43,2.31,1.17,4.9,1.79,7.5,1.79,5.19,0,10.2-2.47,13.41-6.6l18.27-23.68c6.36-8.25,16.41-13.17,26.87-13.17,2.49,0,4.98,.28,7.41,.83l94.74,21.41c10.25,2.32,16.93,11.89,15.55,22.26-1.87,14.08-8.62,42.27-32.8,72.9-31.19,39.51-72.34,47.8-101.37,47.8ZM126.83,20.56c-12.88,1.82-38.25,8.18-66,30.53C20.44,83.62,17.83,128.22,19.88,151.91c3.23,37.28,18.95,74.32,56.06,132.12,19.01,29.63,43.37,55.25,64.69,76.4,21.31,21.07,47.13,45.14,77.01,63.91,58.16,36.54,95.37,51.89,132.69,54.75,3.37,.26,6.79,.39,10.19,.39,25.92,0,62.6-7.34,90.22-42.33,22.06-27.94,28.16-53.27,29.84-65.89,.4-2.96-1.53-5.68-4.48-6.34l-94.73-21.4c-1.4-.32-2.85-.48-4.3-.48-6,0-11.77,2.84-15.43,7.59l-18.26,23.67c-5.9,7.65-15.18,12.21-24.82,12.21-4.83,0-9.66-1.16-13.96-3.34-25.91-13.08-74.81-40.35-111.15-76.06-36.03-35.96-63.83-84.62-77.19-110.43-6.85-13.24-3.28-29.59,8.5-38.87l23.48-18.49c5.93-4.67,8.64-12.43,6.91-19.78l-22.34-94.54c-.59-2.61-2.91-4.45-5.65-4.45h-.32Z"/></svg>