<?xml version="1.0" encoding="UTF-8"?><svg id="Expanded_copy" xmlns="http://www.w3.org/2000/svg" viewBox="0 0 500 500"><defs><style>.cls-1{fill:#2a2a2a;}</style></defs><path class="cls-1" d="M316.45,495c-4.49,0-8.58-2.56-10.68-6.67-1.86-3.65-2.51-7.55-2.9-10.89-.64-5.47-1.64-11-2.61-16.35-.71-3.88-1.44-7.9-2.02-11.88-3.29-22.26,.75-43.61,12-63.47,1.51-2.67,1.66-4.77,.55-7.5-1.89-4.6-4.17-9.44-8.03-13.57-5.81-6.23-9-13.68-9.49-22.17-.3-5.26,1.66-9.65,5.85-13.05,.29-.23,.57-.46,.86-.7-12.87,3.16-26.01,5.33-39.12,6.45-2.28,.2-4.62,.29-7.14,.29-5.96,0-11.96-.56-17.59-1.13-11.87-1.21-23.9-3.4-36.67-6.7,1.85,1.51,3.58,3.22,4.74,5.6,2.27,4.63,2.82,9.35,1.67,14.44-1.43,6.34-4.35,11.87-8.69,16.42-4.56,4.78-7.19,10.75-9.15,15.96-.25,.67-.16,1.18,.41,2.18,5.13,9.07,8.77,17.62,11.12,26.13,3.79,13.7,4.35,28.4,1.67,43.68-1.47,8.4-2.87,16.97-4.23,25.25l-.64,3.88c-.39,2.35-1.12,4.56-2.18,6.57-2.13,4.04-6.18,6.55-10.59,6.55-3.21,0-6.26-1.31-8.59-3.7-2.34-2.39-3.78-5.28-4.42-8.82-5.13-28.61-15.37-52.14-31.32-71.95-1.05-1.31-2.26-2.88-3.25-4.6-1.24-2.16-1.86-4.41-1.91-6.86-.12-6.46,.41-12.97,.93-19.25,0,0,.22-2.76,.32-3.98,.19-2.38,.37-4.76,.6-7.14,.08-.86-.15-1.35-.92-1.91-7.84-5.78-14.51-10.52-21.56-14.89-5.82-3.61-10.51-5.86-15.22-7.28-5.49-1.66-9.08-4.56-10.98-8.86-.89-2.02-1.1-4.04-1.25-6.1-.7-9.54-3.5-19.16-8.8-30.29-3.09-6.48-7.05-13.23-12.48-21.25-2.69-3.98-5.51-8.83-6.02-14.7-.68-7.89,3.41-14.38,10.43-16.53,.61-.19,.65-.2,.62-1.07-.24-6.71-1.41-13.46-2.54-19.98-.21-1.19-.41-2.38-.61-3.57-.98-5.78-1.69-12.64,.45-19.75,1.76-5.86,4.36-10.17,8.18-13.55,7.64-6.78,16-10.19,25.54-10.44h.54c3.39,0,6.79,.8,10.7,2.52,6.48,2.85,12.47,6.68,18.27,10.39l1.45,.92c2.4,1.53,4.55,2.85,6.56,4.03,.07,.04,.13,.08,.19,.11,0-.06,0-.11,0-.18,.01-2.43,0-4.85,0-7.28l-.08-25.84c-.11-38.54-.23-77.08-.4-115.62-.01-2.96,1-4.91,3.39-6.53,16.12-10.92,34.32-19.7,54.08-26.12,17.28-5.61,34.67-8.7,51.69-9.19,1.62-.05,3.23-.07,4.84-.07,33.25,0,64.55,10.09,93.05,29.98,4.55,3.18,8.92,6.72,13.13,10.14l.21,.17c1.96,1.59,2.83,3.45,2.83,6.03-.05,30.03-.05,60.07-.06,90.1v28.36c0,4.73-.02,9.47-.03,14.2,0,4.04-.02,12.4-.02,12.52,.11-.05,.23-.11,.36-.18,2.67-1.32,5.25-2.99,7.73-4.6l.93-.6c5.37-3.47,10.44-6.44,15.51-9.08,4.52-2.35,9.22-3.55,13.96-3.55,5.66,0,11.45,1.63,17.68,4.99,.2,.11,.4,.23,.59,.36,.12,.08,.23,.15,.36,.22,12.02,6.77,17.21,17.48,15.85,32.75-.36,4.08-1.09,8.15-1.8,12.08-.65,3.63-1.33,7.38-1.7,11.09-.08,.83-.15,1.66-.22,2.49-.11,1.34-.22,2.68-.39,4.01-.08,.63-.1,.78,.8,1.11,5.64,2.05,9.19,6.15,10.27,11.84,.71,3.72,.18,7.56-1.57,11.41-1.35,2.96-3.11,5.63-4.8,8.11-7.23,10.61-12.48,20.48-16.06,30.17-2.66,7.19-4.27,14.55-4.79,21.89-.34,4.78-2.62,8.53-6.8,11.16-1.86,1.17-3.98,2.1-6.47,2.82-3.25,.94-6.54,2.41-10.35,4.62-9.07,5.27-17.52,11.28-25.3,17-.69,.51-.89,.99-.81,1.99,.25,3.1,.48,6.21,.71,9.31,.28,3.73,.56,7.45,.86,11.18,.25,3.13,.22,6.28,.19,9.32v1.62c-.03,1.83-.68,3.44-1.37,4.91-.74,1.56-1.74,3.08-3.16,4.8-14.59,17.77-24.57,39.12-30.5,65.26-.48,2.13-.87,4.33-1.24,6.47l-.28,1.61c-.65,3.69-2.48,6.79-5.42,9.22-2.14,1.77-4.71,2.7-7.44,2.7h0Zm38.03-154.51c-1.22,3.21-3.1,6.05-5.65,8.58-13.7,13.58-24.96,29.65-33.44,47.77-6.35,13.55-8.94,28.06-7.71,43.14,.62,7.62,2.02,15.3,3.37,22.73,.95,5.23,1.94,10.64,2.65,16.01,.14,1.05,.49,2.23,1.06,3.6,.48,1.15,1.25,1.81,2.11,1.81,.72,0,1.49-.45,2.16-1.25,.74-.89,1.18-1.99,1.43-3.58,.87-5.58,2.23-11.56,4.15-18.27,5.78-20.2,13.89-37.24,24.78-52.12,1-1.37,2.06-2.7,3.09-4,.75-.95,1.5-1.9,2.24-2.86,1.11-1.46,2.03-2.81,2.01-4.47v-.95c-.04-1.79-.06-3.58-.09-5.37-1.45,2.07-3.34,3.77-5.65,5.09-.38,.21-.76,.59-1.16,.99-.15,.15-.31,.31-.47,.46-2.93,2.77-5.35,6.08-7.58,9.24l-.08,.12c-.24,.38-.79,1.25-1.89,1.25-.34,0-.68-.09-1-.27-.48-.27-.81-.7-.93-1.21-.21-.89,.3-1.62,.54-1.97l.67-.97c2.93-4.24,5.97-8.62,10.58-11.57,3.2-2.04,5.13-5.01,6.07-9.35,.17-.79,.24-1.6,.2-2.44-1.79,2.34-3.92,4.13-6.44,5.44-2.18,1.13-4.09,2.79-6.02,5.23-.54,.68-1.05,1.38-1.56,2.08-.4,.56-.81,1.11-1.22,1.66-.32,.45-.88,1.25-1.9,1.25-.3,0-.76-.08-1.24-.44-.35-.27-1.41-1.3-.14-3.06l.35-.48c2.63-3.67,5.35-7.47,9.82-9.76,4.19-2.14,6.69-5.56,7.42-10.15,.07-.46,.1-.91,.1-1.38-1.97,3.15-4.43,5.33-7.48,6.63-3.34,1.42-5.65,3.12-7.27,5.34-.34,.48-.9,1.29-1.94,1.29-.31,0-.78-.08-1.26-.47-.45-.37-1.36-1.43-.04-3.12,2.4-3.22,4.74-5.08,7.43-5.96,5.48-1.8,9.56-7.95,9.86-14.34-2.16,3.47-5.06,6.27-8.64,8.37-2.12,1.24-3.97,2.89-5.65,4.5l-.25,.26c-.19,.19-.38,.39-.59,.56-.43,.37-.9,.56-1.39,.56-.53,0-1.02-.23-1.39-.63-.63-.7-.64-1.73-.02-2.52,.32-.41,.66-.8,1.02-1.18,1.72-1.84,3.74-3.24,5.7-4.59,.59-.4,1.17-.81,1.75-1.22,6.2-4.47,9.19-9.94,9.14-16.73,0-1.09,.06-2.18,.12-3.23,.03-.51,.06-1.02,.08-1.53,.04-.84,.1-1.67,.17-2.51Zm-210.21,51.94c-.35,4.38,.75,7.82,3.47,10.82,4.21,4.65,7.63,9.99,10.4,14.59,11,18.23,18.55,38.52,22.41,60.31,.28,1.58,.54,2.78,1.27,3.8,.78,1.09,1.4,1.53,2.13,1.53,.08,0,.17,0,.25-.02,.67-.08,1.62-.37,2.24-1.95,.67-1.73,1.14-3.62,1.42-5.78,.92-7,2.17-14.06,3.38-20.88l.82-4.61c2.48-14.18,2.15-26.97-1-39.09-2.39-9.2-6.47-18.34-13.21-29.66-7.47-12.54-16.39-23.99-26.51-34.04-2.02-2.01-3.54-4.25-4.58-6.78,.24,2.8,.38,5.64,.23,8.49-.14,2.75,.67,5.38,2.55,8.27,1.71,2.62,3.93,4.72,6.8,6.42,2.44,1.44,4.73,3.3,7.01,5.66,.47,.47,1.08,1.08,1.06,2-.01,.53-.24,1.02-.65,1.4-.49,.45-.99,.54-1.33,.54-.95,0-1.53-.69-1.84-1.07l-.12-.14c-2.28-2.38-4.94-4.2-7.23-5.67-2.57-1.64-4.78-3.75-6.59-6.29-.12,1.82-.18,3.55,.52,5.18,1.43,3.33,3.72,5.69,7.01,7.22,.32,.15,.65,.29,.98,.43,.58,.25,1.16,.49,1.71,.78,2.58,1.36,4.74,3.24,6.43,5.6,.27,.37,.74,1.01,.59,1.84-.07,.36-.27,.88-.88,1.28-.31,.21-.67,.31-1.03,.31-.86,0-1.4-.58-1.66-.86-.19-.21-.33-.38-.47-.55l-.11-.13c-1.77-2.14-3.83-3.66-6.31-4.66-3.06-1.22-5.54-3.03-7.42-5.39,.26,4.18,2.3,7.37,6.07,9.49,3.92,2.2,7.14,5.28,10.14,9.69,.08,.12,.19,.24,.31,.38,.5,.59,1.19,1.39,1.04,2.42-.08,.56-.4,1.06-.91,1.4-.35,.23-.74,.36-1.14,.36-1.27,0-1.88-1.11-2.29-1.84-.09-.17-.18-.34-.27-.46-.31-.41-.62-.83-.93-1.25-1.77-2.39-3.43-4.64-5.91-5.95-2.9-1.53-5.18-3.38-6.93-5.61,0,.2,0,.41-.02,.61-.15,2.89,.47,6.91,4.31,9.61,5.04,3.54,8.72,8.21,11.66,12.31,.07,.1,.17,.21,.27,.32,.47,.53,1.18,1.33,1.06,2.37-.05,.41-.24,1.01-.91,1.49-.33,.24-.72,.37-1.11,.37-1.2,0-1.83-1.08-2.24-1.79-.09-.16-.18-.32-.27-.44l-.66-.88c-3.02-4.03-5.88-7.84-10.07-10.42-1.18-.73-2.09-1.72-2.82-2.73l-.13,1.65Zm172.95-26.01c1.62,3.15,3.04,6.62,4.34,10.59,6.97-11.34,15.35-21.87,25.64-32.2,3.43-3.44,4.94-7.82,4.77-13.8-.07-2.38-2.11-2.8-2.98-2.87-.19-.02-.38-.02-.56-.02-1.8,0-3.5,.76-5.19,2.32-1.1,1.01-2.15,2.06-3.21,3.12-.55,.55-1.1,1.1-1.66,1.64-4.14,4.04-7.66,6.67-11.41,8.55-4.58,2.29-8.96,3.41-13.38,3.41-1.35,0-2.71-.11-4.05-.32-2.52-.4-4.38-1.32-5.68-2.86,.53,2.89,1.69,5.55,2.84,7.87,.72,1.45,1.86,2.4,3.59,3.02,1.38,.49,2.76,.73,4.2,.73,2.12,0,4.35-.52,6.83-1.6,.52-.23,1.03-.48,1.54-.73,.39-.19,.79-.39,1.19-.57,.36-.17,.7-.25,1.03-.25,.67,0,1.28,.35,1.62,.95,.4,.69,.46,1.8-.68,2.63-.38,.28-.79,.57-1.25,.81-3.63,1.86-7,2.76-10.31,2.76-.61,0-1.22-.03-1.84-.09,.33,.37,.66,.77,.95,1.22,.79,1.22,1.77,1.76,3.19,1.76,.49,0,1.02-.06,1.63-.19,1.23-.26,2.41-.81,3.65-1.4,.13-.06,.2-.1,.26-.14,.37-.21,.86-.51,1.5-.51,.76,0,1.42,.44,1.77,1.19,.23,.5,.25,1.03,.07,1.52-.32,.85-1.12,1.21-1.6,1.42l-.21,.1c-2.37,1.24-4.48,1.87-6.6,1.99Zm-164.73-39.05c-1.06,0-1.94,.35-2.56,1.02-.72,.78-1.04,1.91-.94,3.3,.11,1.41,.28,2.81,.51,4.15,.62,3.6,2.12,6.44,4.58,8.71,4.28,3.93,7.98,8.25,11.35,12.34,5.57,6.75,10.15,13.12,13.98,19.44,1.79-5.25,3.58-9.25,5.71-12.78-1.88-.09-3.53-.5-5.03-1.26-.14-.07-.32-.13-.51-.2-.73-.26-1.72-.61-2.14-1.56-.16-.37-.29-.96,.01-1.67,.31-.74,.97-1.18,1.76-1.18,.72,0,1.36,.37,1.93,.7,.18,.11,.35,.21,.51,.28,1.49,.61,2.76,.9,3.86,.9,1.7,0,3.11-.73,4.6-2.48-.8,.12-1.6,.18-2.39,.18-3.46,0-6.92-1.15-10.58-3.5-1.77-1.1-1.39-2.32-1.15-2.8,.35-.7,.97-1.1,1.7-1.1,.56,0,1,.25,1.28,.41l.13,.07c.32,.15,.62,.33,.92,.52l.29,.18c2.33,1.37,4.51,2.09,6.64,2.19,.34,.02,.67,.03,1,.03,3.3,0,5.44-.9,6.73-2.84,1.34-2.01,2.17-4.37,2.45-6.93-1.26,1.35-3.02,2.24-5.29,2.71-1.22,.25-2.48,.37-3.86,.37-1,0-2.05-.06-3.22-.19-7.16-.81-13.7-4.04-20.01-9.88-1.39-1.29-2.76-2.61-4.13-3.93-1.06-1.02-2.11-2.03-3.18-3.04-.94-.89-2.05-1.53-3.3-1.89-.57-.17-1.12-.25-1.64-.25Zm197.59-3.94c.49,0,1,.03,1.52,.09,2.51,.29,4.39,1.49,5.6,3.57,1.43,2.45,2.01,5.22,1.77,8.47-.1,1.35-.2,2.7-.3,4.04-.19,2.54-.39,5.08-.55,7.62-.16,2.5-.02,5.08,.12,7.58,.08,1.48,.16,3.01,.19,4.54,.06-.04,.34-.26,.34-.26,7.7-5.97,14.89-11.09,21.97-15.66,6.42-4.14,12-7.28,18.4-9.11,.86-.24,1.7-.66,2.59-1.09l.32-.16c1.55-.76,2.41-1.95,2.61-3.65,.1-.8,.17-1.61,.24-2.42,.07-.74,.13-1.49,.22-2.23,.49-4.26,1.35-8.55,2.63-13.08-1.6,.74-3.29,1.38-5.04,1.92-1.11,.34-2.24,.65-3.36,.96-3.97,1.09-7.71,2.11-10.93,4.48-.45,.33-.89,.49-1.34,.49-.53,0-1.03-.23-1.39-.64-.26-.29-1.01-1.34,.16-2.68,.75-.87,1.68-1.43,2.56-1.91,3.18-1.73,6.52-2.69,9.95-3.61,2.71-.72,5.87-1.67,8.81-3.23,1.92-1.02,2.86-2.58,3.6-4.55-4.37,2.64-9.01,4.05-12.73,4.99-3.2,.81-5.88,1.84-8.21,3.14-.08,.05-.3,.26-.44,.39-.53,.51-1.19,1.14-2.13,1.14-.4,0-1.16-.13-1.73-1.01-.32-.5-.41-1.07-.27-1.62,.29-1.11,1.42-1.72,2.34-2.2,.16-.09,.32-.17,.45-.25,3.43-2.02,7.27-3.03,10.65-3.93,3.43-.91,6.75-2.26,10.14-4.15,2.62-1.46,4.64-3.5,6.29-6.41-5.54,3.85-11.76,6.64-18.54,8.31-2.77,.68-5.24,1.72-7.35,3.08-.08,.05-.16,.13-.26,.21-.43,.37-1.01,.88-1.82,.88-.59,0-1.11-.27-1.48-.76-.37-.48-.52-1.05-.42-1.6,.17-.96,.96-1.47,1.49-1.8,.09-.06,.17-.11,.25-.16,1.36-1.01,2.95-1.83,4.86-2.5l.46-.16c1.5-.52,3.05-1.07,4.65-1.46,7.75-1.91,14.91-5.87,21.87-12.11,.87-.78,1.56-1.73,2.19-2.76-5.51,3.95-11.45,7.73-18.16,9.99-1.18,.4-2.37,.75-3.57,1.1-3.46,1.02-6.73,1.98-9.56,4.03-.17,.12-.68,.49-1.36,.49h0c-.52,0-1-.21-1.36-.61-.38-.42-.56-.94-.51-1.48,.05-.58,.38-1.13,.93-1.55,.79-.6,1.54-1.17,2.39-1.64,2.81-1.56,5.88-2.47,8.77-3.23,2.87-.75,5.63-1.81,8.46-3.22,6.31-3.16,12.46-7.31,18.79-12.69,2.4-2.04,4.18-4.61,5.3-7.64-.74,.98-1.69,1.86-2.85,2.63-.26,.17-.51,.35-.76,.53-.55,.39-1.12,.79-1.75,1.13-2.11,1.14-4.24,2.37-6.29,3.55-3.38,1.95-6.88,3.97-10.5,5.7-6.24,2.98-12.48,5.95-18.73,8.91-8.03,3.82-16.06,7.63-24.07,11.47l-.17,.08c-14.97,7.17-30.45,14.58-44.17,24.48-1.4,1.01-2.81,2-4.22,3-3.43,2.41-6.97,4.91-10.25,7.59-1.51,1.23-1.98,2.72-1.48,4.66,.46,1.8,1.61,2.81,3.73,3.29,1.07,.24,2.2,.36,3.46,.36,1.06,0,2.23-.09,3.57-.27,6.01-.8,11.38-3.56,16.9-8.67,1.07-1,2.11-2.03,3.15-3.07,1.09-1.09,2.18-2.18,3.31-3.22,3.23-2.98,6.52-4.43,10.04-4.43Zm-256.85-12.8c1.65,5.7,2.7,11.61,3.11,17.59,.15,2.1,1.21,3.58,3.24,4.51,.87,.4,1.58,.73,2.29,.93,6.91,1.92,13.07,5.59,18.31,8.88,8.19,5.14,15.98,10.83,22.53,15.72,.02-1.06,.05-2.12,.08-3.18,.15-5.34,.3-10.86-.28-16.24l-.12-1.08c-.22-1.94-.45-3.95-.29-6.01,.43-5.47,3.9-9.01,8.85-9.01,1.1,0,2.25,.17,3.43,.52,.72,.21,1.37,.5,2,.79l.19,.08c2.24,1,3.91,2.62,5.51,4.19l1.77,1.73c3.61,3.54,7.02,6.88,11.36,9.11,4.49,2.31,8.35,3.39,12.15,3.39,1.42,0,2.86-.16,4.25-.48,2.66-.6,4.06-2.54,3.75-5.19-.15-1.33-.91-2.38-2.61-3.6-1.42-1.02-2.84-2.05-4.26-3.08-6.48-4.69-13.17-9.55-20.1-13.76-11.38-6.92-23.6-12.73-35.43-18.36-3.95-1.88-7.91-3.76-11.84-5.68-4.34-2.12-8.8-4.18-13.12-6.17-9.39-4.33-19.1-8.8-28.18-14.24-.76-.46-1.54-.89-2.31-1.32-1.68-.95-3.43-1.92-5.05-3.12-.87-.64-1.62-1.34-2.23-2.09,1.1,2.83,2.68,5.06,4.83,6.85,2.91,2.42,6.07,4.81,9.38,7.11,6.99,4.84,12.83,7.64,18.91,9.07,2.11,.49,4.05,1.3,5.51,1.94,1.54,.68,2.81,1.43,3.88,2.3,1.65,1.3,1.07,2.51,.75,2.96-.37,.53-.94,.84-1.55,.84-.69,0-1.19-.37-1.48-.59-2.87-2.07-6.07-3.07-8.83-3.78-4.77-1.23-9.33-3.16-13.94-5.91-2.53-1.51-5.13-3.22-7.87-5.18,.5,.82,1,1.63,1.5,2.44,.13,.22,.35,.45,.68,.73,6.65,5.73,13.27,9.39,20.22,11.2,2.94,.77,6.35,1.72,9.46,3.41,.92,.5,1.77,1.11,2.57,1.7,.79,.59,1,1.23,1.03,1.67,.05,.56-.16,1.11-.58,1.54-.36,.37-.84,.58-1.34,.58-.72,0-1.25-.41-1.53-.63-2.86-2.23-6.25-3.28-9.48-4.08-5.63-1.39-11.01-3.78-16.35-7.3,1.22,2.21,2.71,4.1,4.98,5.46,3.33,1.98,6.95,3.49,11.08,4.61,3.55,.96,6.73,1.89,9.78,3.52,.82,.44,1.76,.98,2.57,1.83,1.38,1.44,.57,2.56,.29,2.87-.37,.4-.86,.63-1.38,.63-.67,0-1.17-.36-1.43-.56-3.13-2.28-6.73-3.28-10.54-4.33l-.84-.24c-4.12-1.15-7.45-2.48-10.3-4.14,.89,2.34,2.12,4.21,4.77,5.11l1.18,.41c1.83,.63,3.72,1.28,5.59,1.83l.75,.22c1.93,.56,3.92,1.14,5.87,1.82,2.22,.77,4.07,1.75,5.65,2.99,1.58,1.2,1.25,2.3,.93,2.86-.38,.64-.98,1.01-1.66,1.01s-1.2-.38-1.5-.61c-3.23-2.23-6.84-3.29-10.28-4.2-2.56-.67-5.47-1.49-8.25-2.76Zm4.44-90.3c-1.12,.05-1.24,.38-1.32,.62,0,.24,.37,.61,.58,.81l.16,.16c.77,.77,1.55,1.53,2.32,2.3,1.57,1.53,3.18,3.12,4.71,4.76,4.42,4.75,9.44,10.39,13.12,17.12,4.03,7.36,3.66,14.85-1.09,22.26-1.27,1.97-2.13,4.04-2.64,6.31-.37,1.66-.64,2.83-.46,3.25,.18,.43,1.22,1.09,2.65,2,.4,.26,.8,.5,1.2,.75,29.43,17.91,60.31,30.72,91.78,38.07,17.12,4,31.45,5.86,45.09,5.86h.43c15.3-.05,29.86-3.02,42.07-5.92,24.13-5.73,48.43-15.16,72.22-28.03,6.12-3.31,12.29-6.98,18.33-10.91,1.1-.71,1.23-1.13,1.13-1.8-.46-2.82-1.13-5.81-2.94-8.53-4.72-7.09-5.28-14.41-1.65-21.76,1.41-2.87,3.29-5.78,5.92-9.16,4.34-5.6,9.33-10.59,14.08-15.23,.69-.67,.65-.79,.57-1-.14-.36-.34-.72-1.24-.77h-.17c-.32,0-.65,.03-.97,.06-.29,.03-.59,.06-.88,.07h-.34c-1.34,.01-1.92-.91-2-1.7-.06-.52,.05-1.47,1.38-2.01,.79-.34,1.62-.5,2.47-.5,2.02,0,3.9,.86,4.92,2.24,.02,.03,.04,.06,.06,.08,.03-.03,.07-.06,.11-.1,.21-.2,.43-.4,.65-.59,.23-.2,.45-.41,.67-.62,.61-.59,.72-.79,.75-.86h0s-.09-.22-.53-.87c-1.39-2.09-3.54-3.21-6.78-3.52-.36-.04-.73-.05-1.09-.05-1.51,0-2.99,.26-4.77,.6-.09,.02-.2,.06-.3,.09-.35,.11-.78,.26-1.25,.26-1,0-1.77-.65-1.97-1.66-.1-.53,0-1.06,.3-1.49,.54-.78,1.45-.92,2.11-1.03,.13-.02,.25-.04,.35-.06,1.8-.45,3.62-.68,5.41-.68,.55,0,1.11,.02,1.66,.06,4.24,.33,7.53,2.14,9.77,5.37,.08,.11,.17,.24,.26,.37,.13-.11,.27-.22,.4-.32,.25-.2,.5-.42,.75-.63l.46-.4c.17-.14,.2-.22,.2-.22,0,0,0-.08-.09-.27-2.64-5.05-6.06-7.81-10.78-8.68-.76-.14-1.56-.21-2.35-.21-2.78,0-5.5,.87-7.8,1.73l-.15,.06c-.31,.13-.74,.31-1.24,.31-.75,0-1.38-.41-1.71-1.08-.33-.69-.22-1.27-.08-1.62,.35-.85,1.17-1.16,1.61-1.33l.13-.05c3.31-1.35,6.31-2.01,9.16-2.01,.76,0,1.53,.05,2.28,.14,5.85,.73,10.44,4,14.02,10,.13,.22,.24,.38,.32,.5,.12-.08,.27-.19,.48-.35,2.92-2.21,3.84-5.86,2.48-9.76-2.77-7.9-11.24-13.64-20.16-13.64-2.61,0-5.1,.49-7.4,1.46-5.38,2.26-10.24,5.26-14.27,7.89-6.09,3.97-13.26,8.45-21.2,11.39-.67,.25-1.5,.56-1.66,.72-.08,.18-.08,1.07-.08,1.86,0,2.92,0,5.84-.02,8.76-.02,8-.05,16.27,.12,24.39,.08,3.69-1.23,6.01-4.49,8.02-20.77,12.77-43.06,22.01-66.25,27.47-10.06,2.37-20.34,3.83-30.55,4.36-.43,.02-.8,.04-1.13,.04-3.35,0-3.61-1.88-3.61-4.54,0-5.12,0-10.25,0-15.37v-12.43c0-5.1,0-10.19-.01-15.29,0-.63-.05-.92-.08-1.04-.12-.03-.39-.07-.99-.07-.61,0-.88,.04-1.01,.07-.03,.13-.08,.43-.08,1.09-.02,4.95-.01,9.9-.01,14.85,0,0,0,23.67,0,28.97,0,2.99-.78,3.77-3.8,3.78h-.27c-2.55,0-5.06-.16-7.4-.32-16.9-1.17-30.68-3.86-43.38-8.48-16.87-6.13-31.72-13.78-45.38-23.39-2.35-1.65-3.33-3.56-3.31-6.39,.05-5.82,.05-11.64,.05-17.46,0-5.54,0-11.08,.04-16.61,.01-1.77-.41-2.48-1.87-3.16-3.8-1.76-7.68-3.93-12.58-7.05-5.71-3.63-12.18-7.75-18.73-11.33-3.3-1.8-6.61-2.68-10.12-2.68-3.11,0-6.32,.69-9.82,2.1-5.55,2.25-9.14,6.35-10.96,12.54-.93,3.17-.21,5.82,2.19,8.1,.12,.12,.22,.21,.31,.28,.06-.09,.13-.19,.21-.32l.28-.46c.45-.74,.91-1.51,1.46-2.23,3.72-4.93,8.73-7.53,14.48-7.53,2.98,0,6.13,.68,9.35,2.02,2,.81,1.69,2.22,1.55,2.63-.28,.81-.96,1.31-1.79,1.31-.4,0-.74-.12-.96-.19-.61-.19-1.1-.35-1.6-.52-.83-.27-1.61-.53-2.4-.73-1.41-.34-2.79-.51-4.12-.51-5.16,0-9.43,2.56-12.35,7.41-.22,.36-.8,1.32-.81,1.6,.1,.19,.96,.9,1.29,1.16,.15,.12,.31,.25,.46,.37,.13-.16,.27-.34,.4-.52,2.47-3.27,7.41-5.46,12.29-5.46,2.14,0,4.13,.43,5.77,1.24,1.28,.59,1.44,1.45,1.36,2.06-.13,1.02-.92,1.7-1.97,1.7-.17,0-.35-.02-.52-.04-.56-.09-1.11-.19-1.67-.29-.99-.18-1.92-.36-2.86-.43-.42-.03-.84-.05-1.26-.05-2.92,0-5.25,.88-7.11,2.68-1.2,1.16-1.26,1.5-1.26,1.56,0,.06,.09,.39,1.35,1.48l.16,.13c.22,.18,.43,.36,.63,.57,.05,.05,.1,.1,.13,.13,.04-.03,.08-.08,.12-.13,1.19-1.36,2.74-2.05,4.58-2.05,.67,0,1.39,.1,2.14,.28l.14,.03c2.1,.41,2.01,1.92,1.93,2.38-.16,.95-.92,1.56-1.92,1.56-.15,0-.3-.01-.46-.03-.41-.02-.68-.03-.95-.04-.27-.01-.54-.03-.81-.03h-.28Zm289.64,45.3c.29,.5,.6,.96,.92,1.4,1.57,2.16,2.6,4.65,3.25,7.82,.54,2.62,.82,5.28,.84,7.9l3.73-1.74c7.43-3.47,15.12-7.05,22.21-11.41,.65-.4,.97-.74,1.13-1.21,.1-.31,.14-.51,.15-.63-.06,0-.14-.01-.24-.01s-.21,0-.33,.02c-1.46,.14-2.9,.66-4.11,1.15-.7,.28-1.39,.57-2.08,.86-.63,.27-1.27,.53-1.91,.79-.3,.12-.68,.27-1.13,.27-.65,0-1.23-.32-1.59-.86-.32-.48-.41-1.03-.26-1.56,.12-.41,.43-.98,1.27-1.37l.68-.32c2.96-1.39,6.02-2.83,9.55-2.98h.3c1.47,0,3.25,.53,3.78,2.98,1.09-.65,2.38-1.48,3.54-2.5,1.81-1.59,2.39-3.54,1.82-6.13-.41-1.87-1.29-2.62-3.23-2.77-.5-.04-1-.06-1.5-.06-1.64,0-3.36,.2-5.25,.61-8.13,1.78-15.22,4.52-21.65,8.39-2.17,1.3-4.42,1.94-6.87,1.94-.21,0-.42,0-.63-.01-.89-.04-1.68-.25-2.41-.55Zm-306.21,.91c-.2,0-.26,.03-.26,.03-.11,.17-.25,.38,.27,1.24,.18,.3,.6,.54,1.08,.81,.19,.11,.38,.21,.56,.32,7.18,4.4,14.96,8.03,22.48,11.54,0,0,3.17,1.48,3.29,1.53,0-.12,.02-.26,.03-.41,.35-5.51,1.17-11.3,4.72-16.3-.89,.28-1.8,.42-2.74,.42-1.17,0-2.4-.22-3.65-.66-1.22-.42-2.29-1.04-3.33-1.63l-.45-.25c-7.47-4.23-15.37-7.06-23.49-8.38-1.01-.17-1.91-.25-2.77-.25-.57,0-1.12,.04-1.65,.11-1.74,.24-2.56,1.01-2.94,2.76-.74,3.39,1.4,7.21,4.57,8.4,.55-1.76,1.52-3.27,4.11-3.27,.38,0,.8,.03,1.27,.09,2.74,.33,5.2,1.33,7.44,2.36,.13,.06,.3,.11,.47,.17,.73,.23,1.72,.55,2.14,1.49,.23,.51,.23,1.1-.02,1.65-.33,.76-1.01,1.21-1.82,1.21-.71,0-1.34-.34-1.89-.65-.17-.09-.32-.18-.46-.24l-.46-.18c-2-.8-3.89-1.56-5.9-1.85-.19-.03-.39-.05-.58-.05Zm116.86-39.53c0,14.52,0,29.05,.01,43.57,0,.65,0,1.64,.11,1.86,.16,.14,1.13,.43,1.78,.63,12.18,3.62,25.49,5.76,40.68,6.52h1.74c.27,0,.49,0,.66-.01-.06-.18-.13-.4-.24-.69l-5.22-14.15c-3.84-10.4-7.67-20.79-11.48-31.2-.41-1.13-.91-1.6-1.96-1.88-10.73-2.83-19.28-7.74-26.09-14.98v10.33Zm56,52.44c.09,.02,.27,.04,.58,.04s.64-.02,1.03-.04c14.48-.99,29-3.73,43.15-8.13,.48-.15,1.38-.43,1.55-.58,.08-.18,.08-1.15,.08-1.57,0-7.07,0-14.14,0-21.21v-11.33c0-7.35,0-14.7-.01-22.05-4.77,5.31-10.38,9.57-16.69,12.67-8.02,3.94-16.96,6.2-28.15,7.1-.42,.03-1.25,.1-1.57,.2-.08,.35-.08,1.25-.08,1.66,0,13.88,0,27.77,0,41.65,0,.96,.05,1.4,.1,1.6Zm-21.76-39.81c3.95,10.72,7.9,21.43,11.87,32.15,0-10.16,0-20.31,0-30.47v-4.88c0-.24,0-.48-.02-.72,0-.3-.02-.61-.02-.91,0-.26-.03-.39-.05-.43h0s-.14-.03-.36-.03c-4.14-.07-8.57-.53-13.91-1.43,.02,.06,2.48,6.72,2.48,6.72Zm-49.33-61.69c-.92,1.85-1.84,3.71-2.75,5.57l-5.96,12.07c-8.35,16.88-16.7,33.75-25.07,50.62-.56,1.13-.52,1.16,.18,1.65,13.99,9.92,28.94,17.65,44.46,22.99,.27,.09,.48,.16,.65,.21,0-.15,.01-.35,.01-.59,0-11.6,0-23.2,0-34.79v-22.15c0-.86-.18-1.5-.57-2.06-6.56-9.39-10.14-20.36-10.94-33.51Zm127.9-107.16c3.49,.02,4.34,.86,4.35,4.28,.03,8.86,.06,17.72,.09,26.59,.09,23.08,.17,46.95,.12,70.42-.03,13.42-3.54,25.65-10.42,36.35-.47,.73-.69,1.45-.69,2.27,0,9.39,0,48.21,.01,58.24,0,.25,0,.44,.01,.59,.14-.04,.32-.1,.55-.18,16.6-5.74,32.01-13.1,45.79-21.88,1.09-.7,1.44-1.37,1.44-2.78-.04-26.11-.03-52.21-.03-78.32v-16.88c-.14-7.65-.19-15.46-.23-23.01l-.04-6.91c-.12-17.25-.11-34.78-.1-51.74v-13.73c0-1.54-.29-2.35-1.12-3.11-12.19-11.16-25.93-19.94-40.84-26.1-1.46-.6-2.99-1.16-4.47-1.7l-.95-.35c-.01,.55-.02,1.11-.02,1.66v41.35c0,1.3-.01,2.59,0,3.89,0,.51,.03,.81,.05,.98,.16,.02,.44,.04,.91,.05,.76,.01,1.53,.02,2.29,.02h3.28Zm114.12,136.89c-.67,2.23-2.09,4.2-4.23,5.89-4.88,3.87-9.67,8.01-14.21,12.29-7.72,7.27-13.02,13.33-17.17,19.64-1.88,2.86-3.14,5.54-3.85,8.19-.64,2.41-.17,4.61,1.45,6.74,.6,.79,1.33,1.3,2.22,1.56-.84-1.41-1.03-3.08-.56-4.93,1.19-4.6,4.44-7.67,7.31-10.37,.43-.4,.93-.62,1.44-.62,.55,0,1.06,.24,1.43,.68,.61,.73,.58,1.74-.08,2.52-.37,.44-.76,.86-1.16,1.27-1.66,1.69-3.34,3.56-4.45,5.76-.59,1.17-.8,2.02-.71,2.83,.11,1,1.23,1.98,1.98,1.98,.41-.03,1.17-.07,1.23-1.86,.07-1.89,.83-3.61,2.27-5.11,.23-.24,.78-.81,1.62-.81,.35,0,.87,.1,1.35,.58,.39,.39,.92,1.24,.13,2.56-.14,.24-.29,.46-.43,.68-.22,.34-.44,.68-.62,1.04,6.57-3.23,13.27-5.45,19.9-6.6,.9-.16,1.08-.29,1.1-1.42,.1-4.87,.41-9.69,.92-14.32,.4-3.7,1.05-7.4,1.68-10.98,.55-3.12,1.11-6.34,1.51-9.52,.32-2.6,.3-5.17-.06-7.7Zm-314.25,53.99c1.46,0,2.64-.6,3.61-1.82,1.56-1.99,2.06-4.09,1.52-6.4-1.09-4.65-3.7-8.52-6.1-11.69-7.28-9.59-16.39-18.59-28.65-28.3-2.47-1.96-4.08-4.23-4.8-6.73-.23,1.5-.33,3.01-.29,4.53,.11,4.4,.95,8.84,1.76,13.13l.21,1.09c1.6,8.51,2.13,16.93,2.43,24.04,.03,.71,.08,1.14,.14,1.27,.05,0,.45,.11,1.12,.25l.15,.03c.9,.18,1.81,.36,2.71,.57,5.5,1.27,10.86,3.14,15.92,5.56,.09,.04,.18,.09,.28,.14-.05-.11-.09-.21-.12-.28-.17-.39-.4-.76-.62-1.13-.12-.21-.25-.42-.37-.63-.75-1.35-.21-2.18,.18-2.56,.48-.46,.99-.56,1.34-.56,.61,0,1.17,.29,1.66,.86,1.66,1.92,2.31,3.86,2.01,5.92-.05,.32-.07,.45,.59,.8,.19,.1,.36,.15,.52,.15,.24,0,.52-.11,.86-.35,1.24-.86,1.33-1.71,1.27-2.35-.12-1.32-.74-2.49-1.71-3.94-1.03-1.55-2.33-2.88-3.7-4.29l-.64-.65c-1.45-1.49-.72-2.62-.35-3.04,.39-.43,.9-.67,1.44-.67,.83,0,1.39,.53,1.69,.81,2.3,2.17,4.86,4.86,6.44,8.41,1.62,3.64,.68,6.17-.73,7.82,.08,0,.15,0,.23,0Zm37.54-112.7c-.07,.39-.07,1.24-.07,1.78,0,29.63,0,59.26,0,88.89l11.03-22.29c7.53-15.21,15.05-30.42,22.59-45.63,.57-1.15,.83-2.26,.82-3.51-.02-3.79-.02-7.57-.02-11.36v-6.32c0-.41,0-1.19-.06-1.56-.37-.06-1.16-.06-1.57-.06-8.75-.01-17.5-.01-26.25-.01h-4.76c-.48,0-1.33,0-1.71,.07Zm39.53,22.37c-.03,.37-2.05,24.21,13.43,41.2,10.5,11.52,26.56,17.37,47.72,17.37s36-5.7,46.54-16.93c15.99-17.04,14.64-41.31,14.62-41.55V75.6h-122.32v95.75Zm-6.45-26.2c.4,0,.95,0,1.3-.03,.03-.33,.03-.85,.03-1.23,0-2.02,0-4.04,0-6.05,0-3.87,0-7.74,.03-11.61,.01-1.33-.28-2.55-.93-3.82-3.82-7.53-7.61-15.07-11.4-22.61,0,0-18.01-35.85-22.77-45.31,.01,.82,.03,1.65,.04,2.48,.03,1.69,.07,3.39,.07,5.08,.1,19.35,.2,38.71,.3,58.06l.12,23.38c0,.59,0,1.25,.05,1.61,.37,.04,1.04,.04,1.64,.04h31.52Zm12.56-122.08c-2.93,1.06-5.85,2.14-8.77,3.25-14.72,5.61-25.96,11.85-35.37,19.63-.72,.6-1.42,1.17-1.53,1.39,.03,.15,.45,.97,.81,1.7,11.18,22.25,22.36,44.51,33.55,66.75,0-7.6,0-15.19,0-22.79v-11.72c.01-2.32,.02-4.65,0-6.97-.01-1.14,.28-1.99,.9-2.61,.59-.6,1.44-.9,2.5-.9,.84,.02,1.56,.02,2.29,.02l3.93-.02c.7,0,1.49,0,1.87-.06,.05-.38,.05-1.15,.05-1.79V29.39c0-2.08,0-4.15-.02-6.23,0-.06,0-.12,0-.17-.06,.02-.13,.05-.21,.08Zm4.02,47.75c.35,.03,.95,.03,1.5,.03h20.91c.77,0,1.57,0,1.77-.08,.09-.12,.36-.85,.62-1.55l15.16-41.23c1.75-4.75,3.5-9.5,5.23-14.26,.04-.12,.08-.22,.11-.31-.1,0-.5,0-.5,0-.77,0-1.54,.04-2.32,.08-.53,.03-1.07,.06-1.61,.07-13.24,.4-26.59,2.84-39.68,7.25-1.07,.36-1.29,.65-1.28,1.73,.06,5.75,.05,11.59,.04,17.23v29.47c0,.58,0,1.21,.04,1.58Zm28.33-.05c2.16,.02,4.32,.02,6.48,.02h10.92c.22,0,.33-.03,.38-.05,0-.02,.02-.11,.03-.28l.02-.45c.02-.43,.04-.86,.04-1.29,0-15.53,0-31.06,0-46.58-.99,2.69-17.68,48.14-17.68,48.14-.07,.2-.13,.36-.17,.5Zm27.77-.1c.13,.02,.37,.05,.84,.05,6.87,0,13.73,.01,20.6,.01,8.02,0,16.05,0,24.07-.02,.46,0,.71-.03,.83-.05,.03-.13,.06-.39,.06-.89,.03-2.54,.02-5.07,.02-7.61v-12.11c0-8.98,0-17.95,0-26.93,0-1.35-.23-1.54-.96-1.76-15.33-4.7-29.67-7.21-43.85-7.68-.29,0-.56-.02-.8-.02-.45,0-.69,.02-.82,.05-.08,.39-.08,1.3-.08,1.67,0,7.35,0,14.7,0,22.04v12.26c0,6.58,0,13.16,0,19.74,0,.73,.04,1.07,.08,1.23Z"/></svg>