<?xml version="1.0" encoding="UTF-8"?><svg id="Outros" xmlns="http://www.w3.org/2000/svg" viewBox="0 0 500 500"><defs><style>.cls-1{fill:#2a2a2a;}</style></defs><path class="cls-1" d="M58.19,193.31c.71,2.09,2.65,3.4,4.74,3.4,.53,0,1.07-.09,1.6-.27,53.46-18.09,101.03-118.47,103.03-122.74,1.17-2.5,.1-5.48-2.41-6.66-2.5-1.17-5.48-.1-6.66,2.41-.47,1.01-47.75,100.78-97.17,117.51-2.62,.89-4.02,3.73-3.14,6.35Z"/><path class="cls-1" d="M54.92,126.24c.75,0,1.52-.17,2.23-.53,20.57-10.28,33.22-51.27,34.59-55.91,.79-2.65-.73-5.43-3.38-6.22-2.65-.78-5.44,.73-6.22,3.37-3.4,11.45-15.32,42.73-29.47,49.8-2.47,1.24-3.47,4.24-2.24,6.72,.88,1.75,2.64,2.77,4.48,2.77Z"/><path class="cls-1" d="M489.99,9.98H10c-2.76,0-5.01,2.24-5.01,5.01V484.97c0,2.76,2.24,5.01,5.01,5.01H93.72c.15,.01,.3,.05,.45,.05H405.79c.16,0,.3-.03,.45-.05h83.76c2.76,0,5.01-2.24,5.01-5.01V14.99c0-2.76-2.24-5.01-5.01-5.01Zm-5.01,280.83h-42.33c-2.08,0-3.78-1.69-3.78-3.78v-5.88c0-2.08,1.69-3.78,3.78-3.78h42.33v13.44ZM98.14,420.16H401.86c-1.28,26.24-1.31,49.1-1.22,59.85H99.37c.08-10.74,.05-33.61-1.22-59.85Zm304.25-10.01H248.68v-141.04l9.88-8.55c4.12,3.2,9.28,5.11,14.89,5.11,13.41,0,24.32-10.91,24.32-24.32s-10.91-24.32-24.32-24.32-24.32,10.91-24.32,24.32c0,4.2,1.07,8.15,2.95,11.6l-29.32,25.36c-2.09,1.81-2.32,4.97-.51,7.06,.99,1.14,2.38,1.73,3.79,1.73,1.16,0,2.33-.4,3.27-1.22l9.37-8.11v132.38H97.6c-2.71-45.37-9.36-97.15-25.38-113.42-.99-1.01-2.01-1.88-3.07-2.63,1.24-2.07,1.97-4.48,1.97-7.06v-5.88c0-3.46-1.29-6.62-3.41-9.05,2.12-2.42,3.41-5.58,3.41-9.04v-5.88c0-1.69-.32-3.29-.88-4.79,42.71-6.67,85.89-46.32,128.56-118.14,24.87-41.86,42.95-84.14,51.19-104.71,8.24,20.57,26.33,62.84,51.19,104.71,42.66,71.82,85.85,111.48,128.56,118.14-.56,1.49-.88,3.1-.88,4.79v5.88c0,3.46,1.29,6.62,3.41,9.04-2.12,2.42-3.41,5.58-3.41,9.05v5.88c0,2.58,.73,4.99,1.97,7.06-1.05,.75-2.08,1.63-3.07,2.63-16.02,16.27-22.67,68.05-25.38,113.42Zm-143.27-168.8c0-7.89,6.42-14.31,14.31-14.31s14.31,6.42,14.31,14.31-6.42,14.31-14.31,14.31-14.31-6.42-14.31-14.31Zm-201.8,12.05c2.08,0,3.78,1.69,3.78,3.78v5.88c0,2.08-1.69,3.77-3.78,3.77H15.01v-13.43H57.34Zm-42.33,23.97H57.34c2.08,0,3.78,1.69,3.78,3.78v5.88c0,2.08-1.69,3.78-3.78,3.78H15.01v-13.44Zm469.98-23.97v13.43h-42.33c-2.08,0-3.78-1.69-3.78-3.77v-5.88c0-2.08,1.69-3.78,3.78-3.78h42.33Zm0-233.41V243.39h-42.33c-93.65,0-170.87-185.48-185.66-223.4h227.99Zm-241.99,0c-14.8,37.92-92.01,223.4-185.67,223.4H15.01V19.99H243ZM15.01,300.82H57.34c.43,0,.86-.03,1.29-.07,.21,.03,.42,.07,.65,.07,1.97,0,3.88,.96,5.82,2.93,21.01,21.33,24.62,129.99,24.27,176.21h-16.36c-.57-10.46-2.24-34.85-5.63-43.69-.99-2.58-3.89-3.86-6.47-2.87-2.58,.99-3.87,3.89-2.87,6.47,2.59,6.73,4.26,28.03,4.95,40.09h-18.02c.08-4.72-.01-12.13-1.01-19.63-.36-2.74-2.88-4.66-5.62-4.3-2.74,.36-4.67,2.88-4.3,5.62,.92,6.93,1,13.94,.92,18.31H15.01v-179.14Zm450.05,179.14c-.08-4.36,0-11.38,.92-18.31,.24-1.77-.49-3.44-1.77-4.5,.87-9.15,2.08-18.08,3.59-22.02,.99-2.58-.29-5.48-2.87-6.47-2.58-.99-5.48,.29-6.47,2.87-4.13,10.73-5.7,44.4-5.86,48.21,0,.07,.01,.14,.01,.22h-15.58c.69-12.06,2.36-33.36,4.95-40.09,.99-2.58-.29-5.48-2.87-6.47-2.58-.99-5.48,.29-6.47,2.87-3.4,8.84-5.06,33.23-5.64,43.69h-16.36c-.36-46.22,3.26-154.87,24.27-176.21,1.94-1.97,3.85-2.93,5.82-2.93,.22,0,.43-.04,.65-.07,.42,.04,.85,.07,1.29,.07h42.33v179.14h-19.93Z"/><path class="cls-1" d="M444.87,197.03c.53,.18,1.07,.27,1.61,.27,2.09,0,4.03-1.32,4.74-3.4,.89-2.62-.52-5.46-3.14-6.35-49.43-16.73-96.7-116.5-97.17-117.51-1.17-2.5-4.16-3.58-6.66-2.41-2.5,1.17-3.58,4.15-2.41,6.66,2,4.26,49.57,104.64,103.03,122.74Z"/><path class="cls-1" d="M452.25,126.29c.72,.36,1.48,.53,2.23,.53,1.84,0,3.6-1.02,4.48-2.77,1.24-2.47,.23-5.48-2.24-6.72-14.15-7.07-26.07-38.35-29.47-49.8-.79-2.65-3.57-4.15-6.22-3.37-2.65,.79-4.16,3.57-3.38,6.22,1.37,4.64,14.02,45.62,34.59,55.91Z"/></svg>