<?xml version="1.0" encoding="UTF-8"?><svg id="Outros" xmlns="http://www.w3.org/2000/svg" viewBox="0 0 500 500"><defs><style>.cls-1{fill:#2a2a2a;}</style></defs><path class="cls-1" d="M410.9,0H89.1C39.89,0,0,39.89,0,89.1V410.9c0,49.21,39.89,89.1,89.1,89.1H410.9c49.21,0,89.1-39.89,89.1-89.1V89.1C500,39.89,460.11,0,410.9,0Zm8.1,335.45c-4.06,15.28-16.01,27.31-31.19,31.39-27.51,7.42-137.81,7.42-137.81,7.42,0,0-110.31,0-137.81-7.42-15.18-4.08-27.13-16.11-31.19-31.39-7.37-27.69-7.37-85.45-7.37-85.45,0,0,0-57.77,7.37-85.45,4.06-15.28,16.01-27.31,31.19-31.39,27.51-7.42,137.81-7.42,137.81-7.42,0,0,110.31,0,137.81,7.42,15.18,4.08,27.13,16.11,31.19,31.39,7.37,27.69,7.37,85.45,7.37,85.45,0,0,0,57.77-7.37,85.45Z"/><polygon class="cls-1" points="213.92 302.45 306.12 250 213.92 197.55 213.92 302.45"/></svg>