<?xml version="1.0" encoding="UTF-8"?><svg id="Expanded_copy" xmlns="http://www.w3.org/2000/svg" viewBox="0 0 500 500"><defs><style>.cls-1{fill:#efefef;}</style></defs><path class="cls-1" d="M458.39,72.52l-67.79-10.74c-.7-.25-1.49-.21-2.19,.18-5.98,3.43-11.9,7.3-17.61,11.04-3.79,2.48-7.69,5.03-11.52,7.39-7.48-6.31-15.21-12.66-23.01-18.9-.86-.69-2.07-.77-3.01-.19-9.62,5.86-19.22,11.86-28.56,17.85-7.87-6.21-16.01-12.46-24.22-18.61-.88-.66-2.08-.7-3.01-.1-9.21,5.97-18.41,12.1-27.37,18.22-8.3-6.13-16.84-12.27-25.42-18.29-.9-.63-2.1-.64-3.01-.01-8.86,6.12-17.65,12.37-26.17,18.57-8.71-6.02-17.65-12.06-26.62-17.96-.92-.6-2.12-.57-3.01,.08-8.48,6.25-16.87,12.6-24.97,18.9-7.2-4.65-15.2-9.58-22.97-14.37l-5.97-3.68c-.81-.5-1.79-.5-2.58-.09l-67.8,10.74c-11.4,1.81-21.45,7.98-28.28,17.38-6.61,9.09-9.4,20.11-7.94,31.15,0,.05,0,.1,0,.15,0,.03,.02,.06,.02,.09,.04,.3,.07,.59,.12,.89l13.21,83.43h0l31.34,197.89c.15,.98,.35,1.93,.57,2.88h0s.01,.05,.02,.07c4.54,19.78,22.27,33.65,42.25,33.65,2.25,0,4.52-.18,6.81-.54l68.39-10.83c.29-.05,.55-.15,.8-.27,.6-.15,1.15-.49,1.53-1.04,3.97-5.67,8.14-11.4,12.44-17.07,5.48,5.57,10.85,11.2,15.99,16.78,.53,.57,1.29,.89,2.05,.84,.77-.03,1.5-.41,1.97-1.02,4.41-5.73,9.02-11.51,13.76-17.22,5.09,5.6,10.08,11.29,14.87,16.94,.5,.59,1.23,.93,2.01,.93h0c.77,0,1.51-.35,2.01-.94,4.76-5.67,9.76-11.41,14.88-17.08,4.73,5.68,9.35,11.41,13.74,17.07,.48,.61,1.2,.98,1.97,1.02,.8,.02,1.53-.28,2.05-.85,5.15-5.63,10.52-11.31,16.02-16.92,4.33,5.68,8.56,11.45,12.61,17.18,.45,.64,1.16,1.04,1.93,1.1,.78,.07,1.54-.22,2.09-.77,5.53-5.58,11.29-11.2,17.14-16.73,3.89,5.63,7.69,11.34,11.31,17,.5,.79,1.35,1.21,2.22,1.21,.26,0,.52-.05,.78-.13l67.99,10.77c2.28,.36,4.56,.54,6.82,.54,9.08,0,17.92-2.86,25.44-8.33,9.4-6.83,15.57-16.87,17.38-28.28l44.56-281.32c3.74-23.63-12.44-45.9-36.07-49.64ZM55.28,402.68l-5.12-32.32,26.02-4.12,.96,6.08c.34,2.17,2.39,3.66,4.56,3.31l41.12-6.51c.87-.14,1.61-.55,2.19-1.13l3.7,23.38-73.37,11.62c-.02-.1-.04-.21-.06-.31Zm63.54-58.79l-41.12,6.51c-2.17,.34-3.66,2.39-3.31,4.56l.96,6.08-26.02,4.12-5.63-35.55,26.02-4.12,.96,6.08c.34,2.17,2.39,3.66,4.56,3.31l41.12-6.51c.87-.14,1.61-.55,2.19-1.13l2.7,17.04c-.72-.37-1.56-.53-2.43-.4Zm-6.45-40.74l-41.12,6.51c-2.17,.34-3.66,2.39-3.31,4.56l.96,6.08-26.02,4.12-5.63-35.55,26.02-4.12,.96,6.08c.34,2.17,2.39,3.66,4.56,3.31l41.12-6.51c.87-.14,1.61-.55,2.19-1.13l2.7,17.04c-.72-.37-1.56-.53-2.43-.4Zm-6.45-40.74l-41.12,6.51c-2.17,.34-3.66,2.39-3.31,4.56l.96,6.08-26.02,4.12-5.63-35.55,73.38-11.62,4.16,26.29c-.72-.37-1.56-.53-2.43-.4Zm-75.94-19.47l-5.63-35.55,26.02-4.12,.96,6.08c.34,2.17,2.39,3.66,4.56,3.31l41.12-6.51c.87-.14,1.61-.55,2.19-1.13l4.16,26.29-73.38,11.62Zm63.03-62.01l-41.12,6.51c-2.17,.34-3.66,2.39-3.31,4.56l.96,6.08-26.02,4.12-5.63-35.55,26.02-4.12,.96,6.08c.34,2.17,2.39,3.66,4.56,3.31l41.12-6.51c.87-.14,1.61-.55,2.19-1.13l2.7,17.04c-.72-.37-1.56-.53-2.43-.39Zm-6.45-40.74l-41.12,6.51c-2.17,.34-3.66,2.39-3.31,4.56l.96,6.08-26.02,4.12-6.09-38.46,73.38-11.62,4.63,29.2c-.72-.37-1.56-.53-2.43-.39Zm12.35,294.2c-18.88,2.99-36.79-8.51-42.34-26.25l75.57-11.97c.69-.11,1.31-.49,1.72-1.05,.41-.57,.58-1.27,.47-1.96l-25.35-160.06h0l-6.45-40.74h0l-6.45-40.74h0l-6.91-43.66c-.11-.69-.49-1.31-1.05-1.72s-1.27-.58-1.96-.47L10.33,117.77c-1.22-19.38,12.52-36.93,32.09-40.03l65.79-10.42,56.49,356.64-65.79,10.42Zm117.66-31.27s-.04,0-.06,0c-.76,.02-1.47,.36-1.96,.94-3.87,4.62-7.66,9.29-11.35,13.96l-26.1-282.45c-.13-1.45-1.39-2.52-2.86-2.38-1.45,.13-2.51,1.42-2.38,2.86l26.1,282.4c-4.38-4.66-8.89-9.33-13.46-13.94-.54-.54-1.29-.82-2.04-.77-.76,.05-1.46,.42-1.92,1.03-3.83,4.99-7.57,10.05-11.17,15.08L113.84,69.23l1.35,.83c8.31,5.12,16.9,10.42,24.43,15.32,.94,.61,2.17,.56,3.05-.13,7.42-5.79,15.11-11.64,22.88-17.41l3.55,38.41c.13,1.36,1.27,2.39,2.62,2.39,.08,0,.16,0,.24-.01,1.45-.13,2.51-1.42,2.38-2.86l-3.43-37.15c7.81,5.18,15.57,10.45,23.14,15.7,.92,.64,2.14,.62,3.05-.04,7.74-5.66,15.74-11.36,23.8-16.98l10.22,350.84c-4.11-4.75-8.33-9.5-12.62-14.18-.5-.54-1.2-.85-1.94-.85Zm69.97,1.19c-.46-.6-1.16-.98-1.92-1.02-.76-.04-1.5,.24-2.03,.78-4.42,4.48-8.78,9.01-13.02,13.54l2.31-67.74c.05-1.45-1.09-2.67-2.54-2.72-.03,0-.06,0-.09,0-1.41,0-2.58,1.12-2.63,2.54l-2.34,68.6c-3.8-4.8-7.73-9.62-11.75-14.39-.49-.58-1.2-.92-1.96-.94-.77-.05-1.49,.3-2,.86-4.16,4.56-8.24,9.17-12.19,13.77l-10.18-349.71c7.54,5.33,15.02,10.74,22.3,16.13,.9,.67,2.13,.69,3.05,.06,8.08-5.54,16.37-11.08,24.7-16.52l-8.83,258.77c-.05,1.45,1.09,2.67,2.54,2.72,.03,0,.06,0,.09,0,1.41,0,2.58-1.12,2.63-2.54l8.82-258.59c7.27,5.49,14.46,11.04,21.43,16.55,.88,.7,2.11,.76,3.06,.15,8.35-5.38,16.94-10.76,25.56-16.06l-34.14,350.33c-3.53-4.88-7.16-9.76-10.86-14.57Zm34.01,.88c-.44-.62-1.12-1.03-1.88-1.11-.76-.08-1.51,.17-2.07,.7-4.68,4.39-9.31,8.84-13.82,13.3l34.04-349.39c6.97,5.62,13.86,11.31,20.53,16.95,.49,.41,1.09,.62,1.7,.62,.47,0,.94-.13,1.36-.38,4.42-2.67,8.93-5.62,13.29-8.47,4.18-2.74,8.47-5.54,12.79-8.17l-55.62,351.21c-3.33-5.1-6.78-10.22-10.31-15.26ZM489.27,121.34l-44.56,281.32c-1.59,10.02-7.01,18.84-15.28,24.84-8.27,6-18.33,8.44-28.35,6.85l-65.47-10.37,56.49-356.64,65.47,10.37c20.76,3.29,34.98,22.86,31.7,43.62Z"/><path class="cls-1" d="M454.48,131.02c-2.95,1.6-5.11,4.25-6.06,7.47-.96,3.22-.6,6.62,1,9.57,1.94,3.57,5.37,5.83,9.1,6.42,2.64,.42,5.42,0,7.94-1.36,6.09-3.3,8.37-10.95,5.06-17.04-3.3-6.1-10.95-8.37-17.04-5.06Zm9.43,17.39c-3.49,1.89-7.88,.59-9.78-2.9-.92-1.69-1.12-3.64-.57-5.49,.55-1.85,1.78-3.37,3.48-4.29,1.45-.78,3.04-1.02,4.56-.78,2.14,.34,4.11,1.64,5.22,3.68,1.89,3.5,.59,7.88-2.9,9.78Z"/><path class="cls-1" d="M427.75,167.62c2.64,.42,5.42,0,7.94-1.36,6.09-3.3,8.36-10.95,5.06-17.04-3.3-6.1-10.95-8.37-17.04-5.06-6.09,3.3-8.37,10.95-5.06,17.04,1.94,3.57,5.37,5.83,9.1,6.42Zm-1.48-18.75c1.45-.78,3.04-1.02,4.56-.78,2.14,.34,4.11,1.64,5.22,3.68,1.89,3.5,.59,7.88-2.9,9.78-3.49,1.89-7.88,.59-9.78-2.9-1.89-3.5-.59-7.88,2.9-9.78Z"/><path class="cls-1" d="M396.98,180.75c2.64,.42,5.42,0,7.94-1.36,6.09-3.3,8.37-10.95,5.06-17.04-3.3-6.09-10.95-8.37-17.04-5.06-6.09,3.3-8.37,10.95-5.06,17.04,1.94,3.57,5.37,5.83,9.1,6.42Zm-1.48-18.75c1.45-.78,3.04-1.02,4.56-.78,2.14,.34,4.11,1.64,5.22,3.68,1.89,3.5,.59,7.88-2.9,9.78-3.49,1.89-7.88,.59-9.78-2.9-1.89-3.5-.59-7.88,2.9-9.78Z"/><path class="cls-1" d="M448.01,171.86c-6.09,3.3-8.37,10.95-5.06,17.04,1.94,3.57,5.37,5.83,9.1,6.42,2.64,.42,5.42,0,7.94-1.36,6.09-3.3,8.37-10.95,5.06-17.04-3.3-6.09-10.95-8.37-17.04-5.06Zm9.43,17.39c-3.49,1.89-7.88,.59-9.78-2.9-1.89-3.5-.59-7.88,2.9-9.78,1.45-.78,3.04-1.02,4.56-.78,2.14,.34,4.11,1.64,5.22,3.68,1.89,3.5,.59,7.88-2.9,9.78Z"/><path class="cls-1" d="M412.18,202.04c1.94,3.57,5.37,5.83,9.1,6.42,2.64,.42,5.42,0,7.94-1.36,6.09-3.3,8.36-10.95,5.06-17.04-3.3-6.09-10.95-8.37-17.04-5.06-2.95,1.6-5.11,4.25-6.06,7.47-.96,3.22-.6,6.62,1,9.57Zm4.14-8.04c.55-1.85,1.78-3.37,3.48-4.29,1.45-.78,3.04-1.02,4.56-.78,2.14,.34,4.11,1.64,5.22,3.69,1.89,3.5,.59,7.88-2.9,9.78-3.5,1.89-7.88,.59-9.78-2.9-.92-1.69-1.12-3.64-.57-5.49Z"/><path class="cls-1" d="M390.52,221.6c2.64,.42,5.42,0,7.94-1.36,6.09-3.3,8.36-10.95,5.06-17.04-3.3-6.1-10.95-8.37-17.04-5.06-2.95,1.6-5.11,4.25-6.06,7.47-.96,3.22-.6,6.62,1,9.57,1.94,3.57,5.37,5.83,9.1,6.42Zm-4.96-14.47c.55-1.85,1.78-3.37,3.48-4.29,1.45-.78,3.04-1.02,4.56-.78,2.14,.34,4.11,1.64,5.22,3.68,1.89,3.5,.59,7.88-2.9,9.78-3.49,1.89-7.88,.59-9.78-2.9-.92-1.69-1.12-3.64-.57-5.49Z"/><path class="cls-1" d="M441.55,212.71c-2.95,1.6-5.11,4.25-6.06,7.47-.96,3.22-.6,6.62,1,9.57,1.94,3.57,5.37,5.83,9.1,6.42,2.64,.42,5.42,0,7.94-1.36,6.09-3.3,8.37-10.95,5.06-17.04-3.3-6.1-10.95-8.37-17.04-5.06Zm9.43,17.39c-3.49,1.89-7.88,.59-9.78-2.9-.92-1.69-1.12-3.64-.57-5.49,.55-1.85,1.78-3.37,3.48-4.29,1.45-.78,3.04-1.02,4.56-.78,2.14,.34,4.11,1.64,5.22,3.68,1.89,3.5,.59,7.88-2.9,9.78Z"/><path class="cls-1" d="M427.82,230.91c-3.3-6.09-10.95-8.37-17.04-5.06-6.09,3.3-8.37,10.95-5.06,17.04,1.94,3.57,5.37,5.83,9.1,6.42,2.64,.42,5.42,0,7.94-1.36,6.09-3.3,8.37-10.95,5.06-17.04Zm-7.62,12.33c-3.49,1.89-7.88,.59-9.78-2.9-1.89-3.5-.59-7.88,2.9-9.78,1.45-.78,3.04-1.02,4.56-.78,2.14,.34,4.11,1.64,5.22,3.68,1.89,3.5,.59,7.88-2.9,9.78Z"/><path class="cls-1" d="M384.05,262.44c2.64,.42,5.42,0,7.94-1.36,6.09-3.3,8.37-10.95,5.06-17.04-3.3-6.09-10.95-8.37-17.04-5.06-6.09,3.3-8.37,10.95-5.06,17.04,1.94,3.57,5.37,5.83,9.1,6.42Zm-1.48-18.75c1.45-.78,3.04-1.02,4.56-.78,2.14,.34,4.11,1.64,5.22,3.68,1.89,3.5,.59,7.88-2.9,9.78-3.49,1.89-7.88,.59-9.78-2.9-1.89-3.5-.59-7.88,2.9-9.78Z"/><path class="cls-1" d="M435.08,253.55c-6.09,3.3-8.37,10.95-5.06,17.04,1.94,3.57,5.37,5.83,9.1,6.42,2.64,.42,5.42,0,7.94-1.36,6.09-3.3,8.37-10.95,5.06-17.04-3.3-6.09-10.95-8.37-17.04-5.06Zm9.43,17.39c-3.49,1.89-7.88,.59-9.78-2.9-1.89-3.5-.59-7.88,2.9-9.78,1.45-.78,3.04-1.02,4.56-.78,2.14,.34,4.11,1.64,5.22,3.68,1.89,3.5,.59,7.88-2.9,9.78Z"/><path class="cls-1" d="M404.31,266.69c-2.95,1.6-5.11,4.25-6.06,7.47-.96,3.22-.6,6.62,1,9.57,1.94,3.57,5.37,5.83,9.1,6.42,2.64,.42,5.42,0,7.94-1.36,6.09-3.3,8.36-10.95,5.06-17.04-3.3-6.09-10.95-8.37-17.04-5.06Zm9.43,17.39c-3.5,1.89-7.88,.59-9.78-2.9-.92-1.69-1.12-3.64-.57-5.49,.55-1.85,1.78-3.37,3.48-4.29,1.45-.78,3.04-1.02,4.56-.78,2.14,.34,4.11,1.64,5.22,3.69,1.89,3.5,.59,7.88-2.9,9.78Z"/><path class="cls-1" d="M377.58,303.29c2.64,.42,5.42,0,7.94-1.36,6.09-3.3,8.36-10.95,5.06-17.04-3.3-6.1-10.95-8.37-17.04-5.06-2.95,1.6-5.11,4.25-6.06,7.47-.96,3.22-.6,6.62,1,9.57,1.94,3.57,5.37,5.83,9.1,6.42Zm-4.96-14.47c.55-1.85,1.78-3.37,3.48-4.29,1.45-.78,3.04-1.02,4.56-.78,2.14,.34,4.11,1.64,5.22,3.68,1.89,3.5,.59,7.88-2.9,9.78-3.49,1.89-7.88,.59-9.78-2.9-.92-1.69-1.12-3.64-.57-5.49Z"/><path class="cls-1" d="M428.61,294.4c-2.95,1.6-5.11,4.25-6.06,7.47-.96,3.22-.6,6.62,1,9.57,1.94,3.57,5.37,5.83,9.1,6.42,2.64,.42,5.42,0,7.94-1.36,6.09-3.3,8.37-10.95,5.06-17.04-3.3-6.1-10.95-8.37-17.04-5.06Zm9.43,17.39c-3.49,1.89-7.88,.59-9.78-2.9-.92-1.69-1.12-3.64-.57-5.49,.55-1.85,1.78-3.37,3.48-4.29,1.45-.78,3.04-1.02,4.56-.78,2.14,.34,4.11,1.64,5.22,3.68,1.89,3.5,.59,7.88-2.9,9.78Z"/><path class="cls-1" d="M414.88,312.59c-3.3-6.1-10.95-8.37-17.04-5.06-6.09,3.3-8.37,10.95-5.06,17.04,1.94,3.57,5.37,5.83,9.1,6.42,2.64,.42,5.42,0,7.94-1.36,6.09-3.3,8.37-10.95,5.06-17.04Zm-7.62,12.33c-3.49,1.89-7.88,.59-9.78-2.9-1.89-3.5-.59-7.88,2.9-9.78,1.45-.78,3.04-1.02,4.56-.78,2.14,.34,4.11,1.64,5.22,3.68,1.89,3.5,.59,7.88-2.9,9.78Z"/><path class="cls-1" d="M384.11,325.73c-3.3-6.09-10.95-8.37-17.04-5.06-6.09,3.3-8.37,10.95-5.06,17.04,1.94,3.57,5.37,5.83,9.1,6.42,2.64,.42,5.42,0,7.94-1.36,6.09-3.3,8.37-10.95,5.06-17.04Zm-7.62,12.33c-3.49,1.89-7.88,.59-9.78-2.9-1.89-3.5-.59-7.88,2.9-9.78,1.45-.78,3.04-1.02,4.56-.78,2.14,.34,4.11,1.64,5.22,3.68,1.89,3.5,.59,7.88-2.9,9.78Z"/><path class="cls-1" d="M422.14,335.24c-6.09,3.3-8.37,10.95-5.06,17.04,1.94,3.57,5.37,5.83,9.1,6.42,2.64,.42,5.42,0,7.94-1.36,6.09-3.3,8.37-10.95,5.06-17.04-3.3-6.09-10.95-8.37-17.04-5.06Zm9.43,17.39c-3.49,1.89-7.88,.59-9.78-2.9-1.89-3.5-.59-7.88,2.9-9.78,1.45-.78,3.04-1.02,4.56-.78,2.14,.34,4.11,1.64,5.22,3.68,1.89,3.5,.59,7.88-2.9,9.78Z"/><path class="cls-1" d="M391.37,348.38c-2.95,1.6-5.11,4.25-6.06,7.47-.96,3.22-.6,6.62,1,9.57,1.94,3.57,5.37,5.83,9.1,6.42,2.64,.42,5.42,0,7.94-1.36,6.09-3.3,8.36-10.95,5.06-17.04-3.3-6.09-10.95-8.37-17.04-5.06Zm9.43,17.39c-3.5,1.89-7.88,.59-9.78-2.9-.92-1.69-1.12-3.64-.57-5.49,.55-1.85,1.78-3.37,3.48-4.29,1.45-.78,3.04-1.02,4.56-.78,2.14,.34,4.11,1.64,5.22,3.69,1.89,3.5,.59,7.88-2.9,9.78Z"/><path class="cls-1" d="M360.6,361.51c-2.95,1.6-5.11,4.25-6.06,7.47-.96,3.22-.6,6.62,1,9.57,1.94,3.57,5.37,5.83,9.1,6.42,2.64,.42,5.42,0,7.94-1.36,6.09-3.3,8.36-10.95,5.06-17.04-3.3-6.1-10.95-8.37-17.04-5.06Zm9.43,17.39c-3.5,1.89-7.88,.59-9.78-2.9-.92-1.69-1.12-3.64-.57-5.49,.55-1.85,1.78-3.37,3.48-4.29,1.45-.78,3.04-1.02,4.56-.78,2.14,.34,4.11,1.64,5.22,3.68,1.89,3.5,.59,7.88-2.9,9.78Z"/></svg>