<?xml version="1.0" encoding="UTF-8"?><svg id="Cor" xmlns="http://www.w3.org/2000/svg" viewBox="0 0 500 500"><defs><style>.cls-1{fill:#a9a9a9;}.cls-2{fill:#b4b4b4;}.cls-3{fill:#a90000;}.cls-4{fill:#dadada;}.cls-5{fill:#e5e5e5;}.cls-6{fill:#830000;}.cls-7{fill:#bebebe;}.cls-8{fill:none;}.cls-9{fill:#f3f3f3;}</style></defs><g id="Acordeao"><path class="cls-3" d="M391.27,63.31l-.47-.81c.15-.09,.29-.17,.44-.26l.19,.09,68.8,10.9c22.38,3.54,37.8,24.75,34.24,47.14l-45.04,284.36c-3.54,22.38-24.75,37.8-47.14,34.24l-68.8-10.89L391.27,63.31Zm84.19,77.58c0-2.04-.49-4.12-1.53-6.03-3.34-6.17-11.07-8.46-17.23-5.12-2.98,1.62-5.16,4.3-6.13,7.55-.96,3.26-.61,6.69,1.01,9.67,1.96,3.62,5.43,5.89,9.2,6.5,2.67,.41,5.48,0,8.03-1.38,4.24-2.3,6.65-6.68,6.65-11.19Zm-6.54,41.28c0-2.04-.49-4.12-1.53-6.03-3.34-6.16-11.06-8.46-17.22-5.12-6.16,3.34-8.46,11.06-5.12,17.22,1.96,3.62,5.43,5.9,9.19,6.5,2.67,.43,5.49,0,8.03-1.38,4.24-2.29,6.65-6.67,6.65-11.19Zm-6.53,41.28c0-2.04-.5-4.12-1.53-6.03-3.34-6.16-11.07-8.46-17.23-5.12-2.99,1.62-5.16,4.3-6.13,7.55-.97,3.26-.61,6.69,1.01,9.68,1.96,3.61,5.43,5.89,9.2,6.49,2.66,.43,5.48,.01,8.02-1.37,4.24-2.3,6.66-6.68,6.66-11.2Zm-6.54,41.28c0-2.04-.49-4.12-1.53-6.03-3.34-6.16-11.07-8.46-17.23-5.12-6.16,3.34-8.46,11.07-5.12,17.23,1.96,3.61,5.43,5.89,9.2,6.49,2.66,.43,5.48,.01,8.03-1.37,4.24-2.3,6.65-6.68,6.65-11.2Zm-6.54,41.3c0-2.04-.49-4.12-1.53-6.03-3.34-6.17-11.06-8.46-17.23-5.12-2.98,1.62-5.16,4.3-6.12,7.55-.97,3.26-.62,6.69,1,9.67,1.96,3.62,5.43,5.89,9.2,6.5,2.67,.41,5.48,0,8.03-1.38,4.24-2.3,6.65-6.68,6.65-11.19Zm-4.95-151.87c0-2.04-.49-4.12-1.53-6.03-3.34-6.17-11.06-8.46-17.22-5.12-6.16,3.33-8.46,11.06-5.12,17.22,1.96,3.62,5.41,5.89,9.19,6.5,2.67,.41,5.49,0,8.03-1.38,4.24-2.3,6.65-6.68,6.65-11.19Zm-1.6,193.16c0-2.04-.49-4.12-1.53-6.03-3.34-6.16-11.06-8.46-17.22-5.12-6.16,3.34-8.46,11.06-5.12,17.22,1.96,3.62,5.43,5.9,9.2,6.5,2.66,.41,5.48,0,8.02-1.38,4.24-2.3,6.65-6.68,6.65-11.19Zm-4.95-151.86c0-2.04-.49-4.12-1.53-6.04-3.33-6.16-11.06-8.46-17.22-5.12-2.99,1.62-5.16,4.3-6.13,7.55-.97,3.26-.61,6.69,1.01,9.67,1.96,3.62,5.43,5.9,9.2,6.5,2.66,.43,5.48,0,8.02-1.38,4.24-2.29,6.65-6.67,6.65-11.18Zm-6.53,41.27c0-2.04-.49-4.12-1.53-6.03-3.34-6.16-11.07-8.46-17.23-5.12-6.16,3.34-8.46,11.06-5.12,17.23,1.96,3.61,5.43,5.89,9.2,6.49,2.66,.43,5.48,.01,8.03-1.37,4.24-2.3,6.65-6.68,6.65-11.2Zm-6.54,41.28c0-2.04-.49-4.12-1.53-6.03-3.34-6.16-11.06-8.46-17.23-5.12-2.98,1.62-5.16,4.31-6.13,7.55-.96,3.26-.61,6.69,1.01,9.68,1.96,3.61,5.43,5.89,9.2,6.49,2.67,.43,5.48,.01,8.03-1.37,4.24-2.3,6.65-6.68,6.65-11.2Zm-6.54,41.3c0-2.04-.49-4.12-1.53-6.03-3.34-6.17-11.06-8.46-17.22-5.12-6.16,3.33-8.46,11.06-5.12,17.22,1.96,3.62,5.43,5.89,9.2,6.5,2.66,.41,5.48,0,8.02-1.38,4.24-2.3,6.65-6.68,6.65-11.19Zm-4.95-151.87c0-2.04-.49-4.12-1.53-6.03-3.34-6.16-11.06-8.46-17.22-5.12-6.16,3.33-8.46,11.06-5.12,17.22,1.96,3.62,5.43,5.89,9.2,6.5,2.66,.41,5.48,0,8.02-1.38,4.24-2.3,6.65-6.68,6.65-11.19Zm-1.58,193.16c0-2.04-.5-4.12-1.53-6.03-3.34-6.16-11.07-8.46-17.23-5.12-2.99,1.62-5.16,4.3-6.13,7.55-.97,3.26-.61,6.69,1.01,9.67,1.96,3.62,5.43,5.9,9.2,6.5,2.66,.41,5.48,0,8.03-1.38,4.24-2.3,6.65-6.68,6.65-11.19Zm-4.95-151.87c0-2.04-.49-4.12-1.53-6.03-3.34-6.16-11.07-8.46-17.23-5.12-2.98,1.62-5.16,4.3-6.13,7.55s-.61,6.69,1.01,9.67c1.96,3.62,5.43,5.9,9.2,6.5,2.66,.41,5.48,0,8.03-1.38,4.24-2.3,6.65-6.68,6.65-11.19Zm-6.54,41.28c0-2.04-.49-4.12-1.53-6.03-3.34-6.16-11.07-8.46-17.23-5.12s-8.46,11.06-5.12,17.23c1.96,3.61,5.43,5.89,9.2,6.49,2.67,.43,5.48,0,8.03-1.37,4.24-2.3,6.65-6.68,6.65-11.2Zm-6.54,41.28c0-2.04-.49-4.12-1.53-6.03-3.34-6.16-11.06-8.46-17.22-5.12-2.99,1.62-5.16,4.3-6.13,7.55s-.61,6.69,1.01,9.68c1.96,3.61,5.41,5.89,9.19,6.49,2.67,.43,5.49,.01,8.03-1.37,4.24-2.3,6.65-6.68,6.65-11.2Zm-6.53,41.3c0-2.04-.5-4.12-1.53-6.03-3.34-6.17-11.07-8.46-17.23-5.12-6.16,3.33-8.46,11.06-5.12,17.22,1.96,3.62,5.43,5.89,9.2,6.49,2.66,.43,5.48,.01,8.02-1.37,4.24-2.3,6.66-6.68,6.66-11.19Zm-6.54,41.28c0-2.04-.49-4.12-1.53-6.03-3.34-6.16-11.07-8.46-17.23-5.12-2.98,1.62-5.16,4.3-6.13,7.55s-.61,6.69,1.01,9.67c1.96,3.62,5.43,5.9,9.2,6.5,2.66,.41,5.48,0,8.03-1.38,4.24-2.3,6.65-6.68,6.65-11.19Z"/><path class="cls-6" d="M472.61,77.27c10.68,9.01,16.56,23.24,14.23,37.98l-45.04,284.36c-3.54,22.38-24.75,37.8-47.14,34.24l-60.54-9.58-.6,3.8,68.8,10.89c22.38,3.55,43.59-11.86,47.13-34.24l45.04-284.36c2.85-17.96-6.51-35.15-21.88-43.08Z"/><g><path class="cls-5" d="M473.92,134.86c-3.34-6.17-11.07-8.46-17.23-5.12-2.98,1.62-5.16,4.3-6.13,7.55-.96,3.26-.61,6.69,1.01,9.67,1.96,3.62,5.43,5.89,9.2,6.5,2.67,.41,5.48,0,8.03-1.38,4.24-2.3,6.65-6.68,6.65-11.19,0-2.04-.49-4.12-1.53-6.03Z"/><path class="cls-5" d="M450.15,171.02c-6.16,3.34-8.46,11.06-5.12,17.22,1.96,3.62,5.43,5.9,9.19,6.5,2.67,.43,5.49,0,8.03-1.38,4.24-2.29,6.65-6.67,6.65-11.19,0-2.04-.49-4.12-1.53-6.03-3.34-6.16-11.06-8.46-17.22-5.12Z"/><path class="cls-5" d="M443.61,212.31c-2.99,1.62-5.16,4.3-6.13,7.55-.97,3.26-.61,6.69,1.01,9.68,1.96,3.61,5.43,5.89,9.2,6.49,2.66,.43,5.48,.01,8.02-1.37,4.24-2.3,6.66-6.68,6.66-11.2,0-2.04-.5-4.12-1.53-6.03-3.34-6.16-11.07-8.46-17.23-5.12Z"/><path class="cls-5" d="M437.07,253.59c-6.16,3.34-8.46,11.07-5.12,17.23,1.96,3.61,5.43,5.89,9.2,6.49,2.66,.43,5.48,.01,8.03-1.37,4.24-2.3,6.65-6.68,6.65-11.2,0-2.04-.49-4.12-1.53-6.03-3.34-6.16-11.07-8.46-17.23-5.12Z"/><path class="cls-5" d="M430.53,294.89c-2.98,1.62-5.16,4.3-6.12,7.55-.97,3.26-.62,6.69,1,9.67,1.96,3.62,5.43,5.89,9.2,6.5,2.67,.41,5.48,0,8.03-1.38,4.24-2.3,6.65-6.68,6.65-11.19,0-2.04-.49-4.12-1.53-6.03-3.34-6.17-11.06-8.46-17.23-5.12Z"/><path class="cls-5" d="M429.67,166.74c2.67,.41,5.49,0,8.03-1.38,4.24-2.3,6.65-6.68,6.65-11.19,0-2.04-.49-4.12-1.53-6.03-3.34-6.17-11.06-8.46-17.22-5.12-6.16,3.33-8.46,11.06-5.12,17.22,1.96,3.62,5.41,5.89,9.19,6.5Z"/><path class="cls-5" d="M424,336.17c-6.16,3.34-8.46,11.06-5.12,17.22,1.96,3.62,5.43,5.9,9.2,6.5,2.66,.41,5.48,0,8.02-1.38,4.24-2.3,6.65-6.68,6.65-11.19,0-2.04-.49-4.12-1.53-6.03-3.34-6.16-11.06-8.46-17.22-5.12Z"/><path class="cls-5" d="M413.93,201.52c1.96,3.62,5.43,5.9,9.2,6.5,2.66,.43,5.48,0,8.02-1.38,4.24-2.29,6.65-6.67,6.65-11.18,0-2.04-.49-4.12-1.53-6.04-3.33-6.16-11.06-8.46-17.22-5.12-2.99,1.62-5.16,4.3-6.13,7.55-.97,3.26-.61,6.69,1.01,9.67Z"/><path class="cls-5" d="M431.27,236.73c0-2.04-.49-4.12-1.53-6.03-3.34-6.16-11.07-8.46-17.23-5.12-6.16,3.34-8.46,11.06-5.12,17.23,1.96,3.61,5.43,5.89,9.2,6.49,2.66,.43,5.48,.01,8.03-1.37,4.24-2.3,6.65-6.68,6.65-11.2Z"/><path class="cls-5" d="M405.97,266.87c-2.98,1.62-5.16,4.31-6.13,7.55-.96,3.26-.61,6.69,1.01,9.68,1.96,3.61,5.43,5.89,9.2,6.49,2.67,.43,5.48,.01,8.03-1.37,4.24-2.3,6.65-6.68,6.65-11.2,0-2.04-.49-4.12-1.53-6.03-3.34-6.16-11.06-8.46-17.23-5.12Z"/><path class="cls-5" d="M416.66,313.28c-3.34-6.17-11.06-8.46-17.22-5.12-6.16,3.33-8.46,11.06-5.12,17.22,1.96,3.62,5.43,5.89,9.2,6.5,2.66,.41,5.48,0,8.02-1.38,4.24-2.3,6.65-6.68,6.65-11.19,0-2.04-.49-4.12-1.53-6.03Z"/><path class="cls-5" d="M398.57,180.01c2.66,.41,5.48,0,8.02-1.38,4.24-2.3,6.65-6.68,6.65-11.19,0-2.04-.49-4.12-1.53-6.03-3.34-6.16-11.06-8.46-17.22-5.12-6.16,3.33-8.46,11.06-5.12,17.22,1.96,3.62,5.43,5.89,9.2,6.5Z"/><path class="cls-5" d="M392.89,349.45c-2.99,1.62-5.16,4.3-6.13,7.55-.97,3.26-.61,6.69,1.01,9.67,1.96,3.62,5.43,5.9,9.2,6.5,2.66,.41,5.48,0,8.03-1.38,4.24-2.3,6.65-6.68,6.65-11.19,0-2.04-.5-4.12-1.53-6.03-3.34-6.16-11.07-8.46-17.23-5.12Z"/><path class="cls-5" d="M392.03,221.3c2.66,.41,5.48,0,8.03-1.38,4.24-2.3,6.65-6.68,6.65-11.19,0-2.04-.49-4.12-1.53-6.03-3.34-6.16-11.07-8.46-17.23-5.12-2.98,1.62-5.16,4.3-6.13,7.55-.97,3.26-.61,6.69,1.01,9.67,1.96,3.62,5.43,5.9,9.2,6.5Z"/><path class="cls-5" d="M385.49,262.58c2.67,.43,5.48,0,8.03-1.37,4.24-2.3,6.65-6.68,6.65-11.2,0-2.04-.49-4.12-1.53-6.03-3.34-6.16-11.07-8.46-17.23-5.12-6.16,3.34-8.46,11.06-5.12,17.23,1.96,3.61,5.43,5.89,9.2,6.49Z"/><path class="cls-5" d="M378.95,303.87c2.67,.43,5.49,.01,8.03-1.37,4.24-2.3,6.65-6.68,6.65-11.2,0-2.04-.49-4.12-1.53-6.03-3.34-6.16-11.06-8.46-17.22-5.12-2.99,1.62-5.16,4.3-6.13,7.55-.97,3.26-.61,6.69,1.01,9.68,1.96,3.61,5.41,5.89,9.19,6.49Z"/><path class="cls-5" d="M385.56,326.56c-3.34-6.17-11.07-8.46-17.23-5.12-6.16,3.33-8.46,11.06-5.12,17.22,1.96,3.62,5.43,5.89,9.2,6.49,2.66,.43,5.48,.01,8.02-1.37,4.24-2.3,6.66-6.68,6.66-11.19,0-2.04-.5-4.12-1.53-6.03Z"/><path class="cls-5" d="M361.79,362.72c-2.98,1.62-5.16,4.3-6.13,7.55-.97,3.26-.61,6.69,1.01,9.67,1.96,3.62,5.43,5.9,9.2,6.5,2.66,.41,5.48,0,8.03-1.38,4.24-2.3,6.65-6.68,6.65-11.19,0-2.04-.49-4.12-1.53-6.03-3.34-6.16-11.07-8.46-17.23-5.12Z"/><path class="cls-2" d="M374.43,363.04c1,.92,1.87,2.01,2.55,3.27,1.04,1.91,1.53,3.99,1.53,6.03,0,4.51-2.4,8.89-6.65,11.19-2.55,1.38-5.37,1.8-8.03,1.38-1.63-.26-3.2-.85-4.61-1.71,1.87,1.73,4.19,2.85,6.66,3.24,2.66,.41,5.48,0,8.03-1.38,4.24-2.3,6.65-6.68,6.65-11.19,0-2.04-.49-4.12-1.53-6.03-1.11-2.06-2.72-3.67-4.6-4.8Z"/><path class="cls-2" d="M436.62,336.49c1,.92,1.87,2.01,2.55,3.27,1.04,1.91,1.53,3.99,1.53,6.03,0,4.51-2.4,8.89-6.65,11.19-2.55,1.38-5.37,1.8-8.03,1.38-1.63-.26-3.2-.85-4.61-1.71,1.87,1.73,4.19,2.85,6.66,3.24,2.66,.41,5.48,0,8.03-1.38,4.24-2.3,6.65-6.68,6.65-11.19,0-2.04-.49-4.12-1.53-6.03-1.11-2.06-2.72-3.67-4.6-4.8Z"/><path class="cls-2" d="M405.53,349.77c1,.92,1.87,2.01,2.55,3.27,1.04,1.91,1.53,3.99,1.53,6.03,0,4.51-2.4,8.89-6.65,11.19-2.55,1.38-5.37,1.8-8.03,1.38-1.63-.26-3.2-.85-4.61-1.71,1.87,1.73,4.19,2.85,6.66,3.24,2.66,.41,5.48,0,8.03-1.38,4.24-2.3,6.65-6.68,6.65-11.19,0-2.04-.49-4.12-1.53-6.03-1.11-2.06-2.72-3.67-4.6-4.8Z"/><path class="cls-2" d="M380.97,321.75c1,.92,1.87,2.01,2.55,3.27,1.04,1.91,1.53,3.99,1.53,6.03,0,4.51-2.4,8.89-6.65,11.19-2.55,1.38-5.37,1.8-8.03,1.38-1.63-.26-3.2-.85-4.61-1.71,1.87,1.73,4.19,2.85,6.66,3.24,2.66,.41,5.48,0,8.03-1.38,4.24-2.3,6.65-6.68,6.65-11.19,0-2.04-.49-4.12-1.53-6.03-1.11-2.06-2.72-3.67-4.6-4.8Z"/><path class="cls-2" d="M443.17,295.21c1,.92,1.87,2.01,2.55,3.27,1.04,1.91,1.53,3.99,1.53,6.03,0,4.51-2.4,8.89-6.65,11.19-2.55,1.38-5.37,1.8-8.03,1.38-1.63-.26-3.2-.85-4.61-1.71,1.87,1.73,4.19,2.85,6.66,3.24,2.66,.41,5.48,0,8.03-1.38,4.24-2.3,6.65-6.68,6.65-11.19,0-2.04-.49-4.12-1.53-6.03-1.11-2.06-2.72-3.67-4.6-4.8Z"/><path class="cls-2" d="M412.06,308.48c1,.92,1.87,2.01,2.55,3.27,1.04,1.91,1.53,3.99,1.53,6.03,0,4.51-2.4,8.89-6.65,11.19-2.55,1.38-5.37,1.8-8.03,1.38-1.63-.26-3.2-.85-4.61-1.71,1.87,1.73,4.19,2.85,6.66,3.24,2.66,.41,5.48,0,8.03-1.38,4.24-2.3,6.65-6.68,6.65-11.19,0-2.04-.49-4.12-1.53-6.03-1.11-2.06-2.72-3.67-4.6-4.8Z"/><path class="cls-2" d="M387.5,280.47c1,.92,1.87,2.01,2.55,3.27,1.04,1.91,1.53,3.99,1.53,6.03,0,4.51-2.4,8.89-6.65,11.19-2.55,1.38-5.37,1.8-8.03,1.38-1.63-.26-3.2-.85-4.61-1.71,1.87,1.73,4.19,2.85,6.66,3.24,2.66,.41,5.48,0,8.03-1.38,4.24-2.3,6.65-6.68,6.65-11.19,0-2.04-.49-4.12-1.53-6.03-1.11-2.06-2.72-3.67-4.6-4.8Z"/><path class="cls-2" d="M418.6,267.19c1,.92,1.87,2.01,2.55,3.27,1.04,1.91,1.53,3.99,1.53,6.03,0,4.51-2.4,8.89-6.65,11.19-2.55,1.38-5.37,1.8-8.03,1.38-1.63-.26-3.2-.85-4.61-1.71,1.87,1.73,4.19,2.85,6.66,3.24,2.66,.41,5.48,0,8.03-1.38,4.24-2.3,6.65-6.68,6.65-11.19,0-2.04-.49-4.12-1.53-6.03-1.11-2.06-2.72-3.67-4.6-4.8Z"/><path class="cls-2" d="M449.71,253.92c1,.92,1.87,2.01,2.55,3.27,1.04,1.91,1.53,3.99,1.53,6.03,0,4.51-2.4,8.89-6.65,11.19-2.55,1.38-5.37,1.8-8.03,1.38-1.63-.26-3.2-.85-4.61-1.71,1.87,1.73,4.19,2.85,6.66,3.24,2.66,.41,5.48,0,8.03-1.38,4.24-2.3,6.65-6.68,6.65-11.19,0-2.04-.49-4.12-1.53-6.03-1.11-2.06-2.72-3.67-4.6-4.8Z"/><path class="cls-2" d="M425.15,225.91c1,.92,1.87,2.01,2.55,3.27,1.04,1.91,1.53,3.99,1.53,6.03,0,4.51-2.4,8.89-6.65,11.19-2.55,1.38-5.37,1.8-8.03,1.38-1.63-.26-3.2-.85-4.61-1.71,1.87,1.73,4.19,2.85,6.66,3.24,2.66,.41,5.48,0,8.03-1.38,4.24-2.3,6.65-6.68,6.65-11.19,0-2.04-.49-4.12-1.53-6.03-1.11-2.06-2.72-3.67-4.6-4.8Z"/><path class="cls-2" d="M394.04,239.18c1,.92,1.87,2.01,2.55,3.27,1.04,1.91,1.53,3.99,1.53,6.03,0,4.51-2.4,8.89-6.65,11.19-2.55,1.38-5.37,1.8-8.03,1.38-1.63-.26-3.2-.85-4.61-1.71,1.87,1.73,4.19,2.85,6.66,3.24,2.66,.41,5.48,0,8.03-1.38,4.24-2.3,6.65-6.68,6.65-11.19,0-2.04-.49-4.12-1.53-6.03-1.11-2.06-2.72-3.67-4.6-4.8Z"/><path class="cls-2" d="M456.25,212.63c1,.92,1.87,2.01,2.55,3.27,1.04,1.91,1.53,3.99,1.53,6.03,0,4.51-2.4,8.89-6.65,11.19-2.55,1.38-5.37,1.8-8.03,1.38-1.63-.26-3.2-.85-4.61-1.71,1.87,1.73,4.19,2.85,6.66,3.24,2.66,.41,5.48,0,8.03-1.38,4.24-2.3,6.65-6.68,6.65-11.19,0-2.04-.49-4.12-1.53-6.03-1.11-2.06-2.72-3.67-4.6-4.8Z"/><path class="cls-2" d="M400.58,197.89c1,.92,1.87,2.01,2.55,3.27,1.04,1.91,1.53,3.99,1.53,6.03,0,4.51-2.4,8.89-6.65,11.19-2.55,1.38-5.37,1.8-8.03,1.38-1.63-.26-3.2-.85-4.61-1.71,1.87,1.73,4.19,2.85,6.66,3.24,2.66,.41,5.48,0,8.03-1.38,4.24-2.3,6.65-6.68,6.65-11.19,0-2.04-.49-4.12-1.53-6.03-1.11-2.06-2.72-3.67-4.6-4.8Z"/><path class="cls-2" d="M431.68,184.62c1,.92,1.87,2.01,2.55,3.27,1.04,1.91,1.53,3.99,1.53,6.03,0,4.51-2.4,8.89-6.65,11.19-2.55,1.38-5.37,1.8-8.03,1.38-1.63-.26-3.2-.85-4.61-1.71,1.87,1.73,4.19,2.85,6.66,3.24,2.66,.41,5.48,0,8.03-1.38,4.24-2.3,6.65-6.68,6.65-11.19,0-2.04-.49-4.12-1.53-6.03-1.11-2.06-2.72-3.67-4.6-4.8Z"/><path class="cls-2" d="M462.78,171.35c1,.92,1.87,2.01,2.55,3.27,1.04,1.91,1.53,3.99,1.53,6.03,0,4.51-2.4,8.89-6.65,11.19-2.55,1.38-5.37,1.8-8.03,1.38-1.63-.26-3.2-.85-4.61-1.71,1.87,1.73,4.19,2.85,6.66,3.24,2.66,.41,5.48,0,8.03-1.38,4.24-2.3,6.65-6.68,6.65-11.19,0-2.04-.49-4.12-1.53-6.03-1.11-2.06-2.72-3.67-4.6-4.8Z"/><path class="cls-2" d="M407.12,156.61c1,.92,1.87,2.01,2.55,3.27,1.04,1.91,1.53,3.99,1.53,6.03,0,4.51-2.4,8.89-6.65,11.19-2.55,1.38-5.37,1.8-8.03,1.38-1.63-.26-3.2-.85-4.61-1.71,1.87,1.73,4.19,2.85,6.66,3.24,2.66,.41,5.48,0,8.03-1.38,4.24-2.3,6.65-6.68,6.65-11.19,0-2.04-.49-4.12-1.53-6.03-1.11-2.06-2.72-3.67-4.6-4.8Z"/><path class="cls-2" d="M438.22,143.33c1,.92,1.87,2.01,2.55,3.27,1.04,1.91,1.53,3.99,1.53,6.03,0,4.51-2.4,8.89-6.65,11.19-2.55,1.38-5.37,1.8-8.03,1.38-1.63-.26-3.2-.85-4.61-1.71,1.87,1.73,4.19,2.85,6.66,3.24,2.66,.41,5.48,0,8.03-1.38,4.24-2.3,6.65-6.68,6.65-11.19,0-2.04-.49-4.12-1.53-6.03-1.11-2.06-2.72-3.67-4.6-4.8Z"/><path class="cls-2" d="M469.32,130.06c1,.92,1.87,2.01,2.55,3.27,1.04,1.91,1.53,3.99,1.53,6.03,0,4.51-2.4,8.89-6.65,11.19-2.55,1.38-5.37,1.8-8.03,1.38-1.63-.26-3.2-.85-4.61-1.71,1.87,1.73,4.19,2.85,6.66,3.24,2.66,.41,5.48,0,8.03-1.38,4.24-2.3,6.65-6.68,6.65-11.19,0-2.04-.49-4.12-1.53-6.03-1.11-2.06-2.72-3.67-4.6-4.8Z"/></g><path class="cls-2" d="M181.89,408.48c-.2,.01-.4,.12-.54,.3-4.84,6.34-9.49,12.69-13.95,19.05l-.59,.22-.16-.98L108.93,62.63l-.05-.32,.2-.18c9.75,6.04,20.9,12.83,30.34,18.96,.16,.1,.34,.14,.52,.1l41.94,327.3Z"/><path class="cls-2" d="M215.69,408.11s-.06-.02-.07-.01c-5.11,6.13-10.04,12.28-14.78,18.42L166.49,61.33c.17-.02,.35,.01,.51,.12,9.35,6.16,18.52,12.36,27.51,18.58,.01,0,.02,0,.04-.01l21.14,328.09Z"/><path class="cls-4" d="M166.49,61.33l34.35,365.2-.02,.02c-.3,.37-12.41-11.91-18.31-17.85-.17-.18-.4-.24-.63-.22L139.94,81.18c-.18,.04-.36,0-.52-.1l.51-.02,.36-.02c8.4-6.55,17.01-13.07,25.82-19.57,.12-.09,.24-.13,.38-.14Z"/><path class="cls-2" d="M250.48,407.68c-.21,0-.42,.09-.56,.26-5.24,5.75-10.33,11.54-15.21,17.35,0,0-.38,.45-.78,.91-.15,.17-.34,.26-.53,.26l-10.54-365.94s.02-.01,.03-.02c.32,.22,.64,.45,.96,.68,8.78,6.17,17.36,12.35,25.77,18.58,.17,.12,.37,.17,.56,.13l.3,327.8Z"/><path class="cls-4" d="M222.85,60.51l10.54,365.94c-.23,.02-.47-.06-.64-.26-4.96-5.85-16.02-17.59-17.06-18.08l-21.14-328.09c1.05-.39,19.12-13.17,28.3-19.51Z"/><path class="cls-2" d="M304.85,80.31l-20.23,327.7c-.16,.02-.31,.1-.43,.22-5.91,6-11.63,12.02-17.17,18.05-.2,.21-.5,.29-.76,.21l12.58-365.61c.26-.13,.56-.12,.81,.07,8.54,6.39,16.89,12.82,25.05,19.26,.04,.03,.1,.06,.14,.09Z"/><path class="cls-4" d="M278.76,60.92s.05-.03,.09-.04l-12.58,365.61c-.16-.04-.3-.13-.4-.27-4.75-6.11-9.68-12.19-14.78-18.28-.16-.19-.38-.28-.61-.28l-.3-327.8c.12-.01,.22-.05,.32-.12,9.21-6.32,18.64-12.59,28.26-18.84Z"/><path class="cls-2" d="M360.17,81.65l-41.04,327.17c-.22-.05-.48,.01-.67,.19-5.98,5.61-11.79,11.25-17.42,16.92-.31,.3-.61,.6-.91,.89-.17,.17-.39,.24-.62,.22L335.49,61.85c.15,0,.3,.01,.48,.02,8.13,6.51,16.07,13.04,23.82,19.59,.11,.1,.24,.16,.38,.18Z"/><path class="cls-4" d="M335.49,61.85l-35.99,365.2c-.21-.02-.41-.13-.54-.32-4.36-6.15-8.9-12.3-13.61-18.42-.18-.23-.48-.34-.74-.3l20.23-327.7c.23,.12,.51,.11,.74-.04,9.63-6.18,19.46-12.33,29.49-18.45,.15,.01,.29,.02,.41,.03Z"/><path class="cls-4" d="M391.27,63.31l-57.77,364.77-1.13,.11c-4.06-6.36-8.31-12.72-12.73-19.06-.12-.17-.31-.28-.5-.31l41.04-327.17c.18,.02,.35-.01,.51-.11,9.89-6,19.84-13.13,30.12-19.04l.47,.81Z"/><path class="cls-4" d="M140.29,81.04c-.11,.09-.22,.13-.35,.14-.18,.04-.36,0-.52-.1l.51-.02,.36-.02Z"/><path class="cls-3" d="M166.81,428.05l-69.13,10.96c-21.39,3.38-41.72-10.54-46.56-31.33l76.32-12.09-4.08-25.85-4-25.24-2.53-15.92-4-25.26-2.52-15.92-4-25.25-4.49-28.33-4.55-28.79-4-25.25-2.52-15.94-4.01-25.25-4.95-31.26L5.37,119.41c-2.96-22.02,12.33-42.67,34.38-46.16l69.13-10.95,.05,.32,57.72,364.44,.16,.98Z"/><path class="cls-6" d="M166.05,423.23l-65.69,10.41c-38.89,5.95-49.24-25.97-49.24-25.97,4.84,20.79,25.17,34.71,46.56,31.33l69.13-10.96-.16-.98-.61-3.84Z"/><path d="M123.36,369.73c-.3,.14-.63,.23-.97,.29l-41.56,6.58c-2.19,.35-4.26-1.15-4.61-3.35l-1.35-8.54-1.43-8.99c-.35-2.2,1.15-4.27,3.34-4.61l41.57-6.58c.34-.05,.67-.06,1-.04l4,25.24Z"/><g><path class="cls-9" d="M51.2,407.56c-.21-.91-.4-1.86-.55-2.82l-5.58-35.19,29.71-4.71,1.33,8.44c.32,2.02,2.04,3.49,4.07,3.49,.22,0,.43-.02,.65-.05l41.56-6.58c.31-.05,.6-.13,.87-.24l4.05,25.61-76.12,12.06Z"/><path class="cls-1" d="M74.69,364.96l1.32,8.33c.33,2.08,2.09,3.58,4.18,3.58,.22,0,.45-.02,.67-.05l41.56-6.58c.27-.04,.53-.11,.77-.2l4.01,25.37-75.92,12.03c-.2-.88-.38-1.79-.53-2.72l-5.56-35.09,29.5-4.68m.18-.24l-29.92,4.74,5.6,35.3c.16,.99,.35,1.97,.57,2.93l76.32-12.09-4.08-25.85c-.3,.14-.63,.23-.97,.29l-41.56,6.58c-.21,.03-.43,.05-.64,.05-1.94,0-3.65-1.42-3.97-3.4l-1.35-8.54h0Z"/></g><path d="M116.83,328.57c-.3,.13-.62,.22-.96,.28l-41.56,6.58c-2.2,.34-4.27-1.16-4.61-3.35l-1.35-8.54-1.43-9c-.35-2.19,1.15-4.26,3.34-4.61l41.56-6.58c.34-.05,.67-.06,1-.04l4,25.26Z"/><g><path class="cls-9" d="M38.55,328.36l29.71-4.7,1.33,8.44c.31,1.99,2.07,3.49,4.09,3.49,.21,0,.42-.02,.64-.05l41.56-6.58c.29-.05,.58-.12,.86-.23l2.49,15.66c-.06,0-.12,0-.19,0-.23,0-.46,.02-.7,.05l-41.57,6.58c-1.08,.17-2.04,.75-2.69,1.64-.65,.89-.91,1.99-.74,3.09l1.41,8.88-29.71,4.71-6.49-40.98Z"/><path class="cls-1" d="M68.17,323.78l1.32,8.33c.32,2.04,2.12,3.58,4.19,3.58,.22,0,.44-.02,.66-.05l41.56-6.58c.26-.04,.51-.1,.76-.19l2.45,15.41h-.06c-.25,0-.48,.02-.72,.05l-41.57,6.58c-1.11,.17-2.09,.77-2.76,1.68-.67,.92-.94,2.04-.76,3.16l1.39,8.78-29.5,4.68-6.45-40.77,29.5-4.67m.18-.24l-29.92,4.73,6.52,41.19,29.92-4.74-1.43-8.99c-.35-2.2,1.15-4.27,3.34-4.61l41.57-6.58c.23-.04,.46-.05,.69-.05,.11,0,.21,0,.31,.01l-2.53-15.92c-.3,.13-.62,.22-.96,.28l-41.56,6.58c-.21,.03-.42,.05-.62,.05-1.96,0-3.67-1.42-3.98-3.4l-1.35-8.54h0Z"/></g><path d="M110.31,287.38c-.3,.13-.62,.22-.96,.28l-41.56,6.58c-2.2,.35-4.27-1.15-4.62-3.35l-1.35-8.54-1.43-8.99c-.34-2.2,1.16-4.27,3.35-4.62l41.56-6.57c.34-.05,.67-.06,1-.04l4,25.25Z"/><g><path class="cls-9" d="M32.03,287.18l29.7-4.71,1.33,8.44c.32,2.02,2.04,3.49,4.08,3.49,.22,0,.44-.02,.66-.05l41.56-6.58c.29-.05,.58-.12,.86-.23l2.48,15.66c-.06,0-.12,0-.19,0-.23,0-.46,.02-.7,.05l-41.56,6.58c-1.09,.17-2.04,.76-2.69,1.66-.65,.89-.91,1.98-.74,3.07l1.41,8.89-29.71,4.7-6.49-40.97Z"/><path class="cls-1" d="M61.64,282.59l1.32,8.33c.33,2.08,2.09,3.58,4.19,3.58,.22,0,.45-.02,.67-.05l41.56-6.58c.26-.04,.51-.1,.76-.19l2.44,15.41h-.06c-.25,0-.48,.02-.72,.06l-41.56,6.58c-1.12,.18-2.1,.78-2.76,1.7-.67,.92-.93,2.04-.75,3.15l1.39,8.79-29.5,4.67-6.45-40.76,29.49-4.68m.18-.24l-29.91,4.74,6.52,41.18,29.92-4.73-1.43-9c-.35-2.19,1.15-4.26,3.34-4.61l41.56-6.58c.23-.04,.46-.05,.69-.05,.1,0,.21,0,.31,.01l-2.52-15.92c-.3,.13-.62,.22-.96,.28l-41.56,6.58c-.22,.03-.43,.05-.64,.05-1.95,0-3.66-1.42-3.98-3.4l-1.35-8.54h0Z"/></g><path d="M97.26,205.01c-.1,.04-.19,.07-.3,.11-.09,.03-.18,.06-.28,.09-.13,.03-.26,.06-.39,.09l-41.56,6.58c-2.19,.35-4.26-1.15-4.61-3.35l-1.35-8.54-1.43-8.99c-.35-2.2,1.15-4.27,3.35-4.62l41.56-6.57c.34-.05,.67-.06,1-.04l4,25.25Z"/><g><path class="cls-9" d="M18.99,204.81l29.7-4.71,1.33,8.44c.32,2.02,2.04,3.49,4.07,3.49,.22,0,.43-.02,.65-.05l41.56-6.58c.14-.02,.27-.05,.4-.09,.1-.02,.2-.06,.29-.09,.06-.02,.12-.04,.18-.06l4.51,28.55-76.22,12.07-6.49-40.97Z"/><path class="cls-1" d="M48.6,200.22l1.32,8.33c.33,2.08,2.09,3.58,4.18,3.58,.22,0,.45-.02,.67-.05l41.56-6.58c.14-.02,.28-.06,.41-.09,.11-.02,.21-.06,.29-.09l.07-.02,4.48,28.32-76.01,12.04-6.45-40.76,29.49-4.68m.18-.24l-29.91,4.74,6.52,41.18,76.43-12.11-4.55-28.79c-.1,.04-.19,.07-.3,.11-.09,.03-.18,.06-.28,.09-.13,.03-.26,.06-.39,.09l-41.56,6.58c-.21,.03-.43,.05-.64,.05-1.94,0-3.65-1.42-3.97-3.4l-1.35-8.54h0Z"/></g><path d="M90.74,163.82c-.3,.14-.63,.23-.97,.29l-41.56,6.58c-2.19,.34-4.26-1.16-4.61-3.35l-1.35-8.54-1.43-9c-.35-2.19,1.15-4.26,3.35-4.61l41.56-6.58c.33-.05,.66-.06,.99-.04l4.01,25.25Z"/><g><path class="cls-9" d="M12.46,163.62l29.71-4.7,1.33,8.44c.33,2.02,2.04,3.49,4.09,3.49,.21,0,.42-.02,.64-.05l41.56-6.58c.31-.05,.6-.13,.87-.24l2.48,15.67c-.06,0-.12,0-.19,0-.23,0-.46,.02-.7,.05l-41.56,6.57c-1.09,.17-2.05,.76-2.7,1.66-.65,.89-.91,1.99-.74,3.08l1.41,8.88-29.7,4.71-6.5-40.98Z"/><path class="cls-1" d="M42.08,159.04l1.32,8.33c.33,2.07,2.1,3.58,4.19,3.58,.22,0,.44-.02,.66-.05l41.56-6.58c.27-.04,.53-.11,.77-.2l2.44,15.41h-.06c-.25,0-.48,.02-.72,.06l-41.56,6.57c-2.31,.37-3.9,2.55-3.53,4.86l1.39,8.78-29.49,4.68-6.46-40.77,29.5-4.67m.18-.24l-29.92,4.73,6.53,41.19,29.91-4.74-1.43-8.99c-.35-2.2,1.15-4.27,3.35-4.62l41.56-6.57c.23-.04,.46-.05,.69-.05,.1,0,.21,0,.31,.01l-2.52-15.94c-.3,.14-.63,.23-.97,.29l-41.56,6.58c-.21,.03-.42,.05-.62,.05-1.95,0-3.67-1.42-3.98-3.4l-1.35-8.54h0Z"/></g><g><path class="cls-9" d="M25.51,245.99l76.22-12.07,4.45,28.09c-.06,0-.12,0-.19,0-.23,0-.46,.02-.7,.05l-41.56,6.57c-2.25,.36-3.79,2.48-3.44,4.74l1.41,8.88-29.7,4.71-6.49-40.98Z"/><path class="cls-1" d="M101.64,234.04l4.42,27.86h-.06c-.25,0-.48,.02-.72,.06l-41.56,6.57c-2.3,.37-3.88,2.55-3.53,4.86l1.39,8.78-29.49,4.68-6.45-40.77,76.01-12.04m.18-.24l-76.43,12.11,6.52,41.19,29.91-4.74-1.43-8.99c-.34-2.2,1.16-4.27,3.35-4.62l41.56-6.57c.23-.04,.46-.05,.69-.05,.1,0,.21,0,.31,.01l-4.49-28.33h0Z"/></g><g><path class="cls-9" d="M5.61,120.37c-.05-.29-.09-.58-.12-.87l76.21-12.07,4.91,31.03c-.06,0-.12,0-.19,0-.23,0-.46,.02-.69,.05l-41.56,6.58c-1.09,.17-2.05,.76-2.7,1.66-.65,.89-.91,1.98-.74,3.07l1.41,8.89-29.71,4.7-6.81-43.04Z"/><path class="cls-1" d="M81.61,107.55l4.87,30.8h-.06c-.24,0-.48,.02-.71,.06l-41.56,6.58c-1.12,.18-2.1,.78-2.77,1.7-.67,.92-.93,2.04-.76,3.15l1.39,8.79-29.5,4.67-6.8-42.94c-.04-.26-.08-.51-.11-.77l76.01-12.04m.18-.24L5.37,119.41c.04,.33,.09,.65,.14,.98l6.83,43.15,29.92-4.73-1.43-9c-.35-2.19,1.15-4.26,3.35-4.61l41.56-6.58c.23-.04,.45-.05,.68-.05,.1,0,.21,0,.31,.01l-4.95-31.26h0Z"/></g><path class="cls-7" d="M81.79,107.3L5.37,119.41c.04,.33,.09,.65,.14,.98l.37,2.31,74.64-11.82s5.89,27.67,6.22,27.69l-4.95-31.26Z"/><line class="cls-8" x1="139.94" y1="81.18" x2="139.93" y2="81.06"/></g></svg>