<?xml version="1.0" encoding="UTF-8"?><svg id="Cor" xmlns="http://www.w3.org/2000/svg" viewBox="0 0 500 500"><defs><style>.cls-1{fill:#351904;}.cls-2{fill:#774828;}.cls-3{fill:#92582f;}.cls-4{fill:#c08d61;}.cls-5{fill:#f1f1f1;}.cls-6{fill:#d9e3e9;}.cls-7{fill:#a77956;}</style></defs><g id="Bandolim"><path d="M251.73,280.99c2.46,12.85-1.28,26.64-11.21,36.58-15.93,15.93-41.76,15.93-57.69,0-15.94-15.93-15.94-41.77,0-57.7,9.94-9.94,23.75-13.68,36.58-11.21,7.74,1.48,15.11,5.22,21.11,11.21,5.99,5.99,9.73,13.38,11.21,21.12Z"/><g><path class="cls-6" d="M493,64.75c-1.06,1.07-2.45,1.6-3.85,1.6-1.39,0-2.79-.52-3.86-1.6l-6.03-6.03c-.29-.29-.55-.61-.75-.95l7.51-7.51c.34,.2,.66,.45,.95,.75l6.03,6.03c2.13,2.13,2.13,5.58,0,7.71Z"/><path class="cls-6" d="M480.44,77.08c-1.06,1.06-2.46,1.6-3.86,1.6-1.39,0-2.78-.53-3.85-1.6l-6.03-6.03c-.25-.25-.47-.52-.65-.81l7.55-7.55c.29,.19,.55,.4,.81,.65l6.03,6.03c2.13,2.13,2.12,5.59,0,7.71Z"/><path class="cls-6" d="M468,89.52c-1.07,1.07-2.47,1.6-3.86,1.61-1.39,0-2.79-.54-3.85-1.6l-6.03-6.04c-.25-.25-.47-.52-.66-.8l7.55-7.55c.29,.19,.55,.4,.81,.65l6.03,6.03c2.13,2.13,2.13,5.58,0,7.7Z"/><path class="cls-6" d="M450.04,13.45l-7.56,7.56c-.29-.19-.55-.42-.81-.67l-6.03-6.03c-2.13-2.13-2.13-5.59,0-7.71,2.13-2.13,5.58-2.13,7.71,0l6.03,6.03c.25,.25,.48,.52,.66,.82Z"/><path class="cls-6" d="M455.94,102.37c-1.06,1.06-2.46,1.6-3.85,1.6-1.39,0-2.79-.54-3.85-1.6l-6.04-6.04c-.25-.25-.47-.52-.65-.8l7.55-7.55c.29,.18,.55,.4,.8,.65l6.04,6.04c2.13,2.13,2.13,5.58,0,7.71Z"/><path class="cls-6" d="M437.43,26.05l-7.51,7.51c-.35-.21-.66-.46-.96-.76l-6.04-6.04c-2.12-2.12-2.13-5.56,0-7.7,2.13-2.13,5.58-2.13,7.71,0l6.03,6.03c.29,.29,.55,.62,.76,.96Z"/><path class="cls-6" d="M424.86,38.63l-7.51,7.51c-.34-.22-.66-.46-.96-.76l-6.04-6.04c-2.13-2.13-2.13-5.58,0-7.71s5.58-2.13,7.71,0l6.04,6.04c.29,.29,.54,.62,.76,.96Z"/><path class="cls-6" d="M412.28,51.2l-7.51,7.51c-.33-.21-.65-.47-.95-.76l-6.04-6.04c-2.13-2.12-2.13-5.57,0-7.71,2.13-2.13,5.58-2.13,7.71,0l6.04,6.04c.29,.29,.55,.61,.76,.96Z"/></g><path class="cls-3" d="M494.16,43.04l-57.18,57.18-15.82,3.98-.09,.09-24.97-24.97,.09-.09,3.99-15.81L457.37,6.24s24.63,8.52,26.42,10.3c1.81,1.75,10.37,26.5,10.37,26.5Z"/><path class="cls-2" d="M483.79,16.55c-1.79-1.79-26.42-10.3-26.42-10.3,0,0,18.4,8.03,19.62,9.26,1.81,1.75,10.37,26.5,10.37,26.5l-57.18,57.18-9.11,5.12h0l.09-.09,15.82-3.98,57.18-57.18s-8.56-24.74-10.37-26.5Z"/><path class="cls-4" d="M302.81,230c9.38,53.22-6.97,173.07-57.32,223.42-60.8,60.8-139.83,50.96-194.65-3.87-54.81-54.81-64.67-133.85-3.87-194.65,50.39-50.38,170.37-66.73,223.54-57.29l.93,.97-52,49.93-.02,.14c-12.84-2.46-26.64,1.28-36.58,11.21-15.94,15.93-15.94,41.77,0,57.7,15.93,15.93,41.76,15.93,57.69,0,9.94-9.94,13.68-23.73,11.21-36.58l.14-.02,49.9-51.97,1.04,1Zm-131.53,148.26c1.49-1.48,1.49-3.9,0-5.39l-43.75-43.75c-1.49-1.48-3.9-1.48-5.39,0-1.49,1.49-1.49,3.91,0,5.39l43.75,43.75c.74,.75,1.72,1.12,2.69,1.12s1.96-.37,2.7-1.12Z"/><path class="cls-7" d="M302.81,229.97l-1.04-1-8.28,8.63c4.16,58.41-13.53,161.44-59.25,207.16-52.74,52.74-119.2,52.32-171.68,15.49,53.96,45.12,126.34,49.73,182.92-6.86,50.35-50.35,66.7-170.2,57.32-223.42Z"/><path class="cls-1" d="M251.77,281.32l-.04-.33c-1.48-7.74-5.22-15.13-11.21-21.12-5.99-5.99-13.37-9.73-21.11-11.21l-.49-.05,52.51-50.02,124.66-119.25,24.97,24.97-169.29,177.02Z"/><path class="cls-5" d="M171.28,372.87c1.49,1.49,1.49,3.91,0,5.39-.74,.75-1.72,1.12-2.7,1.12s-1.95-.37-2.69-1.12l-43.75-43.75c-1.49-1.48-1.49-3.9,0-5.39,1.49-1.48,3.9-1.48,5.39,0l43.75,43.75Z"/></g></svg>