<?xml version="1.0" encoding="UTF-8"?><svg id="Expanded_copy" xmlns="http://www.w3.org/2000/svg" viewBox="0 0 500 500"><defs><style>.cls-1{fill:#efefef;}</style></defs><path class="cls-1" d="M493.54,60.03l-5.87-5.87c-.26-.26-.54-.48-.84-.66l5.62-5.62c.73-.73,.98-1.83,.64-2.81-5.85-16.58-9.58-25.71-11.02-27.11-1.8-1.82-15.72-6.98-27.08-10.99-.98-.34-2.07-.1-2.81,.64l-5.64,5.64c-.2-.33-.43-.65-.72-.94l-5.87-5.87c-1.9-1.9-4.97-1.9-6.87,0-1.9,1.9-1.9,4.97,0,6.87l5.87,5.87c.29,.29,.61,.52,.94,.72l-5.79,5.79c-.22-.39-.47-.76-.8-1.09l-5.87-5.88c-1.9-1.9-4.97-1.9-6.87,0-1.9,1.9-1.9,4.97,0,6.87l5.87,5.88c.33,.33,.71,.58,1.09,.8l-5.83,5.83c-.22-.39-.47-.76-.8-1.09l-5.87-5.87c-1.9-1.9-4.97-1.9-6.87,0-1.9,1.9-1.9,4.97,0,6.87l5.87,5.87c.33,.33,.7,.58,1.09,.8l-5.83,5.83c-.22-.39-.47-.76-.8-1.09l-5.87-5.87c-1.9-1.9-4.97-1.9-6.87,0-1.9,1.9-1.9,4.97,0,6.87l5.87,5.87c.33,.33,.7,.58,1.09,.8l-6.29,6.29c-.35,.35-.6,.79-.71,1.27l-3.45,14.15-121.16,116.33c-.08-.02-.16-.05-.24-.07-27.92-4.95-72.2-2.53-112.8,6.18-49.01,10.51-88.44,28.73-111.04,51.33-29.2,29.2-43.66,64.01-41.83,100.68,1.71,34.16,17.93,68.24,45.66,95.97s61.81,43.94,95.97,45.66c2.07,.1,4.14,.15,6.2,.15,34.38,0,66.94-14.43,94.48-41.98,22.58-22.58,40.81-61.98,51.31-110.94,8.71-40.56,11.15-84.83,6.22-112.78-.02-.12-.06-.24-.1-.35l116.34-121.17,14.15-3.45c.48-.12,.92-.36,1.27-.71l6.21-6.21c.17,.25,.35,.48,.57,.7l5.87,5.87c.95,.95,2.19,1.42,3.43,1.42s2.49-.47,3.43-1.42c1.9-1.9,1.9-4.97,0-6.87l-5.87-5.87c-.22-.22-.45-.4-.7-.57l5.66-5.66c.17,.25,.35,.48,.57,.7l5.88,5.87c.95,.95,2.19,1.42,3.43,1.42s2.49-.47,3.44-1.42c1.9-1.9,1.9-4.97,0-6.87l-5.88-5.87c-.22-.22-.45-.4-.7-.57l5.66-5.66c.17,.24,.35,.48,.57,.7l5.87,5.88c.95,.95,2.19,1.42,3.44,1.42s2.49-.47,3.43-1.42c1.9-1.9,1.9-4.97,0-6.87l-5.87-5.88c-.22-.22-.45-.4-.7-.57l5.68-5.68c.19,.3,.41,.58,.66,.84l5.87,5.87c.95,.95,2.19,1.42,3.43,1.42s2.49-.47,3.43-1.42c1.9-1.9,1.9-4.97,0-6.87Zm-200,280.92c-10.29,47.96-28,86.4-49.85,108.26-27.04,27.04-58.97,40.51-91.29,40.51-33.89,0-68.21-14.82-97.73-44.34-57.67-57.68-59.21-133.64-3.83-189.02,21.87-21.87,60.35-39.58,108.35-49.87,38.24-8.2,79.65-10.75,107.06-6.73l-47.51,45.61c-13.14-2.03-27.04,1.99-37.14,12.09-16.81,16.81-16.81,44.17,0,60.98,8.14,8.14,18.97,12.63,30.49,12.63s22.34-4.48,30.49-12.63c10.1-10.1,14.12-24,12.09-37.14l45.62-47.51c4.03,27.44,1.46,68.9-6.75,107.16Zm-54.77-26.33c-7.12,7.12-16.6,11.05-26.67,11.05s-19.55-3.92-26.67-11.05c-14.71-14.71-14.71-38.64,0-53.34,7.35-7.35,17.01-11.03,26.67-11.03s19.32,3.68,26.67,11.03c14.71,14.71,14.71,38.64,0,53.34Zm14.45-39.59c-2.01-6.43-5.54-12.48-10.63-17.57-5.08-5.08-11.13-8.62-17.56-10.63L394.54,84.06l21.45,21.44-162.77,169.52ZM433.41,99.27l-12.89,3.14-22.89-22.89,3.14-12.89,54.01-54.01c10.4,3.7,21.45,7.93,23.43,9.16,1.25,1.99,5.49,13.06,9.2,23.48l-54.01,54.01Z"/><path class="cls-1" d="M127.96,328.73c-1.05-1.05-2.76-1.05-3.82,0-1.05,1.05-1.05,2.76,0,3.82l43.35,43.35c.53,.53,1.22,.79,1.91,.79s1.38-.26,1.91-.79c1.05-1.05,1.05-2.76,0-3.82l-43.35-43.35Z"/></svg>