<?xml version="1.0" encoding="UTF-8"?><svg id="Cor" xmlns="http://www.w3.org/2000/svg" viewBox="0 0 500 500"><defs><style>.cls-1{fill:#602e14;}.cls-2{fill:#351d03;}.cls-3{fill:#daae71;}.cls-4{fill:#191817;}.cls-5{fill:#bb895c;}.cls-6{fill:#d9e3e9;}.cls-7{fill:#512512;}</style></defs><path class="cls-4" d="M239.94,289.7c1.52,10.54-1.78,21.66-9.9,29.78-8.59,8.59-20.52,11.78-31.6,9.58-6.56-1.29-12.82-4.49-17.91-9.58-5.16-5.15-8.37-11.52-9.64-18.18-2.09-11.01,1.12-22.82,9.64-31.33,7.69-7.69,18.08-11.06,28.11-10.09,7.81,.74,15.42,4.11,21.4,10.09,5.56,5.55,8.85,12.51,9.9,19.73Z"/><path class="cls-3" d="M242.63,373.49l1.11,.37c-3.03,9.02-4.81,19.04-6.88,29.76-5.76,29.85-18.17,55.78-48.11,76.96-31.58,22.33-83.72,23.41-137.68-30.69C-4.03,395.61-3.03,343.01,19.43,311.26c21.18-29.94,47.1-42.36,76.96-48.11,10.73-2.07,20.74-3.84,29.76-6.88l.37,1.11,43.99,43.98,.38-.06c1.27,6.66,4.48,13.03,9.64,18.18,5.09,5.09,11.35,8.28,17.91,9.58l-.04,.2,44.23,44.23Zm-92.31,60.69c1.32-2.81,1.32-6.33-.82-8.46-25.07-25.08-50.14-50.15-75.22-75.22-2.13-2.14-5.66-2.14-8.46-.83-2.69,1.24-3.51,4.64-1.93,7.57,19.94,31.94,46.91,58.92,78.85,78.85,2.94,1.57,6.33,.76,7.56-1.93Z"/><path class="cls-3" d="M492.02,47.69l-10.72,10.73s-.01,0-.01,0l-1.11,1.11-7.01,7.01-.96,.96s-.01,.01,0,.01l-18.65,18.63-1.11,1.11-7.03,7.03-.96,.96s-.01,.01,0,.01l-8.79,8.78-21.5,8.71-.22,.08-13.4-13.4c-.94-.95-11.99-12-13.39-13.4l8.8-21.7,8.82-8.82,.93-.93,7.01-7.01,20.71-20.71,7.03-7.03,1.12-1.12,10.72-10.72s15.33-10.2,32.57,7.07c17.34,17.26,7.13,32.63,7.13,32.63Z"/><path class="cls-5" d="M484.88,15.05c-6.1-6.11-11.96-8.78-16.99-9.67,3.34,1.55,6.9,3.96,10.54,7.61,17.34,17.26,7.13,32.63,7.13,32.63l-10.72,10.73s-.01,0-.01,0l-1.11,1.11-7.01,7.01-.96,.96s-.01,.01,0,.01l-18.65,18.63-1.11,1.11-7.03,7.03-.96,.96s-.01,.01,0,.01l-8.79,8.78-15.25,10.87h0l.22-.09,21.5-8.72,8.79-8.78s0-.01,0-.01l.96-.96,7.03-7.03,1.11-1.11,18.65-18.63s0-.01,0-.01l.96-.96,7.01-7.01,1.11-1.11s.01-.01,.01,0l10.72-10.73s10.21-15.37-7.13-32.63Z"/><path class="cls-2" d="M413.97,112.82l-109.09,111.79-63.89,65.08h-1.05c-1.04-7.21-4.34-14.17-9.9-19.72-5.98-5.98-13.59-9.35-21.4-10.09l1.68-.87,65.08-63.88,111.78-109.1s12.46,12.45,13.39,13.4c.67,.67,13.4,13.4,13.4,13.4Z"/><path class="cls-1" d="M274.7,194.4l.71,.72-65.08,63.88-1.68,.87c-10.04-.97-20.42,2.4-28.11,10.09-8.52,8.51-11.73,20.32-9.64,31.33l-.38,.06-43.99-43.98-.37-1.11c16.1-5.38,28.96-14.72,36.8-36.67,12.96-36.34,59.43-72.03,111.74-25.2Z"/><path class="cls-1" d="M305.61,225.32c46.83,52.31,11.14,98.78-25.2,111.74-21.95,7.82-31.29,20.7-36.67,36.8l-1.11-.37-44.23-44.23,.04-.2c11.08,2.21,23.01-.99,31.6-9.58,8.12-8.12,11.42-19.24,9.9-29.78h1.05l63.89-65.09,.72,.71Z"/><path class="cls-6" d="M489.74,75.95c-1.26,1.27-2.92,1.89-4.56,1.89s-3.3-.62-4.57-1.88l-8-8.02c-.14-.14-.27-.28-.39-.43-.01,0,0-.01,0-.01l.96-.96,7.01-7.01,1.11-1.11s.01-.01,.01,0c.15,.12,.29,.25,.43,.39l8,8.02c2.52,2.52,2.52,6.61,0,9.12Z"/><path class="cls-6" d="M462,103.68c-1.26,1.26-2.9,1.89-4.56,1.89s-3.3-.63-4.56-1.89l-8.02-8c-.14-.14-.27-.28-.39-.43-.01,0,0-.01,0-.01l.96-.96,7.03-7.03,1.11-1.11c.15,.13,.29,.26,.43,.4l8,8c2.53,2.53,2.53,6.62,0,9.13Z"/><path class="cls-6" d="M441.6,18.71l-1.12,1.12-7.03,7.03-.93,.93c-.18-.14-.36-.3-.52-.46l-8.02-8.02c-2.52-2.52-2.52-6.61,0-9.12,2.53-2.52,6.61-2.52,9.13,0l8,8c.17,.17,.32,.34,.46,.53Z"/><path class="cls-6" d="M413.88,46.43l-1.13,1.13-7.01,7.01-.93,.93c-.18-.14-.36-.29-.53-.46l-8-8c-2.53-2.52-2.53-6.61,0-9.13,2.52-2.52,6.61-2.52,9.12,0l8.02,8.02c.16,.16,.32,.33,.46,.52Z"/><path class="cls-2" d="M149.5,425.73c2.14,2.13,2.14,5.65,.82,8.46-1.24,2.69-4.63,3.5-7.56,1.93-31.94-19.94-58.92-46.91-78.85-78.85-1.58-2.94-.76-6.34,1.93-7.57,2.8-1.31,6.33-1.31,8.46,.83,25.08,25.07,50.15,50.14,75.22,75.22Z"/><path class="cls-7" d="M280.41,337.06c-21.95,7.82-31.29,20.7-36.67,36.8l-.1-.03-1.01-.33-8.06-8.06,.58-1.78c5.38-16.1,14.72-28.97,36.67-36.8,34.08-12.16,67.62-53.83,32.94-102.13l.12-.13,.72,.71c4.5,5.02,8.24,10,11.29,14.89,.33,.55,.67,1.09,.99,1.64,.32,.54,.63,1.08,.95,1.61,.3,.54,.6,1.09,.88,1.62,.25,.46,.49,.93,.73,1.39,.23,.44,.45,.88,.66,1.32,.23,.44,.43,.88,.63,1.33,.34,.74,.68,1.48,.99,2.22,17.57,41.11-12.16,74.96-42.32,85.72Z"/><path class="cls-5" d="M242.73,373.62l-8.06-8.06c-2.69,8.55-4.37,17.97-6.29,27.98-5.76,29.85-18.17,55.78-48.11,76.96-31.58,22.33-83.72,23.41-137.68-30.68-3.11-3.07-6.03-6.12-8.78-9.17,5.01,6.37,10.76,12.79,17.3,19.24,53.97,54.1,106.11,53.01,137.68,30.69,29.94-21.18,42.36-47.11,48.11-76.96,2.06-10.67,3.83-20.67,6.84-29.66l-1.01-.33Z"/></svg>