<?xml version="1.0" encoding="UTF-8"?><svg id="Expanded_copy" xmlns="http://www.w3.org/2000/svg" viewBox="0 0 500 500"><defs><style>.cls-1{fill:#efefef;}</style></defs><path class="cls-1" d="M484.29,15.67c-18.38-18.41-35.41-7.44-35.58-7.33-.15,.1-.28,.21-.41,.33l-10.4,10.4c-.25-.4-.54-.78-.88-1.12l-7.19-7.19c-2.49-2.49-6.54-2.49-9.03,0-2.49,2.49-2.49,6.54,0,9.03l7.19,7.19c.35,.35,.72,.63,1.12,.88l-18.64,18.64c-.25-.4-.54-.78-.88-1.12l-7.19-7.19c-2.49-2.49-6.54-2.49-9.03,0-2.49,2.49-2.49,6.54,0,9.03l7.19,7.19c.35,.35,.72,.63,1.12,.88l-9.1,9.1c-.25,.25-.45,.55-.58,.88l-8.12,20.02c-.1,.07-.2,.14-.29,.23l-108.45,106.45c-26.69-23.33-49.91-23.82-64.77-20.05-21.48,5.46-40.68,23.92-48.93,47.04-11.16,31.28-33.07,35.47-60.81,40.78l-3.02,.58c-34.73,6.69-58.73,21.7-77.8,48.67-22.06,31.18-25.34,84.49,31.58,140.55,33.03,33.11,65.04,45.43,92.08,45.42,18.64,0,34.92-5.85,47.54-14.78,26.97-19.07,41.98-43.07,48.67-77.8l.58-3.02c5.31-27.74,9.5-49.65,40.78-60.81,23.12-8.25,41.58-27.45,47.04-48.93,3.78-14.86,3.29-38.08-20.05-64.77l106.45-108.45c.09-.09,.16-.19,.23-.29l20.02-8.12c.33-.13,.63-.33,.88-.58l9.07-9.07c.23,.34,.49,.67,.79,.97l7.19,7.19c1.25,1.25,2.88,1.87,4.52,1.87s3.27-.62,4.52-1.87c2.49-2.49,2.49-6.54,0-9.03l-7.19-7.19c-.3-.3-.63-.56-.97-.79l18.58-18.58c.23,.34,.49,.67,.79,.97l7.19,7.19c1.25,1.25,2.88,1.87,4.52,1.87s3.27-.62,4.52-1.87c2.49-2.49,2.49-6.54,0-9.03l-7.19-7.19c-.3-.3-.63-.56-.97-.79l10.37-10.37c.12-.12,.24-.26,.33-.41,.11-.17,11.11-17.24-7.38-35.63ZM166.44,220.78c7.67-21.49,25.42-38.64,45.23-43.67,19.36-4.92,39.95,1.52,59.65,18.63l-62.39,61.24s-.03,.04-.05,.06c-1.01-.08-2.03-.13-3.06-.13-9.96,0-19.33,3.88-26.37,10.92-7.03,7.03-10.9,16.36-10.92,26.3l-36.69-36.69c14.88-5.72,27.07-15.56,34.6-36.66Zm16.77,96.03c-6.04-6.04-9.37-14.07-9.37-22.61s3.33-16.57,9.37-22.61c6.04-6.04,14.07-9.36,22.61-9.36s16.57,3.33,22.61,9.36c6.04,6.04,9.36,14.07,9.36,22.61s-3.33,16.57-9.36,22.61c-6.04,6.04-14.07,9.36-22.61,9.36s-16.57-3.33-22.61-9.36Zm51.81,81.59l-.58,3.02c-6.41,33.28-20.76,56.24-46.52,74.46-29.14,20.61-79.32,23.54-132.8-30.08C.56,392.06,3.34,341.49,24.14,312.1c18.22-25.76,41.19-40.11,74.46-46.52l3.02-.58c8.65-1.66,16.94-3.25,24.63-5.63l43.23,43.23c1.55,6.75,4.95,12.95,9.97,17.97,5.02,5.02,11.22,8.42,17.97,9.97l43.23,43.23c-2.39,7.69-3.98,15.98-5.63,24.63Zm87.89-110.05c-5.04,19.81-22.18,37.56-43.67,45.23-21.1,7.53-30.94,19.72-36.66,34.6l-36.69-36.69c9.93-.02,19.27-3.9,26.3-10.92,7.04-7.04,10.92-16.41,10.92-26.37,0-1.03-.05-2.05-.13-3.06,.02-.02,.04-.03,.06-.05l61.24-62.39c17.1,19.7,23.55,40.29,18.63,59.65Zm-81.02-3.68c-1.66-6.31-4.96-12.11-9.69-16.84-4.74-4.74-10.53-8.04-16.84-9.69L385.42,91.19l23.4,23.4-166.94,170.08ZM487.36,48.17l-55.13,55.13-19.33,7.84-24.02-24.02,7.84-19.33,55.12-55.12c1.69-.99,14.34-7.59,28.68,6.78,14.49,14.42,7.88,26.97,6.83,28.73Z"/><path class="cls-1" d="M76.23,349.39c-2.12-2.11-5.6-2.12-8.37-.81-2.66,1.22-3.46,4.58-1.9,7.49,19.72,31.6,46.4,58.28,78,78,2.91,1.56,6.26,.76,7.49-1.9,1.31-2.77,1.3-6.26-.81-8.37l-74.4-74.4Z"/></svg>