<?xml version="1.0" encoding="UTF-8"?><svg id="Expanded_copy" xmlns="http://www.w3.org/2000/svg" viewBox="0 0 500 500"><defs><style>.cls-1{fill:#efefef;}</style></defs><path class="cls-1" d="M197.03,338.34l-35.39-35.39c-1-1-2.62-1-3.61,0s-1,2.62,0,3.61l35.39,35.39c.5,.5,1.15,.75,1.81,.75s1.31-.25,1.81-.75c1-1,1-2.62,0-3.61Z"/><path class="cls-1" d="M488.44,28.06c6.85-6.85,8.59-15.84,3.96-20.47-4.63-4.63-13.62-2.89-20.47,3.96-.03,.03-.06,.06-.09,.09-1.65-.6-3.43-.88-5.23-.84-3.85,.1-7.5,1.68-10.26,4.45-1.22,1.22-2.21,2.61-2.95,4.14-2.34,4.83-1.89,10.41,1.01,14.54l-13.5,12.9-5.27-5.27c-1.22-1.22-3.21-1.22-4.43,0l-.25,.25c-1.22,1.22-1.22,3.21,0,4.43l5.16,5.16-4.84,4.63-5.47-5.47c-1.22-1.22-3.21-1.22-4.43,0l-.25,.25c-1.22,1.22-1.22,3.21,0,4.43l5.36,5.36-103.25,98.63c-.15,.07-.3,.15-.44,.25-13.5,9.74-32.07,5.54-47,2.17-4.77-1.08-9.28-2.1-13.07-2.51-.99-.11-2.05-.24-3.16-.37-12.18-1.48-32.56-3.95-54.07,11.15-18.96,13.31-35.58,41.4-36.28,42.59-.57,.97-.44,2.2,.33,3.03,3.64,3.92,4.95,8.47,4.02,13.92-2.49,14.56-20.32,31.08-35.84,39.24-21.1,11.1-33.81-6.6-34.33-7.36-.66-.96-1.88-1.35-2.98-.95l-24.98,9.13c-.08,.03-.16,.07-.24,.1-2.19,1.07-53.78,26.77-67.86,76.29-11.82,41.57,24.43,83.52,38.18,97.54-11.34,12.11-16.95,18.11-16.95,18.11-.34,.36-.56,.81-.65,1.29-1.47,8.13-1.12,8.48-.2,9.4,.48,.48,.8,.81,2.13,.81,1.24,0,3.35-.29,7.28-1,.48-.09,.93-.31,1.29-.65,0,0,6-5.62,18.11-16.95,12.16,11.99,44.85,40.53,80.41,40.53,5.66,0,11.4-.72,17.13-2.36,49.52-14.08,75.22-65.67,76.29-67.86,.04-.08,.07-.16,.1-.24l9.13-24.98c.4-1.09,0-2.31-.94-2.98-.76-.53-18.46-13.24-7.36-34.34,8.16-15.51,24.68-33.35,39.24-35.84,5.45-.93,10,.38,13.92,4.02,.83,.77,2.06,.9,3.03,.33,1.19-.7,29.27-17.32,42.59-36.28,15.1-21.51,12.63-41.89,11.15-54.07-.13-1.11-.26-2.16-.37-3.16-.41-3.79-1.44-8.31-2.52-13.09-3.38-14.93-7.59-33.51,2.15-47,.07-.1,.12-.21,.18-.31,38.59-40.39,78.05-81.7,102.3-107.08l5.45,5.45c1.22,1.22,3.21,1.22,4.43,0l.25-.25c1.22-1.22,1.22-3.21,0-4.43l-5.56-5.56c1.63-1.71,3.18-3.32,4.63-4.84l5.24,5.24c1.22,1.22,3.21,1.22,4.43,0l.25-.25c1.22-1.22,1.22-3.21,0-4.43l-5.35-5.35c4.81-5.03,8.05-8.42,9.33-9.77,2.31,1.63,5.08,2.51,8.03,2.51,.13,0,.26,0,.39,0,3.85-.1,7.5-1.68,10.27-4.45,4.15-4.15,5.51-10.28,3.61-15.5l.09-.09ZM225.41,290.1l-9.75-9.75-5.78-5.78L411.72,81.76l6.5,6.51-192.81,201.84ZM35.49,467.17c-1.08,.19-2.21,.37-3.18,.51,.14-.97,.32-2.1,.51-3.18,2.76-2.95,16.56-17.7,41.75-44.6,22.04-23.54,27.67-36.48,31.03-44.21,.97-2.23,1.74-4,2.64-5.39,3.08-4.79,9.91-11.54,13.16-14.64l22.92,22.92c-3.1,3.25-9.85,10.09-14.64,13.16-1.39,.89-3.16,1.66-5.39,2.63-7.73,3.36-20.67,8.99-44.21,31.03-26.89,25.19-41.65,38.99-44.6,41.75ZM333.35,225.3c1.05,4.63,2.04,9.01,2.42,12.51,.11,1.02,.24,2.09,.38,3.22,1.48,12.19,3.72,30.61-10.26,50.51-10.95,15.59-33.37,30.1-39.45,33.87-4.79-3.77-10.42-5.12-16.77-4.04-16.17,2.77-34.17,21.9-42.9,38.49-11.09,21.09,2.56,35.47,7.4,39.66l-8.45,23.13c-1.35,2.68-26.75,51.92-73.04,65.08-38.99,11.08-78.74-23.3-92.41-36.76,6.37-5.96,14.12-13.22,23.31-21.82,22.89-21.44,35.32-26.85,42.75-30.08,2.45-1.06,4.38-1.9,6.12-3.02,6.93-4.45,16.9-15.34,17.32-15.8,.92-1.01,.89-2.56-.08-3.53l-26.42-26.42c-.97-.97-2.52-1-3.53-.08-.46,.42-11.35,10.39-15.8,17.32-1.12,1.74-1.96,3.67-3.02,6.12-3.23,7.43-8.64,19.86-30.08,42.75-8.6,9.18-15.86,16.94-21.82,23.31-13.32-13.61-47.79-53.6-36.76-92.41,13.14-46.23,62.39-71.68,65.08-73.04l23.12-8.45c4.19,4.84,18.56,18.49,39.66,7.4,16.6-8.73,35.73-26.73,38.49-42.9,1.09-6.35-.27-11.98-4.04-16.77,3.76-6.07,18.26-28.49,33.87-39.45,19.9-13.97,38.32-11.73,50.51-10.26,1.13,.14,2.21,.27,3.22,.38,3.5,.38,7.87,1.37,12.49,2.41,11.05,2.5,25.09,5.66,37.85,2.82l-108.06,103.23c-.5,.48-.78,1.13-.79,1.82s.26,1.35,.75,1.84l7.63,7.63,11.6,11.6c.48,.48,1.13,.75,1.81,.75h.04c.69-.01,1.35-.3,1.82-.81,.68-.72,49.68-52.02,103.17-108.01-2.81,12.75,.36,26.76,2.85,37.8Zm88.41-140.73l-6.34-6.34,41.34-39.49,4.49,4.49-39.49,41.34Zm61.85-59c-.92,.78-1.16,2.1-.59,3.17,1.95,3.59,1.17,8.24-1.89,11.3-1.84,1.84-4.25,2.88-6.79,2.95-2.47,.06-4.79-.83-6.47-2.51l-8.37-8.37c-2.66-2.66-3.28-6.88-1.53-10.5h0c.49-1.02,1.15-1.95,1.97-2.76,1.84-1.84,4.25-2.88,6.78-2.95,.08,0,.16,0,.25,0,1.52,0,2.99,.37,4.27,1.06,1.06,.57,2.38,.33,3.16-.59,.35-.41,.72-.81,1.13-1.22,5.07-5.07,11.05-6.15,13.25-3.96s1.11,8.18-3.96,13.25c-.41,.41-.81,.78-1.22,1.13Z"/><path class="cls-1" d="M161,273.73c6.53-6,11.37-6.92,14.28-6.64,3,.29,4.39,1.88,4.75,2.36,.67,.9,1.7,2.61,1.08,3.88-.36,.74-1.12,1.08-1.43,1.09-1.41,.05-2.52,1.23-2.47,2.64,.05,1.41,1.21,2.54,2.64,2.47,2.39-.08,4.75-1.67,5.86-3.97,.77-1.58,1.58-4.88-1.57-9.15-1.82-2.46-4.87-4.07-8.37-4.41-3.94-.38-10.31,.69-18.23,7.97-3.07,2.82-6.17,6.2-9.45,9.78-8.66,9.46-18.48,20.18-27.65,19.03-3.16-.4-5.44-3.46-5.58-6.08-.12-2.22,1.26-2.55,1.78-2.67,1.37-.33,2.22-1.71,1.89-3.08-.33-1.37-1.7-2.22-3.08-1.89-3.73,.89-5.91,3.93-5.69,7.93,.26,4.76,4.09,10.12,10.05,10.86,.68,.08,1.35,.13,2.02,.13,11,0,21.08-11,30.03-20.77,3.2-3.49,6.22-6.79,9.14-9.47Z"/><path class="cls-1" d="M233.58,315.84c-4.27-3.15-7.56-2.34-9.15-1.57-2.3,1.11-3.89,3.47-3.97,5.86-.04,1.41,1.06,2.59,2.47,2.64,1.42,.04,2.59-1.06,2.64-2.47,0-.31,.35-1.07,1.09-1.43,1.27-.62,2.98,.41,3.88,1.08,.48,.35,2.07,1.75,2.36,4.75,.28,2.91-.65,7.75-6.64,14.28-2.67,2.91-5.97,5.94-9.47,9.14-10.37,9.5-22.12,20.27-20.65,32.05,.74,5.95,6.11,9.78,10.86,10.05,.19,0,.37,.01,.55,.01,3.72,0,6.52-2.15,7.37-5.7,.33-1.37-.52-2.75-1.89-3.08-1.37-.33-2.75,.52-3.08,1.89-.12,.52-.45,1.88-2.67,1.78-2.62-.15-5.68-2.42-6.08-5.58-1.14-9.17,9.57-18.99,19.03-27.65,3.58-3.28,6.96-6.38,9.78-9.45,7.27-7.92,8.34-14.29,7.97-18.23-.34-3.5-1.94-6.55-4.41-8.37Z"/></svg>