<?xml version="1.0" encoding="UTF-8"?><svg id="Cor" xmlns="http://www.w3.org/2000/svg" viewBox="0 0 500 500"><defs><style>.cls-1{fill:#140701;}.cls-2{fill:#632800;}.cls-3{fill:#dccaa1;}.cls-4{fill:#4c1400;}.cls-5{fill:#d9e3e9;}</style></defs><g id="Contrabaixo"><path class="cls-2" d="M487.49,25.22c2.46,4.52,1.64,10.51-2.36,14.5-2.41,2.41-5.54,3.66-8.63,3.75-3.06,.08-6.09-.98-8.37-3.22l-.08-.08-8.05-8.05-.41-.41c-3.58-3.58-4.24-9.07-2.05-13.59,.61-1.26,1.44-2.44,2.49-3.5,2.4-2.4,5.53-3.66,8.63-3.75,2.05-.05,4.07,.41,5.87,1.39,.4-.47,.83-.93,1.28-1.39,5.82-5.82,13.47-7.61,17.08-4.01,3.6,3.61,1.81,11.26-4.01,17.08-.46,.46-.92,.88-1.39,1.28Z"/><path class="cls-5" d="M465.5,57.84c1.23,1.23,1.23,3.25,0,4.48l-.26,.26c-1.23,1.23-3.25,1.23-4.48,0l-6.61-6.62c-.18-.18-.33-.37-.46-.59l4.47-4.68c.26,.13,.51,.32,.72,.54l6.61,6.61Z"/><path class="cls-5" d="M456.39,67.79c1.23,1.23,1.23,3.25,0,4.48l-.25,.25c-1.24,1.23-3.25,1.23-4.48,0l-6.62-6.61c-.26-.26-.46-.55-.6-.86l4.35-4.55c.36,.16,.7,.38,.99,.67l6.61,6.62Z"/><path class="cls-5" d="M445.8,45.67l-4.73,4.51c-.18-.1-.34-.24-.49-.39l-6.61-6.61c-1.23-1.23-1.23-3.25,0-4.48l.26-.26c1.23-1.23,3.25-1.23,4.48,0l6.61,6.62c.19,.19,.34,.39,.48,.61Z"/><path class="cls-5" d="M435.99,55.05l-4.62,4.4c-.26-.14-.51-.32-.73-.55l-6.62-6.61c-1.23-1.23-1.23-3.25,0-4.48l.26-.26c1.23-1.23,3.25-1.23,4.48,0l6.61,6.61c.26,.27,.47,.57,.62,.89Z"/><path class="cls-1" d="M424.09,85.07l.64,.61c-23.79,24.88-54.44,56.98-84.53,88.49-57.99,60.7-113.87,119.18-114.3,119.65l-11.75-11.75-4.82-4.82-2.9-2.9,119.65-114.3,88.49-84.53,.61,.64,8.91,8.91Z"/><path class="cls-2" d="M340.16,236.88c1.35,12.29,5.6,33.32-10.45,56.18-13.12,18.68-41.46,35.49-42.29,35.98-.01,0-.03,0-.04,0-17.84-16.49-46.36,11.06-57.86,32.93-12.25,23.28,7.47,37.53,8.25,38.08,.01,.01,.02,.03,.01,.05l-7.03,19.24c-1.84,5.04-4.17,9.89-6.98,14.46-9.6,15.6-33.57,48.32-70.86,58.92-43.1,12.26-86.92-28.53-97.83-39.6l-.16-.18c6.79-6.36,15.3-14.31,25.55-23.92,30.64-28.69,43.04-29.43,49.85-33.81,6.61-4.25,16.44-14.93,17-15.54,.01-.02,.01-.04,0-.05l-26.7-26.69s-.04-.02-.05,0c-.61,.56-11.28,10.39-15.53,17-4.38,6.81-5.11,19.21-33.81,49.85-9.61,10.25-17.57,18.76-23.92,25.55l-.3-.27c-11.65-11.58-51.59-55.13-39.48-97.73,9.61-33.78,37.36-56.62,54.09-67.76,6.79-4.52,14.12-8.18,21.78-10.98l16.76-6.12s.03,0,.05,.01c.55,.78,14.81,20.49,38.08,8.25,21.87-11.51,49.42-40.03,32.93-57.86-.01-.01-.02-.02,0-.04,.49-.83,17.29-29.18,35.98-42.29,22.86-16.05,43.9-11.8,56.18-10.45,15.41,1.68,43.4,13.74,62.61-.13l.1,.1-119.62,114.27s-.02,.04,0,.06l2.87,2.87,4.82,4.82,11.72,11.72s.04,.02,.05,0c1.35-1.43,56.77-59.44,114.28-119.63l.07,.07c-13.86,19.21-1.78,47.23-.1,62.64Zm-109.64,106.24c7.36-8.02,8.45-14.47,8.06-18.47-.34-3.54-1.97-6.62-4.46-8.47-4.33-3.2-7.66-2.37-9.26-1.59-2.33,1.13-3.94,3.51-4.03,5.94-.04,1.43,1.08,2.62,2.5,2.67,1.42,.05,2.63-1.08,2.67-2.5,.01-.31,.35-1.09,1.11-1.45,1.28-.62,3.01,.41,3.93,1.1,.49,.35,2.09,1.76,2.38,4.8,.29,2.95-.65,7.85-6.73,14.47-2.7,2.94-6.04,6-9.58,9.25-10.5,9.62-22.4,20.51-20.91,32.46,.76,6.02,6.19,9.91,11,10.17,.19,.01,.37,.01,.56,.01,3.77,0,6.6-2.17,7.46-5.78,.34-1.39-.52-2.78-1.9-3.12-1.4-.34-2.79,.52-3.13,1.91-.12,.53-.47,1.93-2.7,1.79-2.65-.14-5.75-2.45-6.16-5.64-1.16-9.28,9.7-19.23,19.27-28.01,3.62-3.32,7.05-6.45,9.91-9.56Zm-32.68,.24c1.42-1.42,1.42-3.71,0-5.12l-35.67-35.67c-1.4-1.4-3.72-1.62-5.18-.27-1.53,1.41-1.56,3.77-.11,5.23l35.83,35.83c.7,.7,1.64,1.07,2.56,1.07s1.85-.36,2.57-1.07Zm-12.19-67.97c.78-1.6,1.6-4.94-1.59-9.26-1.84-2.49-4.93-4.12-8.47-4.46-4-.38-10.44,.7-18.47,8.06-3.12,2.86-6.24,6.28-9.56,9.91-8.78,9.57-18.72,20.43-28.01,19.27-3.2-.4-5.5-3.51-5.65-6.16-.12-2.25,1.27-2.58,1.8-2.7,1.4-.33,2.25-1.73,1.91-3.13-.33-1.39-1.73-2.25-3.12-1.9-3.78,.9-5.98,3.97-5.77,8.02,.27,4.81,4.15,10.25,10.17,11,.69,.08,1.38,.12,2.06,.12,11.13,0,21.34-11.14,30.4-21.03,3.25-3.54,6.31-6.88,9.25-9.58,6.62-6.08,11.53-7.02,14.47-6.73,3.03,.29,4.45,1.89,4.8,2.38,.68,.92,1.72,2.65,1.1,3.93-.36,.76-1.14,1.1-1.45,1.11-1.43,.04-2.55,1.24-2.5,2.67,.05,1.43,1.27,2.58,2.67,2.5,2.43-.08,4.81-1.7,5.94-4.03Z"/><g><path class="cls-4" d="M340.16,236.88c-1.68-15.41-13.76-43.43,.1-62.64l-.07-.07c-5.42,5.67-5.06,5.3-10.4,10.88-3.7,15.2-.44,37.27,.68,47.61,1.35,12.29,5.6,33.32-10.45,56.18-12.04,17.16-36.92,32.72-41.55,35.53,3.15,.63,6.16,2.12,8.9,4.66,.01,.01,.02,.02,.04,0,.83-.49,29.18-17.29,42.29-35.98,16.05-22.86,11.8-43.9,10.45-56.18Z"/><path class="cls-4" d="M235.74,336.07c-1.22,2.18-2.91,4.54-5.22,7.05-1.32,1.44-2.78,2.89-4.3,4.35-2.46,3.44-4.62,6.92-6.39,10.27-12.25,23.28,7.47,37.53,8.25,38.08,.01,.01,.02,.03,.01,.05l-7.03,19.24c-1.84,5.04-4.17,9.89-6.98,14.46-9.6,15.6-33.57,48.32-70.86,58.92-15.27,4.34-30.63,2.02-44.58-3.27,16.34,8.04,35.38,12.87,54.27,7.49,37.3-10.6,61.26-43.32,70.86-58.92,2.81-4.57,5.14-9.42,6.98-14.46l7.03-19.24s0-.03-.01-.05c-.78-.55-20.49-14.81-8.25-38.08,9.44-17.95,30.35-39.72,47.4-37.84-11.9-10-28.24-1.34-41.18,11.94Z"/></g><path d="M238.58,324.65c.38,4-.7,10.44-8.06,18.47-2.86,3.12-6.28,6.24-9.91,9.56-9.57,8.78-20.43,18.72-19.27,28.01,.4,3.19,3.51,5.5,6.16,5.64,2.24,.13,2.58-1.26,2.7-1.79,.33-1.4,1.73-2.26,3.13-1.91,1.39,.33,2.25,1.73,1.9,3.12-.86,3.6-3.7,5.78-7.46,5.78-.19,0-.37,0-.56-.01-4.81-.27-10.25-4.15-11-10.17-1.49-11.94,10.41-22.84,20.91-32.46,3.54-3.25,6.88-6.31,9.58-9.25,6.08-6.62,7.02-11.52,6.73-14.47-.29-3.04-1.89-4.45-2.38-4.8-.92-.68-2.65-1.72-3.93-1.1-.76,.36-1.1,1.14-1.11,1.45-.04,1.43-1.25,2.56-2.67,2.5-1.43-.05-2.55-1.24-2.5-2.67,.08-2.43,1.7-4.81,4.03-5.94,1.6-.78,4.94-1.6,9.26,1.59,2.49,1.84,4.12,4.93,4.46,8.47Z"/><path class="cls-3" d="M197.84,338.23c1.42,1.42,1.42,3.71,0,5.12-.71,.7-1.64,1.07-2.57,1.07s-1.85-.36-2.56-1.07l-35.83-35.83c-1.42-1.42-1.42-3.71,0-5.12s3.71-1.42,5.12,0l35.83,35.83Z"/><path d="M184.06,266.12c3.2,4.33,2.37,7.66,1.59,9.26-1.13,2.33-3.51,3.94-5.94,4.03-1.4,.07-2.62-1.08-2.67-2.5-.04-1.43,1.08-2.63,2.5-2.67,.31-.01,1.09-.35,1.45-1.11,.62-1.28-.41-3.01-1.1-3.93-.35-.49-1.77-2.09-4.8-2.38-2.94-.29-7.85,.65-14.47,6.73-2.94,2.7-6,6.04-9.25,9.58-9.06,9.9-19.27,21.03-30.4,21.03-.68,0-1.37-.04-2.06-.12-6.02-.76-9.91-6.19-10.17-11-.22-4.05,1.99-7.12,5.77-8.02,1.39-.34,2.78,.52,3.12,1.9,.33,1.4-.52,2.79-1.91,3.13-.53,.12-1.93,.46-1.8,2.7,.16,2.65,2.45,5.75,5.65,6.16,9.28,1.16,19.23-9.7,28.01-19.27,3.32-3.62,6.45-7.05,9.56-9.91,8.02-7.36,14.47-8.45,18.47-8.06,3.54,.34,6.62,1.97,8.47,4.46Z"/><path class="cls-1" d="M120.58,352.91l26.76,26.75s-10.22,11.19-17.03,15.57c-6.81,4.38-19.21,5.11-49.85,33.81-10.25,9.61-18.76,17.57-25.55,23.92-13.51,12.64-20.18,18.88-20.18,18.88,0,0-6.89,1.25-7.24,.91s.92-7.22,.92-7.22c0,0,6.24-6.68,18.88-20.18,6.36-6.79,14.31-15.3,23.92-25.55,28.69-30.64,29.43-43.04,33.81-49.85,4.38-6.81,15.56-17.03,15.56-17.03Z"/><path class="cls-2" d="M468.13,40.25c-.76,.79-4.29,4.48-9.97,10.43l-4.47,4.68c-1.53,1.6-3.17,3.31-4.91,5.13l-4.35,4.55c-5.79,6.04-12.42,13-19.71,20.63l-.64-.61-8.91-8.91-.61-.64,16.81-16.06,4.62-4.4,5.08-4.86,4.73-4.51,14.19-13.56,8.05,8.05,.08,.08Z"/><path class="cls-4" d="M488.89,23.94c5.54-5.54,7.41-12.72,4.48-16.52,.14,3.78-1.94,8.51-5.85,12.42-.46,.46-.92,.88-1.39,1.28,2.46,4.52,1.64,10.51-2.36,14.5-2.41,2.41-5.54,3.66-8.63,3.75-3.06,.08-6.09-.98-8.37-3.22l-.08-.08-8.05-8.05-.41-.41c-.74-.74-1.34-1.56-1.83-2.43,.33,2.42,1.39,4.72,3.2,6.53l.41,.41,8.05,8.05,.08,.08c2.29,2.24,5.31,3.3,8.37,3.22,3.09-.08,6.22-1.34,8.63-3.75,4-4,4.82-9.98,2.36-14.5,.47-.4,.93-.83,1.39-1.28Z"/><path class="cls-4" d="M468.05,40.17l-8.05-8.05-1.94,1.85,5.58,5.58,.08,.08c-.76,.79-4.29,4.48-9.97,10.43l-4.47,4.68c-1.53,1.6-3.17,3.31-4.91,5.13l-4.35,4.55c-5.29,5.53-11.31,11.83-17.87,18.71l1.93,1.93,.64,.61c7.29-7.63,13.92-14.58,19.71-20.63l4.35-4.55c1.74-1.82,3.37-3.53,4.91-5.13l4.47-4.68c5.68-5.95,9.21-9.65,9.97-10.43l-.08-.08Z"/></g></svg>