<?xml version="1.0" encoding="UTF-8"?><svg id="Expanded_copy" xmlns="http://www.w3.org/2000/svg" viewBox="0 0 500 500"><defs><style>.cls-1{fill:#efefef;}</style></defs><path class="cls-1" d="M407.96,52.27c-2.07-1.32-4.89-1.31-7.75,.03-45.9,21.56-92.98,8.75-138.52-3.64-46.45-12.64-94.49-25.71-142.14-3.33-1.11,.52-2.16,1.24-3.13,2.11V17.22c0-6.74-5.48-12.22-12.22-12.22h-2.83c-6.74,0-12.22,5.48-12.22,12.22V482.78c0,6.74,5.48,12.22,12.22,12.22h2.83c6.74,0,12.22-5.48,12.22-12.22V241.78c1.64,.26,3.49-.03,5.37-.91,45.9-21.56,92.98-8.75,138.52,3.64,28.13,7.66,56.84,15.47,85.7,15.47,18.79,0,37.65-3.31,56.44-12.14,4.63-2.17,8.39-7.89,8.4-12.75V58.08c0-2.56-1.02-4.62-2.89-5.81ZM111.16,482.78c0,3.84-3.12,6.96-6.96,6.96h-2.83c-3.84,0-6.96-3.12-6.96-6.96V17.22c0-3.84,3.12-6.96,6.96-6.96h2.83c3.84,0,6.96,3.12,6.96,6.96V482.78ZM405.58,235.09c0,2.81-2.61,6.69-5.36,7.98h0c-45.9,21.57-92.98,8.75-138.52-3.64-28.13-7.66-56.85-15.47-85.7-15.47-18.79,0-37.64,3.31-56.43,12.14-1.29,.61-2.27,.61-2.68,.36-.4-.26-.45-1.04-.45-1.36V58.08c0-2.81,2.61-6.69,5.37-7.98,45.9-21.56,92.98-8.75,138.52,3.64,46.45,12.64,94.49,25.72,142.14,3.33,1.29-.6,2.28-.61,2.68-.35,.4,.26,.45,1.04,.45,1.36V235.09Z"/></svg>