<?xml version="1.0" encoding="UTF-8"?><svg id="Cor" xmlns="http://www.w3.org/2000/svg" viewBox="0 0 500 500"><defs><style>.cls-1{fill:#8b2d19;}.cls-2{fill:#c59b6d;}.cls-3{fill:#772417;}.cls-4{fill:#ac8661;}.cls-5{fill:red;}</style></defs><g id="Estandarte"><path class="cls-1" d="M409.93,55.99V234.93c0,3.82-3.13,8.69-6.95,10.48-94.58,44.42-189.14-51.47-283.71-7.05-3.83,1.79-6.96,4.3-6.96,3.15V50.1c0-.89,3.14-2.8,6.96-4.59,94.56-44.42,189.13,51.47,283.71,7.05,3.82-1.79,6.95-.4,6.95,3.43Z"/><path class="cls-3" d="M116.99,46.65V239.54c-2.79,1.53-4.82,2.98-4.82,2.06V50.18c0-.72,2.03-2.1,4.82-3.54Z"/><path class="cls-3" d="M403.58,243.45c-94.58,44.42-189.78-59.67-284.34-15.25-3.83,1.79-6.96,4.3-6.96,3.15v10.22c0,1.15,3.13-1.36,6.96-3.15,94.57-44.42,187.38,51.39,283.71,7.05,3.19-1.47,4.55-3.88,5-4.68,.16-.29-.54,.87-4.36,2.66Z"/><path class="cls-5" d="M112.31,55.99c.01,59.65,.01,119.29,0,178.94V55.99Z"/><path class="cls-2" d="M112.31,234.93v250.37c0,5.33-4.36,9.7-9.69,9.7h-2.86c-5.33,0-9.69-4.37-9.69-9.7V14.69c0-5.32,4.36-9.69,9.69-9.69h2.86c5.33,0,9.69,4.37,9.69,9.69V234.93Z"/><path class="cls-4" d="M108.9,7.33c.34,.99,.54,2.04,.54,3.14V481.08c0,5.33-4.35,9.7-9.69,9.7h-2.86c-2.39,0-4.58-.88-6.28-2.33,1.31,3.8,4.92,6.55,9.15,6.55h2.86c5.33,0,9.69-4.37,9.69-9.7V14.69c0-2.94-1.33-5.58-3.41-7.36Z"/></g></svg>