<?xml version="1.0" encoding="UTF-8"?><svg id="Expanded_copy" xmlns="http://www.w3.org/2000/svg" viewBox="0 0 500 500"><defs><style>.cls-1{fill:#efefef;}</style></defs><path class="cls-1" d="M477.47,37.78l-15.26-15.26c-3.87-3.87-10.81-3.22-15.47,1.45l-17.82,17.82c-4.27,.75-8.37,2.76-11.66,6.06l-40.25,40.25c-3.3,3.3-5.31,7.39-6.06,11.67L113.35,357.38c-.34-.72-.79-1.39-1.38-1.97-1.31-1.31-3.06-2.03-4.92-2.03s-3.61,.72-4.92,2.03l-39.46,39.46c-1.32,1.32-2.04,3.07-2.03,4.91,0,.58,.07,1.14,.21,1.69-4.73-.57-9.61,.99-13.21,4.6-5.26,5.26-6.19,13.24-2.45,19.49l-21.06,21.06c-2.21,2.21-3.64,5-4.02,7.83-.41,3.04,.47,5.89,2.4,7.81l15.25,15.25c1.62,1.62,3.88,2.49,6.37,2.49,.48,0,.96-.03,1.45-.1,2.84-.38,5.62-1.81,7.83-4.02l43.14-43.14c2.6,1.94,5.69,2.92,8.79,2.92,3.77,0,7.54-1.44,10.41-4.31,5.23-5.23,5.68-13.44,1.38-19.2l4.95-4.95c2.6,1.94,5.69,2.92,8.79,2.92,3.77,0,7.54-1.44,10.41-4.31,5.23-5.23,5.68-13.44,1.38-19.2L399.86,129.42c.11-.11,.21-.23,.29-.36,4.3-.74,8.42-2.76,11.74-6.07l40.25-40.25c3.21-3.21,5.28-7.27,6.05-11.68,.05-.04,.1-.07,.15-.12l17.69-17.69c4.67-4.66,5.31-11.61,1.45-15.47ZM126.45,381.39l-14.32-14.32c-.27-.27-.56-.51-.86-.72L370.85,106.76c.65,4.52,2.69,8.87,6.16,12.34l3.89,3.89c3.47,3.47,7.82,5.5,12.34,6.16l-254.11,254.11c-3.77-2.56-8.46-3.19-12.68-1.87Zm-25.13,25.41l-14.2-14.2c-.35-.35-.74-.66-1.16-.93l14.55-14.55c.22,.3,.46,.59,.72,.86l14.76,14.76c.11,.11,.23,.2,.35,.3-.6,3.66,.18,7.49,2.34,10.67l-5.08,5.08c-3.65-2.48-8.17-3.15-12.28-1.99Zm-6.41,3.75c-.82,.82-1.51,1.71-2.09,2.66l-13.16-13.16c-.45-.45-.59-.99-.63-1.46l3.17-3.17c.42,.02,.99,.15,1.46,.62l13.01,13.02c-.62,.45-1.21,.93-1.77,1.49Zm25.53-25.53c-.91,.91-1.66,1.92-2.28,2.98l-13.48-13.48c-.32-.32-.48-.68-.57-1.01l3.57-3.57c.33,.09,.68,.25,1.01,.58l13.23,13.23c-.51,.39-1.01,.8-1.47,1.27Zm-54.32,13.29l39.46-39.46c.78-.78,2.17-.78,2.95,0,.39,.39,.6,.91,.6,1.49,0,.29-.06,.56-.18,.82-.12,.26-.18,.54-.2,.81l-39.51,39.51c-.27,.02-.54,.08-.79,.2-.79,.35-1.72,.19-2.33-.42-.39-.39-.6-.91-.6-1.49,0-.56,.21-1.08,.6-1.47Zm-15.04,11.2c3.29-3.29,8.3-4.11,12.42-2.28l-14.7,14.7c-1.83-4.12-1.01-9.13,2.28-12.42Zm-1.13,62.93c-1.44,1.44-3.27,2.4-5.03,2.63-.89,.12-2.57,.15-3.72-1.01l-15.25-15.25c-1.16-1.16-1.13-2.83-1.01-3.72,.23-1.76,1.19-3.59,2.63-5.03l47.72-47.72c.27,.42,.57,.81,.93,1.16l14.53,14.53s.09,.08,.13,.12c-.73,3.78,.04,7.79,2.28,11.09l-43.21,43.21Zm62.34-44.52c-3.84,3.84-10.09,3.84-13.93,0-3.84-3.84-3.84-10.09,0-13.93,1.92-1.92,4.44-2.88,6.96-2.88s5.04,.96,6.96,2.88c3.84,3.84,3.84,10.09,0,13.93Zm25.53-25.53c-3.84,3.84-10.09,3.84-13.93,0-3.84-3.84-3.84-10.09,0-13.93,1.92-1.92,4.44-2.88,6.96-2.88s5.04,.96,6.96,2.88c3.84,3.84,3.84,10.09,0,13.93ZM448.7,79.29l-40.25,40.25c-6.65,6.64-17.46,6.64-24.1,0l-3.89-3.89c-6.64-6.64-6.64-17.46,0-24.1l40.25-40.25c3.32-3.32,7.69-4.98,12.05-4.98s8.73,1.66,12.05,4.98l3.89,3.89c6.64,6.65,6.64,17.46,0,24.1Zm23.88-29.49l-14.29,14.29c-.66-4.67-2.77-8.97-6.15-12.35l-3.89-3.89c-3.47-3.47-7.82-5.5-12.34-6.16l14.28-14.28c2.72-2.72,6.65-3.38,8.58-1.45l15.26,15.26c1.93,1.93,1.27,5.86-1.45,8.58Z"/><path class="cls-1" d="M425.39,61.49c-3.52,0-6.81,1.36-9.29,3.83l-21.63,21.63c-5.12,5.12-5.12,13.45,0,18.57,2.47,2.47,5.77,3.83,9.29,3.83s6.81-1.36,9.29-3.83l21.63-21.63c5.12-5.12,5.12-13.45,0-18.57-2.47-2.47-5.77-3.83-9.29-3.83Zm5.84,18.96l-21.63,21.63c-1.55,1.55-3.63,2.41-5.84,2.41s-4.29-.85-5.84-2.41c-1.55-1.55-2.41-3.63-2.41-5.84s.85-4.29,2.41-5.84l21.63-21.63c1.55-1.55,3.62-2.41,5.84-2.41s4.29,.85,5.84,2.41,2.41,3.63,2.41,5.84-.85,4.29-2.41,5.84Z"/><path class="cls-1" d="M178.66,304.03c-4.73,4.73-4.73,12.42,0,17.15,2.36,2.36,5.47,3.55,8.58,3.55s6.21-1.18,8.58-3.55c4.73-4.73,4.73-12.42,0-17.15-4.73-4.73-12.42-4.73-17.15,0Zm13.71,13.71c-2.83,2.83-7.43,2.83-10.26,0s-2.83-7.43,0-10.26c1.41-1.41,3.27-2.12,5.13-2.12s3.72,.71,5.13,2.12c2.83,2.83,2.83,7.43,0,10.26Z"/><path class="cls-1" d="M209.77,277.95c-3.24,0-6.29,1.26-8.58,3.55-2.29,2.29-3.55,5.34-3.55,8.58s1.26,6.29,3.55,8.58c2.36,2.36,5.47,3.55,8.58,3.55s6.21-1.18,8.58-3.55c4.73-4.73,4.73-12.43,0-17.15-2.29-2.29-5.34-3.55-8.58-3.55Zm5.13,17.26c-2.83,2.83-7.43,2.83-10.26,0-1.37-1.37-2.12-3.19-2.12-5.13s.75-3.76,2.12-5.13c1.37-1.37,3.19-2.12,5.13-2.12s3.76,.75,5.13,2.12c2.83,2.83,2.83,7.43,0,10.26Z"/><path class="cls-1" d="M133.59,349.1c-4.73,4.73-4.73,12.42,0,17.15,2.36,2.36,5.47,3.55,8.58,3.55s6.21-1.18,8.58-3.55c4.73-4.73,4.73-12.42,0-17.15-4.73-4.73-12.42-4.73-17.15,0Zm13.71,13.71c-2.83,2.83-7.43,2.83-10.26,0s-2.83-7.43,0-10.26c1.41-1.41,3.27-2.12,5.13-2.12s3.72,.71,5.13,2.12c2.83,2.83,2.83,7.43,0,10.26Z"/><path class="cls-1" d="M164.7,323.02c-3.24,0-6.29,1.26-8.58,3.55-2.29,2.29-3.55,5.34-3.55,8.58s1.26,6.29,3.55,8.58c2.36,2.36,5.47,3.55,8.58,3.55s6.21-1.18,8.58-3.55c4.73-4.73,4.73-12.43,0-17.15-2.29-2.29-5.34-3.55-8.58-3.55Zm5.13,17.26c-2.83,2.83-7.43,2.83-10.26,0-1.37-1.37-2.12-3.19-2.12-5.13s.75-3.76,2.12-5.13,3.19-2.12,5.13-2.12,3.76,.75,5.13,2.12c2.83,2.83,2.83,7.43,0,10.26Z"/><path class="cls-1" d="M223.73,258.96c-4.73,4.73-4.73,12.42,0,17.15,2.36,2.36,5.47,3.55,8.58,3.55s6.21-1.18,8.58-3.55c4.73-4.73,4.73-12.42,0-17.15-4.73-4.73-12.42-4.73-17.15,0Zm13.71,13.71c-2.83,2.83-7.43,2.83-10.26,0-2.83-2.83-2.83-7.43,0-10.26,1.41-1.41,3.27-2.12,5.13-2.12s3.72,.71,5.13,2.12c2.83,2.83,2.83,7.43,0,10.26Z"/><path class="cls-1" d="M246.26,236.43c-2.29,2.29-3.55,5.34-3.55,8.58s1.26,6.29,3.55,8.58c2.36,2.36,5.47,3.55,8.58,3.55s6.21-1.18,8.58-3.55c4.73-4.73,4.73-12.43,0-17.15-4.73-4.73-12.43-4.73-17.15,0Zm13.71,13.71c-2.83,2.83-7.43,2.83-10.26,0-1.37-1.37-2.12-3.19-2.12-5.13s.75-3.76,2.12-5.13c1.41-1.41,3.27-2.12,5.13-2.12s3.72,.71,5.13,2.12c2.83,2.83,2.83,7.43,0,10.26Z"/><path class="cls-1" d="M268.8,213.9c-4.73,4.73-4.73,12.43,0,17.15,2.36,2.36,5.47,3.55,8.58,3.55s6.21-1.18,8.58-3.55c4.73-4.73,4.73-12.42,0-17.15-4.73-4.73-12.42-4.73-17.15,0Zm13.71,13.71c-2.83,2.83-7.43,2.83-10.26,0-2.83-2.83-2.83-7.43,0-10.26,1.41-1.41,3.27-2.12,5.13-2.12s3.72,.71,5.13,2.12c2.83,2.83,2.83,7.43,0,10.26Z"/><path class="cls-1" d="M299.91,187.81c-3.24,0-6.29,1.26-8.58,3.55-2.29,2.29-3.55,5.34-3.55,8.58s1.26,6.29,3.55,8.58c2.29,2.29,5.34,3.55,8.58,3.55s6.29-1.26,8.58-3.55c2.29-2.29,3.55-5.34,3.55-8.58s-1.26-6.29-3.55-8.58c-2.29-2.29-5.34-3.55-8.58-3.55Zm5.13,17.26c-2.83,2.83-7.43,2.83-10.26,0-1.37-1.37-2.12-3.19-2.12-5.13s.75-3.76,2.12-5.13,3.27-2.12,5.13-2.12,3.72,.71,5.13,2.12c1.37,1.37,2.12,3.19,2.12,5.13s-.75,3.76-2.12,5.13Z"/></svg>