<?xml version="1.0" encoding="UTF-8"?><svg id="Cor" xmlns="http://www.w3.org/2000/svg" viewBox="0 0 500 500"><defs><style>.cls-1{fill:#b2b2b2;}.cls-2{fill:#959595;}.cls-3{fill:#a4a4a4;}.cls-4{fill:#dcdcdc;}.cls-5{fill:#353535;}.cls-6{fill:#f3f3f3;}</style></defs><g id="Flauta"><path class="cls-1" d="M476.71,49.41l-17.88,17.88-.6-.12c.09-.97,.11-1.95,.06-2.93-.02-.35-.05-.71-.09-1.06-.03-.35-.08-.71-.15-1.06-.02-.18-.05-.35-.09-.52-.03-.18-.07-.35-.11-.52,0-.11-.04-.21-.06-.32-.06-.25-.12-.49-.19-.74-.11-.39-.24-.79-.36-1.18-.14-.38-.29-.78-.44-1.16,0-.02-.02-.05-.03-.08-.13-.3-.27-.6-.41-.9-.05-.11-.1-.22-.16-.33-.15-.29-.3-.57-.45-.85-.03-.05-.06-.1-.08-.14,0,0,0,0,0-.02-.16-.26-.31-.51-.47-.76-.06-.11-.14-.22-.21-.32-.19-.28-.37-.55-.57-.82-.08-.1-.15-.19-.22-.29-.17-.21-.33-.4-.5-.6-.05-.07-.1-.13-.16-.19-.08-.1-.17-.2-.26-.29-.22-.26-.45-.5-.7-.75l-3.93-3.92c-4.46-4.46-10.6-6.33-16.44-5.58l-.02-.15,18.42-18.42c3.75-3.74,9.22-4.4,12.15-1.46l15.43,15.42c.37,.37,.7,.8,.95,1.25,.12,.2,.22,.4,.31,.62,.04,.09,.08,.18,.1,.28,1.17,3.01,.15,7.05-2.82,10.01Z"/><path class="cls-5" d="M434.91,65.1c2.11,2.1,3.15,4.87,3.15,7.64s-1.04,5.54-3.15,7.65l-21.86,21.86c-4.2,4.2-11.08,4.2-15.29,0-2.1-2.11-3.15-4.88-3.15-7.65s1.05-5.54,3.15-7.65l21.86-21.85c4.2-4.21,11.08-4.21,15.29,0Z"/><path class="cls-1" d="M399.67,125.55c-1.97,.17-3.96,.04-5.9-.39-.11,0-.21-.03-.32-.06-.25-.06-.49-.12-.74-.19-3.18-.87-6.18-2.54-8.66-5.02l-3.93-3.93c-4.41-4.41-6.28-10.43-5.61-16.19l-.34-.04L125.2,348.71l-11.29,11.28-8.63,8.63,.07,.07c.15,0,.32,0,.46,0,1.17,.09,2.3,.56,3.16,1.43l15.13,15.14,.24,.45c1.91-.89,3.99-1.26,6.05-1.12,.14,0,.28,.02,.41,.04,.16,0,.32,.03,.46,.06,.21,.02,.41,.06,.61,.1,0,0,.02,0,.02,0,.25,.05,.48,.1,.72,.16,0,0,.03,0,.04,0,.24,.06,.48,.13,.72,.21,.09,.03,.19,.06,.28,.1,.21,.07,.4,.15,.6,.23,.19,.07,.36,.15,.55,.24,.16,.07,.31,.15,.46,.23,.37,.2,.75,.41,1.1,.65,.61,.39,1.19,.86,1.74,1.38h0L399.73,126.39l-.06-.84Zm-106.15,66.92c3.82-3.82,10.03-3.82,13.86,0,3.82,3.82,3.82,10.03,0,13.86-3.82,3.82-10.03,3.82-13.86,0s-3.82-10.03,0-13.86Zm-22.78,22.78c3.83-3.82,10.03-3.82,13.86,0,3.82,3.82,3.82,10.02,0,13.85-3.82,3.83-10.02,3.83-13.86,0-3.82-3.82-3.82-10.02,0-13.85Zm-22.77,22.78c3.82-3.82,10.02-3.82,13.85,0,3.82,3.82,3.82,10.02,0,13.85-3.82,3.82-10.02,3.82-13.85,0-3.82-3.82-3.82-10.02,0-13.85Zm-22.78,22.78c3.82-3.83,10.02-3.83,13.85,0,3.82,3.82,3.82,10.02,0,13.85-3.82,3.82-10.02,3.82-13.85,0-3.82-3.82-3.82-10.02,0-13.85Zm-22.78,22.77c3.82-3.82,10.02-3.82,13.86,0,3.82,3.82,3.82,10.03,0,13.86-3.83,3.82-10.03,3.82-13.86,0-3.82-3.82-3.82-10.03,0-13.86Zm-22.78,22.78c3.82-3.82,10.03-3.82,13.86,0s3.82,10.02,0,13.86c-3.82,3.82-10.03,3.82-13.86,0-3.82-3.83-3.82-10.03,0-13.86Zm-22.78,22.78c3.83-3.82,10.03-3.82,13.86,0,3.82,3.82,3.82,10.02,0,13.85-3.82,3.82-10.02,3.82-13.86,0-3.82-3.82-3.82-10.02,0-13.85Zm-22.77,22.78c3.82-3.82,10.02-3.82,13.85,0,3.82,3.82,3.82,10.02,0,13.85-3.82,3.82-10.02,3.82-13.85,0-3.82-3.82-3.82-10.02,0-13.85Z"/><circle class="cls-5" cx="300.44" cy="199.41" r="9.8"/><path class="cls-5" d="M284.59,215.26c3.82,3.82,3.82,10.02,0,13.85-3.82,3.83-10.02,3.83-13.86,0s-3.82-10.02,0-13.85c3.83-3.82,10.03-3.82,13.86,0Z"/><circle class="cls-5" cx="254.89" cy="244.96" r="9.79"/><path class="cls-5" d="M239.04,260.81c3.82,3.82,3.82,10.02,0,13.85-3.82,3.82-10.02,3.82-13.85,0-3.82-3.82-3.82-10.02,0-13.85,3.82-3.83,10.02-3.83,13.85,0Z"/><path class="cls-5" d="M216.27,283.58c3.82,3.82,3.82,10.03,0,13.86-3.83,3.82-10.03,3.82-13.86,0-3.82-3.82-3.82-10.03,0-13.86,3.82-3.82,10.02-3.82,13.86,0Z"/><path class="cls-5" d="M193.49,306.36c3.82,3.82,3.82,10.02,0,13.86-3.82,3.82-10.03,3.82-13.86,0-3.82-3.83-3.82-10.03,0-13.86,3.82-3.82,10.03-3.82,13.86,0Z"/><path class="cls-5" d="M170.71,329.14c3.82,3.82,3.82,10.02,0,13.85-3.82,3.82-10.02,3.82-13.86,0-3.82-3.82-3.82-10.02,0-13.85,3.83-3.82,10.03-3.82,13.86,0Z"/><circle class="cls-5" cx="141.01" cy="358.84" r="9.79"/><path class="cls-1" d="M120.57,405.55l-1.1,1.1-7.14,7.15h0c-1-.95-2.1-1.7-3.27-2.24-.2-.1-.39-.19-.6-.26-.2-.09-.39-.17-.6-.23-.09-.04-.18-.07-.27-.1-.25-.08-.49-.15-.74-.2-.2-.07-.4-.11-.61-.14-.09-.02-.18-.04-.28-.06-.18-.04-.36-.07-.54-.08-.24-.04-.47-.06-.71-.08-.3-.03-.59-.04-.88-.04-.68,0-1.37,.05-2.05,.16-.3,.05-.59,.11-.88,.18-.1,.02-.2,.05-.3,.08-.15,.03-.29,.07-.43,.12-.38,.11-.77,.25-1.14,.4l-.02-.05c-.06-.09-.14-.16-.22-.24l-15.32-15.32c-.91-.92-2.09-1.39-3.3-1.46-.13,0-.26,0-.37,0-.05,0-.08,0-.11,0l-.02-.02,.91-.92,17.98-17.97,1.38-1.38,.06,.06c0,.16,.01,.32,.02,.46,.08,1.17,.56,2.3,1.43,3.16l15.13,15.14c.31,.31,.64,.55,1.01,.76l.06,.02c-.61,2.12-.64,4.37-.09,6.5,.06,.25,.13,.48,.21,.73,.03,.09,.06,.18,.1,.27,.55,1.63,1.46,3.15,2.72,4.47Z"/><path class="cls-1" d="M94.78,431.34h0l-2.13,2.14-2.42,2.42-40.67,40.67c-3.04,3.04-7.15,4.13-10.18,2.99-.09-.03-.18-.06-.27-.1-.22-.09-.42-.19-.63-.31-.45-.26-.88-.57-1.25-.95l-15.42-15.42c-2.95-2.94-2.2-8.5,1.64-12.33l14.23-14.23,8.57-8.56,17.69-17.7,3.47-3.47,.53-.52,5.43-5.44,1.1-1.1,.02,.02c-.02,.17,0,.33,0,.48v.02c0,.15,.02,.3,.05,.43,.02,.14,.04,.28,.07,.4,.04,.17,.08,.33,.14,.48,.06,.19,.13,.36,.21,.53,.06,.13,.13,.27,.21,.39,.04,.08,.08,.16,.13,.23,.05,.08,.1,.15,.16,.22,.05,.09,.12,.17,.19,.25,.1,.12,.2,.24,.32,.35l15.32,15.32s.11,.1,.16,.14l.57,.19-.15,.47c-.08,.28-.15,.56-.21,.85-.06,.27-.11,.54-.15,.82,0,.04,0,.07-.02,.11-.02,.22-.05,.43-.07,.66,0,.06,0,.12,0,.19-.02,.27-.03,.53-.03,.8,0,1.03,.14,2.07,.39,3.09,.06,.25,.13,.49,.21,.73,.03,.09,.06,.18,.1,.27,.07,.24,.16,.46,.26,.69,.06,.16,.13,.32,.21,.47,0,.02,0,.04,.02,.05,.13,.28,.27,.55,.42,.82,0,.02,.02,.04,.03,.05,.08,.15,.17,.3,.27,.44,.42,.68,.92,1.32,1.49,1.92l.03,.03Z"/><path class="cls-4" d="M65.4,408.5l-1.47,1.47-17.69,17.7-.42-.42c-3.91-5.36-3.45-12.92,1.4-17.77,4.84-4.85,12.41-5.31,17.77-1.39l.41,.41Z"/><path class="cls-2" d="M95.78,430.28l-2.13,2.13c-1.51-1.59-2.52-3.48-3.03-5.47-.58-2.29-.5-4.71,.25-6.97l-.57-.19s-.11-.09-.16-.14l-15.32-15.32c-.91-.92-1.39-2.09-1.46-3.31,0-.16-.02-.32,0-.48l-.02-.02,2.13-2.13,.02,.02c-.02,.17,0,.33,0,.48,.03,.45,.11,.9,.26,1.32,.23,.73,.63,1.41,1.2,1.99l15.32,15.32s.11,.1,.16,.14l.56,.19h0c-.05,.15-.1,.31-.15,.45-.32,1.12-.48,2.29-.48,3.45,0,.5,.03,1.02,.1,1.52,.06,.52,.16,1.03,.29,1.55,.06,.24,.13,.48,.22,.72,.4,1.29,1.03,2.53,1.89,3.66,.28,.37,.58,.75,.92,1.09Z"/><path class="cls-3" d="M476.71,49.41l-17.88,17.88-1.31,1.43c-.42,4.4-2.75,6.02-6.11,9.37l-40.94,41.03c-3.4,3.4-4.8,5.48-9.27,5.85l-1.48,1.41L138.13,387.99c.08,.07,.15,.14,.23,.22,.15,.15,.29,.3,.41,.44l-.05,.05c.08,.07,.15,.14,.23,.22,.15,.15,.29,.29,.43,.44,0,.02,.03,.05,.05,.07,1.09,1.22-17.3,17.68-18.64,16.34-.08-.08-.15-.15-.22-.23l-1.1,1.1-7.14,7.15,.22,.22c.15,.15,.29,.3,.42,.44l-.05,.05,.22,.22c.16,.16-1.02,3.22-.5,4.69l-12.05,15.37c-.33-.09-.67-.19-1-.31-1.68-.59-3.25-1.57-4.59-2.91-.08-.08-.15-.15-.22-.23h0l-2.13,2.14-2.42,2.42-40.67,40.67c-3.04,3.04-7.15,4.13-10.18,2.99l93.88-93.88,.4-.4L393.3,125.62l86.22-86.22c1.17,3.01,.15,7.05-2.82,10.01Z"/><path class="cls-4" d="M458.28,64.25c-.02-.35-.05-.71-.09-1.06-.04-.35-.09-.71-.15-1.06-.03-.17-.05-.34-.09-.52-.03-.18-.07-.35-.11-.52,0-.11-.04-.21-.06-.32-.06-.25-.12-.49-.19-.74-.11-.39-.24-.79-.36-1.18-.14-.38-.29-.78-.44-1.16,0-.02-.02-.05-.03-.08-.13-.3-.27-.6-.41-.9-.05-.11-.1-.22-.16-.33-.15-.29-.3-.57-.45-.85-.03-.05-.06-.1-.08-.14,0,0,0,0,0-.02-.16-.26-.31-.51-.47-.76-.06-.11-.14-.22-.21-.32-.19-.28-.37-.55-.57-.82-.08-.1-.15-.19-.22-.29-.17-.21-.33-.4-.5-.6-.05-.07-.1-.13-.16-.19-.08-.1-.17-.2-.26-.29-.22-.26-.45-.5-.7-.75l-3.93-3.92c-4.46-4.46-10.6-6.33-16.44-5.58-4.18,.53-8.21,2.4-11.4,5.58l-40.68,40.68c-3.25,3.25-5.13,7.39-5.61,11.65-.67,5.77,1.2,11.79,5.61,16.19l3.93,3.93c2.48,2.47,5.48,4.15,8.66,5.02,.25,.07,.49,.13,.74,.19,.11,.03,.21,.05,.32,.06,1.94,.43,3.93,.56,5.9,.39,4.46-.37,8.82-2.26,12.22-5.66l40.68-40.69c3.35-3.35,5.23-7.64,5.66-12.03,.09-.97,.11-1.95,.06-2.93Zm-60.52,22.7l21.86-21.85c4.2-4.21,11.08-4.21,15.29,0,2.11,2.1,3.15,4.87,3.15,7.64s-1.04,5.54-3.15,7.65l-21.86,21.86c-4.2,4.2-11.08,4.2-15.29,0-2.1-2.11-3.15-4.88-3.15-7.65s1.05-5.54,3.15-7.65Z"/><path class="cls-6" d="M381.24,102.39c.41-3.77,2.16-9.35,4.94-12.23l33.95-34.89c2.73-2.82,7.07-5.56,10.64-6.03,5-.66,10.38,2.43,14.19,6.39l3.02,3.86c.21,.22,.41,.44,.6,.66,.08,.08,.15,.17,.22,.25,.05,.05,.09,.1,.13,.17,.15,.17,.29,.35,.43,.53,.06,.09,.12,.17,.19,.25,.17,.24,.33,.48,.49,.73,.06,.09,.13,.18,.18,.28,.14,.22,.27,.45,.4,.67,0,0,0,0,0,.02,.02,.03,.04,.08,.07,.12,.13,.24,.26,.5,.39,.75,.05,.1,.09,.19,.13,.29,.13,.26,.24,.53,.35,.79,0,.03,.02,.05,.03,.07,.13,.34,.26,.69,.38,1.03,.1,.33,.21,.66,.3,.99,0-.2,0-.4,0-.6-.02-.31-.04-.63-.08-.94-.03-.31-.08-.63-.13-.94-.03-.15-.04-.31-.08-.46-.03-.16-.06-.31-.09-.46,0-.1-.03-.18-.05-.28-.05-.22-.1-.44-.16-.66-.09-.35-.2-.7-.31-1.05-.12-.34-.24-.69-.38-1.03,0-.02-.02-.04-.03-.07-.11-.26-.23-.53-.35-.79-.04-.1-.08-.19-.13-.29-.13-.25-.25-.51-.39-.75-.03-.04-.05-.09-.07-.12,0,0,0,0,0-.02-.13-.23-.26-.45-.4-.67-.05-.1-.12-.19-.18-.28-.16-.24-.32-.49-.49-.73-.07-.09-.13-.17-.19-.25-.14-.18-.28-.36-.43-.53-.04-.06-.08-.11-.13-.17-.07-.09-.14-.17-.22-.25-.19-.23-.39-.45-.6-.66l-3.36-3.48c-3.82-3.96-9.06-5.61-14.06-4.94-3.57,.47-7.02,2.12-9.75,4.94l-34.78,36.06c-2.78,2.88-4.38,6.55-4.79,10.33-.25,2.24-.08,4.53,.5,6.72-.01-.77,.02-1.55,.1-2.32Z"/><path class="cls-2" d="M137.88,405.38c-.31,.39-.63,.77-1,1.13-.76,.76-1.59,1.39-2.46,1.92h0c-2.55,1.07-5.39,1.26-8.03,.55-.33-.09-.67-.19-1-.31-1.68-.59-3.25-1.57-4.59-2.91-.08-.08-.15-.15-.22-.23l-1.1,1.1s-.1-.09-.15-.14c-.08-.08-.15-.15-.22-.23-1.12-1.17-1.97-2.51-2.52-3.94-.14-.32-.25-.63-.35-.96-.71-2.3-.73-4.76-.07-7.07l-.06-.02c-.36-.21-.7-.45-1.01-.76l-15.13-15.14c-.84-.84-1.32-1.91-1.42-3.05,0-.04,0-.08,0-.12,0-.15-.02-.31-.02-.46l-.06-.06,2.13-2.13,.06,.06c0,.16,0,.32,.02,.46,0,.04,0,.08,0,.12,.1,1.13,.58,2.21,1.42,3.05l15.13,15.14c.29,.29,.59,.51,.93,.71,.03,.02,.05,.03,.08,.05l.06,.02c-.66,2.31-.64,4.77,.07,7.07,.1,.33,.21,.64,.35,.96,.55,1.43,1.4,2.77,2.52,3.94,.07,.08,.14,.15,.22,.23,1.49,1.49,3.25,2.51,5.14,3.09,.35,.11,.69,.2,1.03,.27,3.52,.75,7.3-.03,10.26-2.37Z"/><path class="cls-4" d="M138.36,405.77c-1.16,1.16-2.5,2.05-3.93,2.66h0c-2.55,1.07-5.39,1.26-8.03,.55-.33-.09-.67-.19-1-.31-1.68-.59-3.25-1.57-4.59-2.91-.08-.08-.15-.15-.22-.23-1.26-1.32-2.17-2.85-2.72-4.47-.04-.09-.07-.18-.1-.27-.08-.25-.15-.48-.21-.73-.55-2.13-.52-4.38,.09-6.5,.07-.25,.15-.49,.24-.74,0-.04,.03-.09,.05-.13,.05-.16,.11-.32,.18-.46,0-.04,.03-.09,.06-.13,.07-.18,.15-.35,.24-.53,.08-.17,.17-.34,.27-.51,.07-.15,.16-.3,.24-.43,.51-.87,1.14-1.69,1.89-2.43,1.06-1.06,2.27-1.89,3.55-2.48,1.91-.89,3.99-1.26,6.05-1.12,.14,0,.28,.02,.41,.04,.16,0,.32,.03,.46,.06,.21,.02,.41,.06,.61,.1,0,0,.02,0,.02,0,.25,.05,.48,.1,.72,.16,0,0,.03,0,.04,0,.24,.06,.48,.13,.72,.21,.09,.03,.19,.06,.28,.1,.21,.07,.4,.15,.6,.23,.19,.07,.36,.15,.55,.24,.16,.07,.31,.15,.46,.23,.37,.2,.75,.41,1.1,.65,.61,.39,1.19,.86,1.74,1.38h0c.08,.07,.15,.14,.23,.22,.15,.15,.29,.3,.41,.44,.22,.23,.41,.47,.61,.71,0,.02,.03,.05,.05,.07,.8,1.04,1.41,2.18,1.83,3.37,.12,.33,.22,.66,.31,1,1.1,4.14,.03,8.73-3.21,11.98Z"/><path class="cls-4" d="M124.1,385.27l.24,.45c-1.28,.59-2.48,1.42-3.55,2.48-1.55,1.55-2.6,3.41-3.15,5.37l-.06-.02c-.36-.21-.7-.45-1.01-.76l-15.13-15.14c-.87-.87-1.35-1.99-1.43-3.16,0-.15-.02-.31-.02-.46l-.06-.06,5.34-5.35,.07,.07c.15,0,.32,0,.46,0,1.17,.09,2.3,.56,3.16,1.43l15.13,15.14Z"/><path class="cls-4" d="M112.55,431.57c-3.24,3.24-7.84,4.32-11.97,3.21-.33-.09-.67-.19-1-.31-1.68-.59-3.25-1.57-4.59-2.91-.08-.08-.15-.15-.22-.23l-.03-.03c-.57-.6-1.06-1.24-1.49-1.92-.1-.15-.19-.3-.27-.44,0,0-.02-.03-.03-.05-.16-.27-.3-.54-.42-.82,0,0-.02-.03-.02-.05-.08-.16-.15-.32-.21-.47-.1-.23-.19-.45-.26-.69-.04-.09-.07-.18-.1-.27-.08-.24-.15-.48-.21-.73-.26-1.02-.39-2.05-.39-3.09,0-.27,0-.53,.03-.8,0-.07,0-.13,0-.19,.02-.23,.05-.44,.07-.66,0-.04,0-.07,.02-.11,.04-.28,.09-.55,.15-.82,.06-.29,.13-.57,.21-.85l.15-.47c.14-.41,.3-.82,.47-1.22,.6-1.32,1.44-2.56,2.53-3.66,1.19-1.19,2.56-2.09,4.03-2.69,.37-.16,.76-.3,1.14-.4,.15-.05,.29-.09,.43-.12,.1-.03,.2-.06,.3-.08,.29-.07,.58-.13,.88-.18,.68-.11,1.37-.16,2.05-.16,.29,0,.58,0,.88,.04,.24,.02,.47,.04,.71,.08,.19,.02,.36,.05,.54,.08,.1,.02,.19,.04,.28,.06,.21,.04,.41,.09,.61,.14,.25,.05,.49,.12,.74,.2,.09,.03,.18,.06,.27,.1,.21,.07,.4,.15,.6,.23,.21,.08,.4,.16,.6,.26,1.17,.54,2.28,1.29,3.27,2.24h0l.22,.22c.15,.15,.29,.3,.42,.44,.22,.25,.43,.49,.63,.75,0,0,0,.02,.02,.03,.8,1.04,1.41,2.18,1.83,3.37,.12,.33,.22,.66,.31,1,1.1,4.14,.03,8.73-3.21,11.97Z"/><path class="cls-6" d="M96.02,417.08c.96-.96,2.06-1.68,3.24-2.16,.3-.13,.61-.24,.92-.32,.12-.04,.23-.07,.35-.09,.08-.02,.16-.05,.24-.06,.23-.06,.47-.1,.7-.14,.55-.09,1.1-.13,1.65-.13,.23,0,.47,0,.7,.03,.19,.02,.38,.03,.57,.06,.15,.02,.29,.04,.44,.06,.08,.02,.15,.03,.22,.05,.17,.03,.33,.07,.49,.11,.2,.04,.4,.09,.59,.16,.07,.02,.14,.05,.21,.08,.17,.06,.32,.12,.48,.18,.17,.06,.32,.13,.48,.21,.94,.44,1.83,1.04,2.63,1.8h0l.17,.17c.12,.12,.23,.24,.34,.36,.17,.2,.35,.4,.51,.6,0,0,0,.02,.02,.02,.64,.84,1.13,1.75,1.47,2.71,.09,.26,.17,.53,.25,.8,.63,2.37,.36,4.92-.79,7.13,1.97-2.51,2.57-5.74,1.78-8.7-.07-.27-.15-.54-.25-.8-.34-.96-.83-1.87-1.47-2.71,0,0-.02-.02-.02-.02-.16-.21-.33-.4-.51-.6-.11-.12-.22-.24-.34-.36l-.17-.17h0c-.8-.76-1.69-1.36-2.63-1.8-.16-.08-.32-.14-.48-.21-.16-.06-.32-.13-.48-.18-.07-.03-.14-.06-.21-.08-.2-.06-.4-.12-.59-.16-.16-.04-.32-.08-.49-.11-.07-.02-.14-.03-.22-.05-.14-.02-.28-.05-.44-.06-.19-.03-.38-.05-.57-.06-.24-.02-.47-.03-.7-.03-.55,0-1.1,.04-1.65,.13-.24,.04-.47,.09-.7,.14-.08,.02-.16,.04-.24,.06-.12,.02-.23,.06-.35,.09-.31,.09-.62,.2-.92,.32-1.18,.48-2.28,1.2-3.24,2.16-.76,.76-1.36,1.61-1.82,2.51,.25-.33,.52-.64,.82-.95Z"/><path class="cls-6" d="M121.92,391.06c.96-.96,2.06-1.68,3.24-2.16,.3-.13,.61-.24,.92-.32,.12-.04,.23-.07,.35-.09,.08-.02,.16-.05,.24-.06,.23-.06,.47-.1,.7-.14,.55-.09,1.1-.13,1.65-.13,.23,0,.47,0,.7,.03,.19,.02,.38,.03,.57,.06,.15,.02,.29,.04,.44,.06,.08,.02,.15,.03,.22,.05,.17,.03,.33,.07,.49,.11,.2,.04,.4,.09,.59,.16,.07,.02,.14,.05,.21,.08,.17,.06,.32,.12,.48,.18,.17,.06,.32,.13,.48,.21,.94,.44,1.83,1.04,2.63,1.8h0l.17,.17c.12,.12,.23,.24,.34,.36,.17,.2,.35,.4,.51,.6,0,0,0,.02,.02,.02,.64,.84,1.13,1.75,1.47,2.71,.09,.26,.17,.53,.25,.8,.63,2.37,.36,4.92-.79,7.13,1.97-2.51,2.57-5.74,1.78-8.7-.07-.27-.15-.54-.25-.8-.34-.96-.83-1.87-1.47-2.71,0,0-.02-.02-.02-.02-.16-.21-.33-.4-.51-.6-.11-.12-.22-.24-.34-.36l-.17-.17h0c-.8-.76-1.69-1.36-2.63-1.8-.16-.08-.32-.14-.48-.21-.16-.06-.32-.13-.48-.18-.07-.03-.14-.06-.21-.08-.2-.06-.4-.12-.59-.16-.16-.04-.32-.08-.49-.11-.07-.02-.14-.03-.22-.05-.14-.02-.28-.05-.44-.06-.19-.03-.38-.05-.57-.06-.24-.02-.47-.03-.7-.03-.55,0-1.1,.04-1.65,.13-.24,.04-.47,.09-.7,.14-.08,.02-.16,.04-.24,.06-.12,.02-.23,.06-.35,.09-.31,.09-.62,.2-.92,.32-1.18,.48-2.28,1.2-3.24,2.16-.76,.76-1.36,1.61-1.82,2.51,.25-.33,.52-.64,.82-.95Z"/><path class="cls-4" d="M110.1,363.8l-2.48,2.48-2.34,2.34-5.34,5.35-19.36,19.35-.91,.92-5.2,5.19-6.53,6.54-.42-.42c-1.68,.76-3.73,.44-5.11-.93-.89-.89-1.33-2.06-1.32-3.23,0-1.17,.43-2.35,1.32-3.23l39.88-39.88c1.78-1.78,4.69-1.78,6.48,0,.89,.89,1.33,2.06,1.32,3.23,0,.64-.13,1.28-.39,1.87l.41,.41Z"/><path class="cls-4" d="M99.01,411.27l.02,.05c-1.47,.6-2.84,1.5-4.03,2.69-1.42,1.42-2.42,3.09-3.01,4.88l-.57-.19s-.11-.09-.16-.14l-15.32-15.32c-.91-.92-1.39-2.09-1.46-3.31,0-.16-.02-.32,0-.48l-.02-.02,5.2-5.19,.02,.02s.06,0,.11,0c.12,0,.25,0,.37,0,1.21,.07,2.4,.54,3.3,1.46l15.32,15.32c.08,.08,.16,.15,.22,.24Z"/><rect class="cls-6" x="60.39" y="379.61" width="46.56" height="1.51" rx=".76" ry=".76" transform="translate(-244.46 170.57) rotate(-45)"/><path class="cls-6" d="M45.02,419.8s-.06-7.8,6.09-11.18c6.03-3.31,11.95-.35,11.95-.35,0,0-6.49-1.46-11.83,2.19-4.67,3.19-6.21,9.34-6.21,9.34Z"/></g></svg>