<?xml version="1.0" encoding="UTF-8"?><svg id="Expanded_copy" xmlns="http://www.w3.org/2000/svg" viewBox="0 0 500 500"><defs><style>.cls-1{fill:#efefef;}</style></defs><path class="cls-1" d="M493.2,68.75l-6.08-6.08,3.61-3.61c.14-.14,.26-.29,.36-.45,.45-.72,10.7-17.83-10.67-39.11-21.25-21.28-38.33-11.05-39.04-10.61-.16,.1-.32,.22-.45,.36l-3.61,3.61-6.08-6.08c-2.38-2.38-6.23-2.37-8.6,0-2.38,2.38-2.38,6.22,0,8.6l6.08,6.08-11.58,11.58-6.08-6.08c-2.38-2.38-6.23-2.37-8.6,0-2.38,2.38-2.38,6.22,0,8.6l6.08,6.08-11.58,11.58-6.08-6.08c-2.38-2.38-6.23-2.37-8.6,0-2.37,2.37-2.38,6.22,0,8.6l6.08,6.08-4.12,4.12c-.27,.27-.48,.6-.61,.97l-7.3,21.28c-.09,.07-.19,.14-.27,.22l-88.47,86.21c-52.82-50.54-95.57-16.18-100.27-12.08-12,10.43-16.01,20.15-19.89,29.54-3.51,8.51-7.15,17.32-16.99,27.16-11.06,11.06-26.88,13.85-45.2,17.08-30.88,5.44-65.87,11.61-90.31,59.69-14.74,29-13,60.98,5.15,95.06,6.38,11.98,18.14,30.28,37.95,49.48,.32,.31,.56,.55,.72,.7,.18,.18,.44,.45,.78,.8,19.4,19.99,37.71,31.75,49.66,38.09,18.67,9.91,36.72,14.86,54.01,14.86,14.13,0,27.75-3.31,40.78-9.93,48.08-24.43,54.25-59.43,59.69-90.31,3.23-18.32,6.02-34.14,17.08-45.2,9.84-9.84,18.64-13.47,27.16-16.99,9.4-3.88,19.11-7.89,29.55-19.89,4.09-4.71,38.46-47.46-12.08-100.27l86.21-88.47c.08-.09,.15-.18,.22-.27l21.28-7.3c.36-.13,.7-.33,.97-.61l4.12-4.12,6.08,6.08c2.38,2.38,6.23,2.37,8.6,0,2.37-2.37,2.38-6.22,0-8.6l-6.08-6.08,11.58-11.58,6.08,6.08c2.38,2.38,6.22,2.38,8.6,0,2.37-2.37,2.38-6.22,0-8.6l-6.08-6.08,11.58-11.58,6.08,6.08c2.38,2.38,6.22,2.38,8.6,0,2.37-2.37,2.38-6.22,0-8.6Zm-159.59,240.6c-9.65,11.1-18.39,14.71-27.65,18.53-8.97,3.7-18.25,7.53-28.81,18.09-12.19,12.19-15.25,29.54-18.49,47.9-5.24,29.71-11.17,63.38-56.99,86.67-59.08,30.02-116.55-19.39-138.51-42.03-.36-.37-.64-.66-.83-.85-.17-.17-.43-.42-.78-.76-17.69-17.14-73.02-77.79-42.11-138.6,23.29-45.82,56.96-51.76,86.67-56.99,18.36-3.24,35.71-6.29,47.9-18.49,10.56-10.56,14.39-19.83,18.09-28.81,3.82-9.26,7.43-18.01,18.53-27.65,4.35-3.78,43.8-35.46,93.32,11.8l-56.54,55.09c-.21,.2-.37,.44-.49,.69-1.98-.26-3.99-.4-6.02-.4-12.16,0-23.6,4.74-32.2,13.34-8.6,8.6-13.34,20.03-13.34,32.2s4.74,23.6,13.34,32.2c8.6,8.6,20.03,13.34,32.2,13.34s23.6-4.74,32.2-13.34c8.6-8.6,13.34-20.04,13.34-32.2,0-2.03-.14-4.04-.4-6.02,.25-.12,.48-.28,.69-.49l55.09-56.54c47.26,49.51,15.58,88.97,11.8,93.32Zm-84.1-58.89c7.64,7.64,11.85,17.8,11.85,28.61s-4.21,20.97-11.85,28.61c-7.64,7.64-17.8,11.85-28.61,11.85s-20.97-4.21-28.61-11.85-11.85-17.8-11.85-28.61,4.21-20.97,11.85-28.61c7.64-7.64,17.8-11.85,28.61-11.85s20.97,4.21,28.61,11.85Zm15.35,16.75c-2.04-7.62-6.04-14.6-11.77-20.33-5.73-5.73-12.71-9.73-20.33-11.77L377.79,93.79l14.2,14.2c.67,.67,10.18,10.18,14.2,14.2l-141.32,145.02ZM430.87,111.76l-20.81,7.14c-3.83-3.83-13.81-13.81-14.49-14.49l-14.49-14.49,7.14-20.81,56.04-56.04c1.96-1.06,15.33-7.26,32.57,10.01,17.38,17.3,11.11,30.72,10.08,32.63l-56.04,56.04Z"/><path class="cls-1" d="M83.93,336.72c-.99-.99-2.59-.99-3.58,0s-.99,2.59,0,3.58l79.33,79.33c.49,.49,1.14,.74,1.79,.74s1.3-.25,1.79-.74c.99-.99,.99-2.59,0-3.58l-79.33-79.33Z"/></svg>