<?xml version="1.0" encoding="UTF-8"?><svg id="Cor" xmlns="http://www.w3.org/2000/svg" viewBox="0 0 500 500"><defs><style>.cls-1{fill:#602e14;}.cls-2{fill:#5b2215;}.cls-3{fill:#4c1914;}.cls-4{fill:#b67a2a;opacity:.46;}.cls-5{fill:#281503;}.cls-6{fill:#e4a542;}.cls-7{fill:#d9e3e9;}</style></defs><g id="Guitarra"><path d="M250.01,311.09c-16.88,16.88-44.26,16.88-61.14,0-16.88-16.88-16.88-44.26,0-61.14,10.02-10.02,23.75-14.1,36.77-12.22,8.91,1.28,17.5,5.36,24.37,12.22,6.34,6.33,10.29,14.13,11.87,22.31,.1,.5,.18,1,.25,1.51,2.09,13.18-1.96,27.15-12.12,37.32Z"/><path class="cls-2" d="M385.42,68.07l56.99-56.99s15.92-9.91,36.1,10.3c20.29,20.2,10.37,36.17,10.37,36.17l-56.99,56.99-22.76,7.8-.23,.06c-2.34-2.34-14.9-14.9-15.68-15.67-1.11-1.11-14.05-14.06-15.69-15.7l7.89-22.96Z"/><path class="cls-3" d="M478.53,21.37c-8.12-8.13-15.55-11.39-21.53-12.37,4.21,1.93,8.84,5.04,13.71,9.93,20.29,20.2,10.37,36.17,10.37,36.17l-56.99,56.99s-14.04,9.55-15.17,10.31l.23-.06,22.76-7.8,56.99-56.99s9.92-15.96-10.37-36.17Z"/><path class="cls-5" d="M408.9,122.4l-88.05,91.13-57.18,58.67-1.54,1.57c-.07-.51-.15-1.01-.25-1.51-1.58-8.18-5.53-15.98-11.87-22.31-6.87-6.86-15.45-10.93-24.37-12.22l2.12-1.45,58.68-57.18,91.1-88.07s14.58,14.59,15.69,15.7c.77,.76,15.68,15.67,15.68,15.67Z"/><path class="cls-6" d="M322.35,214.99l-1.5-1.46-57.17,58.67h-.01l-1.54,1.57c2.09,13.18-1.96,27.15-12.12,37.32-16.88,16.88-44.26,16.88-61.14,0-16.88-16.88-16.88-44.26,0-61.14,10.02-10.02,23.75-14.1,36.77-12.22l2.12-1.45,58.68-57.18-1.47-1.5c-45.96-44.19-84.96-23.33-97.64-12.32-22.42,19.5-15.68,35.63-36.94,56.89-30.93,30.93-97.19,.65-135.75,76.52-35.61,70.06,39,138.45,43.59,143.04,5.08,5.08,72.99,79.16,143.02,43.57,75.87-38.56,45.59-104.82,76.53-135.75,21.25-21.25,37.38-14.51,56.88-36.94,11.01-12.67,31.88-51.67-12.32-97.64Zm-160.13,207.54c-.69,.69-1.61,1.04-2.52,1.04s-1.82-.35-2.53-1.04l-79.75-79.75c-1.39-1.4-1.39-3.66,0-5.04s3.66-1.4,5.04,0l79.75,79.75c1.4,1.39,1.4,3.65,0,5.04Z"/><path class="cls-4" d="M322.54,215.04l-.35-.34c30.82,40.85,12.51,74.49,2.43,86.09-19.5,22.43-35.63,15.69-56.88,36.94-30.94,30.93-.66,97.19-76.53,135.75-70.03,35.59-137.94-38.49-143.02-43.57-.88-.88-4.37-4.14-9.16-9.32,9.64,12.06,17.96,19.77,19.4,21.21,5.08,5.08,72.99,79.16,143.02,43.57,75.87-38.56,45.59-104.82,76.53-135.75,21.25-21.25,37.38-14.51,56.88-36.94,11.01-12.67,31.88-51.67-12.32-97.64Z"/><path class="cls-7" d="M485.35,61.29c.06,.05,.13,.12,.19,.18l7.62,7.62c2.39,2.39,2.38,6.26,0,8.65-2.39,2.38-6.26,2.38-8.64,0l-7.63-7.63c-.06-.06-.12-.12-.17-.19l8.63-8.63Z"/><path class="cls-7" d="M465.07,81.57c.06,.05,.12,.12,.19,.18l7.62,7.62c2.39,2.39,2.38,6.27,0,8.65-2.39,2.39-6.26,2.39-8.65,0l-7.62-7.62c-.06-.07-.12-.13-.17-.19l8.63-8.64Z"/><path class="cls-7" d="M452.6,109.66c2.38,2.39,2.38,6.27,0,8.65-2.38,2.38-6.26,2.39-8.65,0l-7.62-7.62c-.06-.07-.13-.13-.18-.19l8.63-8.63c.07,.05,.13,.11,.2,.17l7.62,7.62Z"/><path class="cls-7" d="M438.49,14.41c.07,.06,.13,.13,.18,.19l-8.63,8.63c-.07-.05-.13-.11-.19-.17l-7.62-7.63c-2.39-2.38-2.39-6.25,0-8.64,2.38-2.38,6.25-2.39,8.64,0l7.62,7.62Z"/><path class="cls-7" d="M418.39,34.89l-8.63,8.63c-.07-.04-.13-.11-.2-.17l-7.62-7.62c-2.38-2.39-2.38-6.26,0-8.65,2.38-2.38,6.26-2.39,8.65,0l7.62,7.62c.06,.07,.13,.13,.18,.19Z"/><path class="cls-7" d="M397.92,54.98c.06,.07,.12,.13,.17,.2l-8.63,8.63c-.06-.05-.12-.12-.19-.18l-7.62-7.62c-2.39-2.39-2.38-6.27,0-8.65s6.26-2.38,8.65,0l7.62,7.62Z"/><path class="cls-1" d="M162.22,417.49c1.4,1.39,1.4,3.65,0,5.04-.69,.69-1.61,1.04-2.52,1.04s-1.82-.35-2.53-1.04l-79.75-79.75c-1.39-1.4-1.39-3.66,0-5.04,1.4-1.4,3.66-1.4,5.04,0l79.75,79.75Z"/></g></svg>