<?xml version="1.0" encoding="UTF-8"?><svg id="Cor" xmlns="http://www.w3.org/2000/svg" viewBox="0 0 500 500"><defs><style>.cls-1{fill:#fff;}.cls-2{isolation:isolate;opacity:.57;}.cls-2,.cls-3{fill:red;}.cls-4{fill:#8c2d19;}.cls-5{fill:#00893b;}</style></defs><path d="M494.1,326.43c-3.23-.66-7.31-.23-10.37-.21-4.18,.03-8.35,.24-12.52,.6-11.12,.97-22.36,2.06-33.06,5.41-5.54,1.73-11,3.85-16.79,4.63-8.61,1.15-18.26,1.72-26.63-1.1-.39-.13-.81,.08-.94,.46-.03,.09-.04,.19-.04,.29,.12,1.97,.05,6.33-2.06,11.9-3.82,10.07-12.08,17.72-19.22,23.45-15.01,12.05-57.55,45.55-122.48,45.85-64.93-.3-107.47-33.8-122.48-45.85-7.14-5.73-15.4-13.38-19.22-23.45-2.11-5.57-2.18-9.93-2.06-11.9,.02-.41-.29-.76-.7-.79-.1,0-.19,0-.28,.04-8.36,2.82-18.02,2.25-26.63,1.1-5.79-.77-11.25-2.89-16.79-4.63-10.7-3.35-21.95-4.44-33.06-5.41-4.16-.36-8.34-.58-12.52-.6-3.06-.02-7.14-.45-10.37,.21-.4,.08-.8-.18-.88-.59-.04-.21,0-.42,.13-.59,1.74-2.36,5.18-4.48,7.28-5.78,3.38-2.1,7.06-3.71,10.79-5.09,9.06-3.36,18.1-6.35,26.71-10.78,.37-.19,.51-.64,.32-1.01-.04-.08-.1-.15-.17-.22-10.87-9.73-17.37-23.16-26.8-34.12-.79-.91-2.42-2.72-3.72-4.16-.27-.31-.25-.78,.06-1.05,.2-.18,.47-.23,.73-.15,5.75,1.92,19.89,6.88,34.35,13.66,11.22,5.26,23.35,10.8,36.02,8.94,4.23-.62,8.34-1.86,12.44-3.04,4.38-1.26,8.68-2.75,13.04-4.09,4.3-1.32,8.79-2.12,13.3-1.62,2.73,.3,5.63,.98,8.17,2.23V82.29h224.67v196.67c2.54-1.24,5.43-1.92,8.17-2.23,4.51-.5,9,.3,13.3,1.62,4.36,1.33,8.66,2.83,13.04,4.09,4.1,1.18,8.21,2.42,12.44,3.04,12.67,1.86,24.8-3.67,36.02-8.94,14.46-6.78,28.6-11.74,34.35-13.66,.39-.13,.81,.09,.94,.48,.08,.25,.02,.53-.15,.72-1.3,1.44-2.94,3.25-3.73,4.16-9.44,10.96-15.94,24.39-26.8,34.12-.31,.27-.34,.75-.06,1.05,.06,.07,.13,.13,.22,.17,8.61,4.43,17.64,7.42,26.71,10.78,3.73,1.38,7.41,2.99,10.79,5.09,2.1,1.3,5.55,3.42,7.28,5.78,.25,.33,.18,.8-.15,1.05-.17,.13-.39,.18-.6,.14Z"/><path class="cls-1" d="M251.94,302.02V131.32h64.19v139.45c0,.19-.06,.38-.18,.53-2.19,2.88-24.41,30.72-64.01,30.72Z"/><polygon class="cls-5" points="318.95 189.78 352.02 189.78 352.02 97.03 318.95 130.1 318.95 189.78"/><polygon class="cls-1" points="181.75 189.78 148.68 189.78 148.68 97.03 181.75 130.1 181.75 189.78"/><path class="cls-5" d="M176.81,264.42l-28.13,28.13v-99.6h33.07v66.53l-2.74,2.74-2.2,2.2Z"/><polygon class="cls-5" points="248.76 93.58 248.76 128.14 183.86 128.14 149.29 93.58 248.76 93.58"/><path class="cls-1" d="M248.83,305.01v39.45c-40.06-.5-75.65-19.51-98.63-48.88l31.62-31.62v7.64c0,.18,.06,.35,.17,.49l.69,.88c3.07,3.9,6.51,7.51,10.26,10.76,3.82,3.32,7.93,6.29,12.28,8.87,13.22,7.84,28.25,12.11,43.61,12.4h0Z"/><path class="cls-1" d="M323.89,264.42l28.13,28.13v-99.6h-33.07v66.53l2.74,2.74,2.2,2.2Z"/><polygon class="cls-1" points="251.94 93.58 251.94 128.14 316.84 128.14 351.41 93.58 251.94 93.58"/><path class="cls-5" d="M251.94,305.01v39.45c40.06-.5,75.65-19.51,98.63-48.88l-28.38-28.38-2.17-2.17-1.07-1.06v7.62c0,.17-.06,.34-.16,.48-.19,.25-.5,.66-.7,.9-3.07,3.9-6.51,7.51-10.26,10.76-3.82,3.32-7.93,6.29-12.28,8.87-13.22,7.84-28.24,12.11-43.61,12.4h0Z"/><path class="cls-3" d="M181.4,192.95h0Z"/><path class="cls-2" d="M181.39,192.95h0Z"/><path class="cls-4" d="M106.53,325.13c-7.7,1.96-15.92,3.42-23.94,2.16-7.79-1.22-15.14-4.36-22.93-5.62-7.27-1.18-14.63-1.85-21.98-2.38-1.28-.09-2.85-.03-4.19-.04-.14,0-.25-.11-.24-.25,0-.09,.06-.18,.14-.22,4.25-1.93,9.93-3.32,14.23-4.41,9.68-2.44,17.79-5.12,27.84-5.06,.14,0,.25-.11,.25-.25,0-.1-.06-.19-.15-.23-8.31-3.7-14.58-9.93-21.19-16.02-4.12-3.79-8.19-8.39-10-10.51-.09-.1-.07-.26,.03-.35,.08-.07,.2-.08,.29-.02,12.25,7.47,25.54,12.85,40.1,12.38,9.11-.29,17.02-2.73,17.02-2.73,0,0,11.9-4.02,17.9-4.85,11.12-1.53,16.64,.94,19.45,3.64,.31,.29,.32,.77,.03,1.08-.03,.03-.07,.06-.11,.09-4.02,2.91-7.48,2.69-10.61,2.52-2.5-.14-4.86-.27-7.06,1.14-2.39,1.54-3.84,3.96-4.43,7.41-.5,2.91-.35,6.18-.2,9.35l.03,.62c.12,2.64,.2,4.98-.94,6.83-1.73,2.8-4.49,4.5-9.34,5.73Z"/><path class="cls-4" d="M139.62,312.89c-4.58-4.66-11.27-11.7-14.88-16.58-.12-.17-.08-.41,.09-.53,.06-.04,.12-.06,.19-.07,.94-.07,1.96-.02,3.04,.05,3.34,.19,7.34,.42,11.94-2.93,.35-.25,.85-.17,1.1,.18,.02,.02,.03,.05,.05,.08,1.83,3.28,2.07,6.68,2.07,9.13,0,2.29-.44,6.88-2.03,10.4h0c-.22,.48-.79,.7-1.28,.47-.11-.05-.21-.12-.29-.2Z"/><path class="cls-4" d="M394.25,325.13c7.7,1.96,15.91,3.42,23.94,2.16,7.79-1.22,15.14-4.36,22.93-5.62,7.27-1.18,14.63-1.85,21.98-2.38,1.28-.09,2.85-.03,4.19-.04,.14,0,.25-.11,.25-.25,0-.1-.06-.19-.15-.23-4.25-1.93-9.93-3.32-14.23-4.41-9.69-2.44-17.79-5.12-27.84-5.06-.14,0-.25-.11-.25-.25,0-.1,.06-.19,.15-.23,8.31-3.7,14.58-9.93,21.2-16.02,4.12-3.79,8.19-8.39,10-10.51,.09-.1,.08-.26-.02-.35-.08-.07-.2-.08-.29-.02-12.25,7.47-25.54,12.85-40.1,12.38-9.11-.29-17.02-2.73-17.02-2.73,0,0-11.9-4.02-17.9-4.85-11.12-1.53-16.64,.94-19.46,3.64-.31,.29-.32,.77-.03,1.08,.03,.03,.07,.06,.1,.09,4.02,2.91,7.49,2.69,10.61,2.52,2.5-.14,4.86-.27,7.06,1.14,2.39,1.54,3.84,3.96,4.44,7.41,.5,2.91,.35,6.18,.2,9.35l-.03,.62c-.12,2.64-.21,4.98,.94,6.83,1.73,2.8,4.49,4.5,9.34,5.73Z"/><path class="cls-4" d="M361.17,312.89c4.58-4.66,11.27-11.7,14.88-16.58,.12-.17,.08-.41-.09-.53-.06-.04-.12-.06-.19-.07-.94-.07-1.96-.02-3.04,.05-3.34,.19-7.34,.42-11.94-2.93-.35-.25-.84-.17-1.1,.18-.02,.03-.03,.05-.05,.08-1.83,3.28-2.07,6.68-2.07,9.13,0,2.29,.44,6.88,2.03,10.4h0c.22,.48,.79,.7,1.28,.48,.11-.05,.21-.12,.29-.2Z"/><path class="cls-4" d="M381.51,348.72c-31.92,36.59-82.88,58.02-131.12,58.02s-99.2-21.43-131.12-58.02c-9.79-11.22-2.95-24.29-1.01-29.41,.73-1.92,.67-4.5,.56-6.84l-.03-.62c-.28-6.01-.58-12.22,3.72-14.98h0c.1-.06,.24-.04,.31,.06,4.33,6.16,14.33,16.35,18.59,20.59,.28,.28,.58,.54,.89,.78l.02,.02c1.42,1.39,2.83,2.75,4.21,4.04,17.11,15.96,51.94,42.41,103.87,42.41s86.77-26.46,103.87-42.41c1.38-1.28,2.79-2.64,4.21-4.04l.02-.02c.31-.24,.61-.5,.89-.78,4.25-4.24,14.26-14.43,18.59-20.59,.07-.1,.21-.13,.31-.06h0c4.29,2.76,4,8.97,3.72,14.98l-.03,.62c-.11,2.33-.17,4.92,.56,6.84,1.94,5.11,8.77,18.19-1.01,29.41Z"/><path d="M130.22,344.59l7.62-8.31-2.97-2.72,1.55-1.69,7.95,7.29-1.55,1.69-2.96-2.71-7.62,8.31-2.02-1.85Z"/><path d="M140.72,353.57l.92-1.15c-.61,.18-1.25,.21-1.88,.08-.63-.12-1.22-.4-1.72-.8-.49-.38-.87-.88-1.11-1.45-.23-.53-.27-1.11-.12-1.67,.15-.56,.51-1.19,1.09-1.92l3.9-4.85,2.03,1.63-2.83,3.52c-.87,1.08-1.36,1.77-1.48,2.07-.12,.29-.14,.6-.06,.9,.1,.33,.3,.61,.58,.82,.33,.27,.73,.43,1.16,.46,.39,.04,.79-.05,1.13-.26,.33-.2,.93-.85,1.81-1.95l2.6-3.23,2.03,1.63-6.16,7.66-1.88-1.51Z"/><path d="M152.36,361.96l-2.14-1.48,2.86-4.13c.6-.87,.95-1.47,1.04-1.79,.09-.3,.08-.61-.03-.9-.12-.3-.32-.56-.59-.73-.35-.25-.78-.39-1.21-.39-.42,0-.83,.13-1.16,.39-.34,.26-.82,.84-1.45,1.74l-2.54,3.67-2.14-1.48,5.6-8.08,1.99,1.38-.82,1.19c1.34-.42,2.54-.27,3.61,.47,.45,.3,.83,.69,1.12,1.15,.25,.38,.4,.81,.44,1.26,.02,.41-.05,.81-.2,1.19-.15,.39-.45,.9-.88,1.52l-3.48,5.02Z"/><path d="M159.98,358.65l-1.8-1.58c.72-.68,1.47-1.05,2.26-1.1,.79-.06,1.73,.24,2.83,.9,.99,.6,1.66,1.16,2.01,1.69,.35,.53,.51,1.03,.49,1.51-.02,.48-.32,1.21-.9,2.17l-1.59,2.59c-.44,.74-.74,1.31-.88,1.7-.15,.44-.24,.9-.28,1.37l-2.2-1.32c.03-.18,.09-.45,.18-.79,.04-.15,.07-.26,.08-.31-.56,.14-1.15,.17-1.72,.1-.55-.08-1.08-.27-1.56-.56-.87-.52-1.41-1.17-1.63-1.94-.22-.76-.1-1.57,.32-2.24,.26-.45,.64-.82,1.1-1.07,.45-.24,.96-.34,1.47-.28,.53,.05,1.22,.23,2.09,.54,1.16,.43,1.99,.68,2.5,.75l.13-.22c.26-.43,.33-.8,.23-1.11s-.45-.64-1.03-.99c-.4-.24-.75-.35-1.07-.32s-.66,.19-1.03,.49Zm1.9,3.6c-.53-.13-1.05-.29-1.56-.47-.7-.24-1.18-.35-1.45-.34-.41,.03-.72,.21-.91,.52-.19,.31-.24,.68-.14,1.02,.1,.37,.35,.69,.68,.87,.42,.24,.91,.35,1.39,.29,.36-.03,.71-.17,.97-.42,.17-.16,.42-.5,.74-1.04l.27-.44Z"/><path d="M168.72,371.44l5.88-12.23,8.38,4.03-1,2.07-5.91-2.85-1.39,2.89,5.11,2.46-1,2.07-5.1-2.46-2.51,5.2-2.47-1.19Z"/><path d="M185.82,375.7l2.24,1.38c-.67,.75-1.43,1.23-2.28,1.41-.85,.19-1.78,.08-2.78-.33-1.58-.65-2.54-1.64-2.88-2.99-.26-1.07-.14-2.24,.38-3.51,.62-1.51,1.49-2.53,2.63-3.06s2.31-.55,3.51-.06c1.35,.55,2.24,1.44,2.66,2.65,.42,1.21,.23,2.74-.55,4.57l-6.03-2.46c-.27,.72-.31,1.36-.1,1.9,.19,.54,.61,.97,1.15,1.17,.34,.15,.72,.18,1.08,.08,.34-.1,.67-.36,.99-.76Zm1.13-2.38c.27-.7,.3-1.31,.11-1.81-.37-.97-1.46-1.45-2.43-1.07-.05,.02-.09,.04-.14,.06-.5,.24-.88,.69-1.14,1.35l3.6,1.47Z"/><path d="M192.27,371.15l2.28,.74-.41,1.28c1.14-.73,2.27-.91,3.4-.55,.55,.16,1.04,.46,1.44,.87,.37,.41,.62,.92,.72,1.47,.51-.34,1.09-.58,1.69-.69,.55-.09,1.11-.05,1.64,.12,.69,.22,1.22,.55,1.61,.98,.39,.44,.62,.99,.67,1.57,.04,.45-.08,1.13-.37,2.02l-1.93,5.98-2.48-.8,1.72-5.35c.3-.93,.41-1.55,.32-1.88-.12-.43-.41-.72-.89-.87-.35-.11-.73-.11-1.08,0-.39,.12-.73,.38-.96,.72-.27,.36-.54,.99-.83,1.87l-1.45,4.49-2.48-.8,1.65-5.13c.29-.91,.44-1.51,.44-1.8,0-.26-.07-.51-.22-.72-.18-.21-.42-.37-.69-.44-.37-.12-.76-.13-1.13-.02-.38,.11-.71,.35-.94,.68-.26,.35-.53,.97-.82,1.87l-1.47,4.55-2.48-.8,3.02-9.35Z"/><path d="M205.76,385.55l2.44-9.52,2.52,.65-2.44,9.52-2.52-.65Zm2.78-10.81l.6-2.33,2.52,.65-.6,2.33-2.52-.65Z"/><path d="M219.71,388.71l-2.55-.53,1.02-4.91c.22-1.04,.3-1.72,.26-2.05-.04-.31-.17-.6-.38-.82-.23-.23-.52-.38-.83-.44-.42-.09-.86-.05-1.26,.12-.39,.16-.71,.44-.92,.81-.21,.37-.43,1.1-.65,2.17l-.9,4.36-2.55-.53,2-9.62,2.37,.49-.29,1.41c1.07-.91,2.23-1.24,3.51-.97,.53,.1,1.03,.32,1.48,.62,.38,.25,.69,.59,.89,.99,.17,.37,.27,.77,.28,1.17,.01,.42-.06,1-.22,1.74l-1.24,5.98Z"/><path d="M222.42,389.13l1.54-9.71,2.57,.41-1.54,9.71-2.57-.41Zm1.75-11.02l.38-2.38,2.57,.41-.38,2.38-2.57-.41Z"/><path d="M236.62,390.96l-2.59-.28,.55-4.99c.12-1.06,.14-1.74,.06-2.07-.06-.3-.23-.58-.46-.78-.25-.21-.55-.33-.87-.36-.43-.05-.86,.03-1.25,.24-.37,.2-.67,.51-.84,.89-.18,.39-.32,1.13-.44,2.22l-.49,4.43-2.59-.28,1.07-9.77,2.41,.26-.16,1.44c.97-1.01,2.11-1.44,3.4-1.3,.54,.05,1.06,.22,1.53,.48,.4,.21,.74,.52,.99,.9,.21,.35,.34,.74,.39,1.14,.05,.41,.03,1-.05,1.75l-.67,6.08Z"/><path d="M241.75,384.42l-2.34-.53c.31-.94,.79-1.62,1.46-2.05,.67-.43,1.64-.62,2.92-.56,1.16,.05,2.02,.22,2.57,.52s.94,.66,1.15,1.1c.21,.43,.29,1.21,.25,2.34l-.16,3.03c-.04,.86-.02,1.5,.04,1.92,.08,.46,.22,.91,.41,1.34l-2.57-.11c-.06-.18-.13-.43-.22-.78-.04-.16-.06-.26-.08-.31-.43,.39-.93,.7-1.47,.91-.52,.2-1.08,.28-1.63,.25-1.01-.04-1.8-.35-2.36-.93-.56-.57-.82-1.28-.78-2.12,.01-.52,.17-1.03,.46-1.47,.28-.42,.69-.75,1.16-.95,.49-.21,1.18-.38,2.09-.52,1.22-.18,2.08-.35,2.55-.53v-.26c.03-.5-.07-.86-.31-1.08-.24-.22-.7-.35-1.38-.38-.46-.02-.83,.06-1.09,.23-.27,.17-.49,.48-.67,.93Zm3.39,2.26c-.53,.14-1.06,.25-1.6,.33-.73,.12-1.21,.25-1.44,.39-.35,.23-.53,.52-.55,.89-.02,.36,.12,.71,.37,.96,.27,.28,.63,.44,1.02,.44,.49,.02,.96-.12,1.36-.4,.31-.2,.54-.49,.66-.83,.08-.22,.13-.64,.16-1.26l.03-.52Z"/><path d="M264.57,390.96l-2.41,.14-.08-1.44c-.33,.55-.8,1.01-1.35,1.33-.49,.29-1.05,.46-1.63,.5-1.13,.07-2.12-.33-2.98-1.2s-1.33-2.11-1.42-3.73c-.09-1.66,.23-2.95,.96-3.86s1.7-1.4,2.89-1.47c1.1-.06,2.07,.34,2.92,1.2l-.28-4.88,2.6-.15,.77,13.55Zm-7.22-4.73c.06,1.05,.25,1.8,.56,2.25,.46,.65,1.06,.96,1.81,.92,.6-.03,1.09-.32,1.48-.85s.56-1.3,.5-2.31c-.07-1.13-.32-1.93-.75-2.4-.74-.82-2.01-.88-2.83-.14-.1,.09-.19,.2-.28,.31-.39,.51-.56,1.26-.51,2.23h0Z"/><path d="M272.65,386.88l2.63,.12c-.22,.98-.65,1.77-1.3,2.35-.65,.58-1.52,.94-2.59,1.07-1.7,.21-3.02-.19-3.97-1.2-.75-.81-1.21-1.89-1.38-3.24-.2-1.62,.07-2.94,.8-3.95s1.75-1.61,3.04-1.77c1.45-.18,2.65,.16,3.61,1.02s1.54,2.27,1.74,4.26l-6.47,.8c.11,.76,.39,1.33,.84,1.71,.43,.37,1,.54,1.57,.46,.37-.03,.72-.19,.98-.46,.25-.25,.42-.63,.5-1.14Zm-.17-2.63c-.11-.74-.37-1.29-.79-1.63-.39-.34-.9-.49-1.41-.42-.54,.05-1.02,.34-1.32,.79-.32,.46-.43,1.04-.34,1.74l3.86-.47Z"/><path d="M283.25,388.38l-2.93-13.25,9.82-2.17,.5,2.24-7.15,1.58,.65,2.94,6.65-1.47,.49,2.23-6.65,1.47,.8,3.61,7.4-1.63,.49,2.23-10.08,2.22Z"/><path d="M304.4,382.97l-2.5,.73-1.4-4.82c-.3-1.02-.54-1.66-.74-1.93-.18-.26-.43-.45-.72-.55-.31-.1-.63-.09-.94,0-.42,.12-.79,.36-1.06,.7-.27,.32-.42,.73-.43,1.15-.01,.43,.13,1.17,.44,2.22l1.25,4.27-2.5,.73-2.76-9.44,2.32-.68,.41,1.39c.51-1.31,1.39-2.14,2.64-2.51,.52-.16,1.06-.21,1.6-.14,.45,.04,.88,.2,1.26,.46,.33,.24,.6,.55,.8,.9,.21,.36,.42,.91,.63,1.64l1.71,5.87Z"/><path d="M307.12,382.77l2.92-.67c.16,.31,.35,.49,.57,.55,.29,.09,.69,.05,1.19-.14,.64-.23,1.08-.5,1.33-.81,.18-.23,.27-.51,.26-.79,0-.23-.1-.62-.29-1.16l-.49-1.35c-.37,1.26-1.11,2.1-2.22,2.51-1.24,.45-2.42,.28-3.52-.5-.87-.62-1.53-1.55-1.98-2.79-.56-1.55-.62-2.87-.17-3.96,.41-1.05,1.27-1.87,2.34-2.23,1.14-.41,2.27-.25,3.37,.48l-.47-1.3,2.29-.83,3.01,8.29c.4,1.09,.6,1.94,.62,2.54,.02,.6-.08,1.12-.3,1.55-.25,.47-.61,.88-1.04,1.19-.48,.37-1.13,.71-1.96,1.01-1.57,.57-2.78,.7-3.62,.4-.85-.3-1.42-.86-1.72-1.68-.03-.09-.06-.19-.09-.3Zm.22-6.21c.36,.98,.81,1.63,1.35,1.95s1.1,.38,1.65,.17c.59-.21,1.05-.66,1.26-1.25,.24-.62,.2-1.38-.13-2.3-.35-.96-.8-1.6-1.37-1.92-.53-.32-1.17-.37-1.75-.15-.57,.19-1.01,.64-1.2,1.21-.22,.59-.15,1.36,.18,2.29h0Z"/><path d="M322.16,372.83l2.55-.63c.07,1-.12,1.88-.59,2.62-.46,.74-1.19,1.33-2.18,1.76-1.57,.68-2.95,.67-4.15-.03-.95-.56-1.7-1.47-2.24-2.72-.65-1.49-.76-2.83-.35-4.02,.41-1.19,1.22-2.04,2.42-2.55,1.34-.58,2.59-.6,3.75-.05,1.16,.55,2.12,1.75,2.88,3.59l-5.98,2.58c.32,.7,.75,1.17,1.29,1.4,.52,.23,1.11,.23,1.63,0,.35-.14,.63-.39,.81-.71,.17-.31,.21-.72,.15-1.23Zm-.91-2.47c-.32-.68-.72-1.13-1.22-1.34-.95-.41-2.06,.03-2.46,.98-.02,.05-.04,.09-.05,.14-.18,.53-.12,1.11,.17,1.76l3.57-1.54Z"/><path d="M336,369.57l-2.32,1.18-2.27-4.47c-.48-.95-.84-1.53-1.08-1.76-.22-.22-.51-.36-.81-.4-.32-.04-.64,.03-.92,.18-.39,.19-.71,.5-.91,.88-.2,.37-.28,.79-.21,1.21,.07,.42,.35,1.12,.85,2.1l2.02,3.97-2.32,1.18-4.45-8.77,2.15-1.09,.65,1.29c.26-1.38,.97-2.36,2.13-2.95,.48-.25,1-.4,1.54-.44,.45-.04,.91,.03,1.32,.22,.37,.18,.69,.43,.95,.74,.27,.32,.57,.82,.92,1.49l2.77,5.44Z"/><path d="M333.83,355.18l2.55,4.29c.22-1.27,.83-2.2,1.83-2.81,.48-.29,1.01-.48,1.56-.54,.46-.06,.94,0,1.37,.18,.38,.17,.73,.42,1.02,.73,.29,.32,.66,.85,1.11,1.61l2.95,4.96-2.24,1.33-2.65-4.46c-.53-.89-.9-1.42-1.13-1.61-.22-.19-.5-.29-.79-.3-.33,0-.66,.09-.93,.27-.35,.2-.64,.5-.83,.86-.19,.37-.24,.79-.16,1.2,.08,.44,.33,1.02,.75,1.73l2.52,4.23-2.24,1.33-6.93-11.67,2.24-1.33Z"/><path d="M346.39,355.3l-2.19,.98c-.32-.94-.34-1.77-.06-2.51,.28-.74,.94-1.47,1.99-2.2,.96-.66,1.75-1.03,2.37-1.13s1.15-.03,1.58,.19c.43,.22,.96,.79,1.6,1.72l1.69,2.52c.49,.71,.88,1.21,1.18,1.5,.34,.32,.72,.6,1.13,.82l-2.12,1.46c-.15-.1-.37-.27-.64-.49-.12-.1-.2-.17-.25-.2-.11,.57-.32,1.11-.63,1.6-.3,.47-.69,.87-1.15,1.18-.83,.57-1.65,.8-2.44,.67-.78-.11-1.48-.56-1.9-1.22-.3-.43-.48-.93-.51-1.45-.03-.51,.1-1.02,.35-1.46,.26-.46,.72-1.02,1.36-1.67,.87-.88,1.45-1.53,1.72-1.96l-.15-.21c-.28-.41-.59-.64-.91-.67s-.77,.14-1.33,.53c-.38,.26-.63,.54-.74,.84-.11,.3-.1,.68,.03,1.15Zm4.06-.23c-.21,.28-.57,.69-1.08,1.22-.51,.54-.81,.93-.91,1.18-.14,.39-.11,.74,.1,1.04,.2,.3,.52,.5,.87,.55,.38,.06,.77-.03,1.08-.26,.4-.28,.69-.68,.85-1.14,.13-.34,.13-.71,.02-1.06-.07-.22-.28-.59-.63-1.1l-.29-.43Z"/><path d="M359.38,354.36l-2.06,1.59-5.99-7.79,1.92-1.47,.85,1.1c-.07-.78-.04-1.35,.09-1.71,.14-.37,.38-.7,.7-.93,.48-.37,1.05-.59,1.66-.66l.74,2.29c-.52,.04-.93,.18-1.23,.41-.27,.2-.46,.48-.55,.8-.08,.31-.02,.72,.19,1.23,.21,.5,.82,1.42,1.84,2.75l1.85,2.41Z"/><path d="M356.1,342.72l-1.54-1.85,2-1.66,1.54,1.85-2,1.66Zm7.14,8.58l-6.29-7.56,2-1.66,6.29,7.56-2,1.66Z"/><path d="M364.18,341.5l-2.02,1.29c-.45-.88-.59-1.7-.42-2.48,.17-.78,.72-1.6,1.66-2.46,.85-.79,1.58-1.27,2.18-1.45,.6-.18,1.13-.2,1.59-.04,.46,.15,1.07,.65,1.83,1.48l2.04,2.25c.59,.64,1.05,1.08,1.39,1.32,.38,.27,.8,.49,1.24,.65l-1.89,1.74c-.17-.08-.4-.21-.7-.4-.14-.08-.23-.14-.27-.16-.03,.58-.16,1.15-.39,1.68-.23,.51-.56,.96-.97,1.34-.74,.69-1.52,1.03-2.32,1.02-.79,0-1.54-.34-2.05-.94-.36-.38-.61-.85-.71-1.36-.1-.5-.05-1.02,.14-1.49,.2-.49,.57-1.11,1.11-1.85,.74-.99,1.21-1.72,1.43-2.18l-.18-.19c-.34-.37-.67-.55-1-.54s-.74,.25-1.24,.71c-.34,.31-.54,.63-.61,.94-.07,.31,0,.69,.18,1.13Zm3.99-.81c-.17,.31-.47,.76-.89,1.37s-.67,1.03-.73,1.29c-.09,.41,0,.75,.25,1.02,.24,.27,.58,.42,.94,.42,.39,0,.76-.14,1.03-.41,.35-.33,.59-.77,.67-1.25,.08-.36,.03-.73-.13-1.05-.1-.21-.36-.54-.78-1l-.35-.38Z"/><path d="M307.21,255.7l-1.85,.76-1.23,.51-.85,.35-.28,.12-.08,.03c-.29,.12-1.87,.67-1.87,.67l-.54-1.19-.23-.56c-.35-.85-.68-1.7-.99-2.56,.05,.35,.1,.71,.15,1.08,.82,5.85,1.42,14.27-2.9,19.92h0v.02l-1.21,1.57-1.58-1.2c-.43-.32-1.98-1.34-1.98-1.34-.81,2.46-1.91,4.81-3.3,6.99l-5.23-4.05c.41-.68,.81-1.33,1.12-2.06,.17-.41,.33-.82,.47-1.24,.37-1.15,.65-2.32,.85-3.51,.13-.72,.24-1.45,.34-2.17,.03-.25,.39-2.69,.33-2.71l-1.46-.33-2.75-.63-1.76-.4-.33-.09s-.14,1.22-.95,3.99l-.56,1.92-1.92-.56-3.11-.91c-.9,4.85-2.58,10.76-3.89,14.09l-1.86-.72-2.49-.97-1.86-.72s3.75-13.18,3.66-21.53h0c-.92,0-1.85,0-2.77-.01l-2.11-.03,.13-2.15c1.01-10.66,1.2-19.91,.57-28.28-.64-8.49-.26-17.47,1.16-27.46,.71-5,1.5-9.32,2.39-13.14,.79,.2,1.62,.15,2.39-.12-.07,.36-.11,.72-.12,1.08,0,2.9,2.34,5.17,5.24,5.17,1.41,0,2.76-.55,3.74-1.55,.32,.99,.93,1.87,1.73,2.53,1.91,1.55,4.65,1.54,6.55-.03,.8-.64,1.39-1.51,1.71-2.49,.98,1,2.35,1.47,3.77,1.47,2.91,0,5.15-2.13,5.15-5.03,0-.33,.02-.79-.04-1.1,.49,.13,.99,.19,1.49,.19,.83,0,1.61-.14,2.31-.48,1.84,8.95,2.97,18.04,3.38,27.17,.08,1.67,.13,3.34,.15,4.97,.05,4.4-.17,8.37-.66,12.13-.14,1.04-.16,2.11-.18,3.24-.01,.81-.03,1.65-.09,2.5-.35,4.83,.83,10.56,3.51,17.02l.77,1.85Z"/><path class="cls-4" d="M268.46,279.63l-2.49-.97c2.45-6.31,4.4-24.23,4.83-33.94,.21-4.79-.34-12.3-.45-17.07-.14-6.08-.2-14.09-.24-20.18-.03-5.43,.5-10.37,2.18-15.56l2.63,.36c-.2-.07-1.48,6.11-1.57,6.69-.32,2.19-.51,4.4-.55,6.62-.2,9.47,2.12,28.13,.07,51.72-.5,5.79-2.3,16.86-4.42,22.33Z"/><path class="cls-4" d="M277.17,267.12l-2.56-.75c1.81-7.22,2.83-30.28,1.37-42.64-1.42-12.02,.81-31.67,.98-32.45l2.65,1.54c-.04,.19-2.35,19.03-.98,30.6,1.36,11.51,1.26,35.98-1.46,43.7Z"/><path class="cls-4" d="M285.2,262.68l-3.21-.67c1.24-5.16,.94-26.16-.67-36.5-1.58-10.08-.08-30.37-.01-31.23l2.66,.2c-.02,.21-1.54,20.85-.01,30.62,1.59,10.22,2.67,32.42,1.24,37.58Z"/><path class="cls-4" d="M287.86,278.13l-2.13-1.72c1.11-2.42,1.96-4.59,2.73-12.24,.58-5.75,.79-12.2,.51-15.68-.19-2.39-.57-5.71-.96-9.22-.83-7.47-1.87-16.77-1.87-22.91,0-2.92,.15-5.55,.29-8.09,.33-5.86,.59-10.49-1.26-14.65l2.23-1.64,.22,.56c2.1,4.76,1.82,9.91,1.48,15.89-.14,2.51-.29,5.09-.29,7.94,0,5.99,1.03,15.21,1.86,22.62,.41,3.69,.77,6.87,.97,9.3,.3,3.68,.33,10.25-.27,16.24-.52,5.11-1.71,10.87-3.49,13.62Z"/><path class="cls-4" d="M294.96,273.62h0c-.68-.5-1.42-.96-2.12-1.43,3.05-5.75,2.53-12.41,1.77-18.65-1.36-11.25-2.41-22.83-1.44-34.16,1.02-11.84-2.24-26.9-2.28-27.05l2.57-.72c.86,3.07,1.22,6.38,1.64,9.53,.79,5.99,1.21,12.06,.75,18.08-.83,10.94,.15,22.06,1.24,32.95,.09,.9,.23,1.94,.39,3.03,.81,5.76,1.27,13.48-2.5,18.42Z"/><path class="cls-4" d="M302.13,255.64c-1.47-3.56-2.57-7.27-3.27-11.06-.8-4.35-.57-8.62-.4-13.03,.06-1.64,.39-3.29,.5-4.94,.12-1.82,.17-3.64,.16-5.46-.02-9.55-.95-19.06-2.51-28.47-.33-2.03-.7-4.05-1.1-6.07,.85-.28,1.77-.25,2.62-.53,2.01,9.27,3.14,18.53,3.59,28,.08,1.63,.12,3.27,.14,4.9,.04,3.96-.13,7.92-.64,11.84-.26,1.95-.14,3.9-.28,5.86-.43,6.03,1.37,12.4,3.66,17.93l-2.47,1.03Z"/><path class="cls-4" d="M264.27,256.27c.9-9.48,1.29-19.1,.57-28.61-.68-9.03-.12-18.08,1.15-27.03,.71-4.99,1.58-9.99,2.82-14.88,.02-.08,.49,1.16,.49,1.16,.07,.31,1.27,3.45,1.13,4.19-.66,3.34-1.4,7.25-1.46,7.64-1.36,8.72-2.08,17.56-1.54,26.38,.59,9.6,.62,19.25-.18,28.84-.02,.2-.17,2.33-.21,2.33h-2.77Z"/><path class="cls-4" d="M248.76,302.02V131.32h-64.19v139.45c0,.19,.06,.38,.18,.53,2.19,2.88,24.41,30.72,64.01,30.72Z"/><path d="M263.64,149.13c.01,.08,.05,.16,.11,.22,.07,.11,.44,.58,1.1,1.41,.52,.67,1.08,1.31,1.66,1.92,.21,.21,.44,.39,.68,.56,.05,.03,.1,.06,.14,.1,.13,.13,.21,.29,.24,.47,.03,.16-.02,.33-.14,.45-.12,.1-.27,.16-.42,.18-.2,.04-.41-.02-.62-.19-.27-.22-.53-.46-.78-.71-.6-.64-1.17-1.31-1.7-2.01-.72-.92-1.08-1.4-1.08-1.44-.07,.07-.32,.36-.77,.87s-.71,.81-.79,.89c-.25,.25-.46,.39-.62,.42-.17,.03-.34-.03-.45-.16-.12-.11-.17-.28-.13-.44,.04-.17,.27-.46,.69-.88,.69-.69,1.34-1.42,1.93-2.2,.65-.87,1.17-1.51,1.56-1.9,.44-.44,.76-.65,.96-.64,.17,0,.33,.06,.45,.17,.24,.24,.25,.46,.04,.67-.07,.07-.18,.17-.35,.31-.17,.14-.35,.31-.56,.52-.62,.61-1,1.08-1.15,1.41Z"/><path d="M272.48,150.77c-.32,.16-.75,.25-1.3,.28-.57,.02-1.12-.17-1.56-.52-.49-.38-.89-.86-1.17-1.41-.19-.39-.34-.8-.46-1.22l-.29-.93c-.05-.16-.1-.31-.15-.46-.07-.23-.14-.45-.22-.66-.12-.28-.17-.58-.16-.88,.02-.22,.16-.42,.37-.51,.11-.06,.27-.03,.47,.09s.33,.22,.38,.31c.03,.07,.13,.44,.3,1.13,.04,.17,.17,.58,.38,1.22,.13,.44,.3,.86,.48,1.28,.4,.78,.84,1.22,1.32,1.32s.84,.09,1.08-.03c.78-.4,1.23-.84,1.36-1.32s.04-1.12-.26-1.92c-.06-.15-.1-.29-.14-.42-.13-.33-.26-.64-.38-.94-.48-1.12-.72-1.85-.72-2.2s.13-.58,.39-.71c.32-.16,.58-.04,.8,.38,.13,.25,.3,.73,.52,1.46,.13,.43,.28,.85,.46,1.26,.42,.96,.64,1.7,.66,2.24,.02,.53-.14,1.1-.5,1.7-.35,.6-.9,1.09-1.65,1.47Z"/><path d="M276.23,146.83l.15-1.78c.11-1.4,.14-2.38,.08-2.92-.02-.18-.03-.36-.01-.54,.03-.12,.1-.23,.2-.3,.12-.1,.26-.17,.42-.19,.13-.01,.26,0,.38,.06,.15,.05,.29,.25,.43,.6,.22,.57,.69,1.31,1.42,2.21,.59,.76,1.23,1.47,1.92,2.15,.05-.6,.1-1.38,.13-2.35,.02-.68,.05-1.28,.08-1.78,.02-.37,.02-.74,0-1.11-.02-.3,.04-.52,.19-.64,.13-.12,.3-.19,.47-.22,.15-.01,.3,.06,.39,.19,.13,.16,.21,.36,.23,.56,.02,.27,0,.54-.05,.8-.13,1.03-.21,2.07-.24,3.11-.04,1.26-.06,1.98-.03,2.16l.02,.17c.03,.15,.03,.3,0,.45-.04,.12-.11,.23-.21,.3-.15,.11-.32,.18-.5,.19-.2,.06-.41-.01-.53-.18-.13-.13-.25-.27-.36-.41-.14-.19-.28-.36-.44-.53-1.03-1.03-1.98-2.14-2.83-3.33-.05,.44-.08,1.45-.09,3.03v.47c0,.16,0,.4,.02,.7,.02,.37-.03,.64-.16,.82-.13,.18-.27,.28-.41,.3-.22,.03-.39,0-.5-.11s-.19-.33-.23-.67c-.03-.4-.01-.81,.05-1.2v-.03Z"/><path d="M285.62,146.33c-.23,.29-.47,.56-.73,.82-.4,.42-.66,.65-.79,.68-.1,.03-.21,.04-.32,.02-.12-.03-.25-.12-.39-.29-.14-.17-.2-.32-.17-.47,.03-.13,.6-.75,1.72-1.86,.61-.61,1.18-1.21,1.71-1.82,1.06-1.23,1.7-1.94,1.92-2.13s.42-.27,.6-.23c.29,.06,.48,.18,.57,.35,.05,.06,.06,.18,.02,.36-.02,.11-.05,.21-.1,.31,.22,2.01,.41,3.44,.6,4.3,.18,.85,.41,1.49,.69,1.92,.09,.13,.18,.27,.25,.42,.03,.08,.03,.17,0,.26-.03,.18-.14,.33-.3,.42-.16,.1-.34,.13-.52,.09-.26-.06-.49-.26-.69-.61-.23-.43-.39-.9-.49-1.38-.12-.57-.18-.88-.16-.95,0-.01,0-.02-.02-.03-.18-.04-.6-.06-1.26-.07-.53-.01-1.06,0-1.59,.05-.09,.01-.18,0-.27,0-.11-.02-.21-.07-.29-.16Zm3.24-.93c-.04-.22-.13-.97-.26-2.28-.01-.12-.02-.2-.03-.23l-2.02,2.42c.22,0,.44,.02,.67,.04,.15,.02,.54,.03,1.18,.03,.16,0,.31,0,.46,.01Z"/><path d="M299.19,146.54c-.11,0-.21-.02-.3-.07-.05-.03-.1-.06-.15-.11-.12-.09-.24-.17-.38-.24-.43-.23-.87-.44-1.33-.63-.51-.21-.87-.33-1.09-.36-.57,.55-1.07,1.17-1.49,1.85,.13,.05,.27,.1,.4,.16,.49,.21,.96,.39,1.41,.54,.3,.1,.59,.22,.86,.36,.46,.25,.6,.54,.42,.86-.07,.08-.16,.14-.26,.16-.13,.05-.27,.06-.4,.05-.22-.04-.43-.11-.64-.19l-1.29-.52c-.37-.16-.74-.29-1.13-.4-.04,0-.09,.01-.12,.04-.13,.16-.26,.33-.37,.51-.21,.31-.38,.6-.54,.88l-.3,.58c-.2,.36-.46,.44-.79,.26-.18-.1-.31-.26-.38-.45-.08-.21-.07-.44,.05-.63,.33-.56,.68-1.09,1.07-1.61,.03-.03,.8-1.06,2.32-3.08,.05-.09,.09-.19,.1-.29,.01-.12,.05-.24,.1-.35,.06-.11,.19-.19,.38-.23,.15-.05,.31-.04,.45,.02,.08,.04,.15,.09,.21,.15,.1,.09,.21,.16,.33,.23,.12,.07,.63,.29,1.53,.66,.44,.18,.87,.37,1.28,.59,.24,.11,.44,.29,.59,.5,.11,.18,.14,.3,.1,.37-.13,.25-.39,.4-.67,.39h.01Z"/><path d="M304.66,151.73l-1.19-1.06c-.36-.32-.73-.62-1.12-.9-.33-.23-.52-.35-.57-.34-.05,0-.14,.06-.27,.18-.25,.19-.5,.36-.77,.52-.24,.14-.47,.29-.68,.47,.23,.22,.47,.43,.73,.62,.23,.19,.47,.36,.72,.52,.34,.19,.66,.42,.95,.68,.39,.38,.47,.69,.24,.92-.17,.17-.34,.23-.51,.19-.24-.08-.45-.2-.64-.36-.16-.12-.34-.26-.54-.4-.11-.08-.24-.18-.39-.3-.76-.59-1.22-.92-1.39-1h0c-.05-.03-.12-.03-.18,0-.23,.13-.44,.28-.65,.44-.26,.18-.51,.38-.74,.59-.07,.09-.06,.22,.03,.29h0c.12,.12,.46,.4,1.03,.82,.57,.43,.92,.69,1.07,.78,.27,.16,.52,.34,.76,.54,.27,.35,.28,.65,.04,.89-.09,.1-.23,.16-.36,.15-.35-.13-.76-.4-1.22-.8-.36-.31-.8-.67-1.35-1.08-.48-.3-.93-.65-1.34-1.05-.2-.2-.3-.38-.3-.55,0-.21,.09-.4,.23-.55l.11-.13c.09-.06,.18-.12,.28-.16,.39-.21,1.18-.76,2.34-1.66s1.81-1.41,1.92-1.53c0-.02,0-.03,0-.05,0-.08,.03-.15,.05-.23,.04-.11,.1-.22,.18-.3,.03-.04,.07-.07,.12-.09,.06-.04,.16-.04,.31,0,.13,.03,.25,.1,.34,.19,.12,.11,.23,.24,.33,.37,.2,.2,.94,.78,2.2,1.74,.42,.32,.64,.48,.66,.5l.06,.05c.47,.4,.55,.76,.24,1.08-.1,.07-.22,.11-.34,.1-.13,.02-.27,0-.39-.06Z"/><path class="cls-1" d="M221.35,289.19c-.28,0-.56,0-.83,0-.72-.02-1.43-.05-2.1-.11h-.02c-4.45-.16-8.83-1.14-12.93-2.89-4.07-1.75-7.63-4.21-10.31-7.12-5.13-5.57-7.42-12.18-7.42-21.45,0-11.81,6.07-20.17,11.36-26.14,2.22-2.51,4.24-4.44,6.01-6.14,1.51-1.44,2.93-2.81,4.26-4.31,1.14-1.29,1.85-2.2,2.78-3.85,.02-.04,.05-.09,.09-.15,.39-.66,1.32-2.19,1.83-6.16,.7-5.38,.38-30.88,.26-38.56v-.35h-.02c-.06-1.39-.24-2.77-.53-4.13-.5-2.31-.91-5.54-3.19-7.77-.17-.17-.26-.42-.35-.53,.08-.05,.12-.24,.18-.26,.37-.2,.26-.21,1.19-.45l.33-.08-.25-1.17-.35,.07h-.03s-.08-.03-.09-.07l-.45-2.1s.02-.09,.07-.11l1.07-.23h.02s.08,.03,.09,.07l.45,2.1s-.02,.09-.07,.1l-.36,.07,.25,1.19,.34-.06c.24-.05,.5-.09,.78-.13l.35-.05-.65-4.03-.35,.05h-.02s-.08-.03-.09-.08l-.34-2.13s.03-.09,.07-.1l1.08-.17h.01s.08,.03,.09,.07l.34,2.13s-.02,.09-.07,.1l-.37,.05,.64,4.07,.33-.04c.32-.03,.66-.07,1-.09l.39-.03-.28-1.57-.36,.07h-.01s-.08-.03-.09-.07l-.37-2.12s.03-.09,.07-.1l1.07-.19h.02s.08,.03,.09,.07l.37,2.12s0,.05-.02,.07c-.01,.02-.03,.03-.06,.04l-.36,.07,.28,1.59,.31-.02c.26-.01,.53-.03,.81-.04h.38l-.46-4.4-.37,.05h0s-.08-.03-.09-.08l-.22-2.14s0-.05,.02-.06c.01-.02,.04-.03,.06-.03l1.09-.11h0s.08,.03,.09,.08l.23,2.14s0,.05-.02,.07c-.01,.02-.04,.03-.06,.03l-.36,.05,.46,4.38h.38l.31-.03v-.31c.02-.31,.04-.63,.08-.98,.04-.32,.09-.66,.16-1.1,.02-.13,.04-.25,.06-.37,.04-.25,.09-.5,.12-.76,.08-.52,.13-.95,.15-1.36,.01-.25,.02-.48,.02-.7,0-.21-.02-.42-.07-.62-.12-.45-.37-.85-.71-1.16-.23-.2-.58-.45-.61-.47l-.05-.05h-.02c-.3-.25-.56-.53-.77-.84-.22-.31-.39-.65-.53-1-.13-.35-.24-.71-.3-1.08-.06-.36-.09-.73-.08-1.1v-.1c0-.06,0-.12,.01-.18v-.15s.02-.05,.02-.07l.03-.23c.02-.13,.04-.25,.06-.37l.12-.54c.03-.11,.06-.22,.09-.33,.02-.06,.04-.13,.05-.19,.44-1.43,1.12-2.75,1.72-3.91,.31-.6,.64-1.25,.94-1.9l.2-.49c.05-.11,.08-.22,.12-.33,.02-.06,.04-.11,.06-.17,.05-.12,.08-.25,.12-.37,.01-.05,.03-.09,.04-.14l.07-.25,.05-.15,.04-.12,.1-.42,.1,.42,.03,.11,.05,.16,.07,.24c.02,.05,.03,.1,.04,.15,.04,.12,.07,.25,.12,.37,.02,.05,.04,.11,.06,.16,.04,.11,.08,.22,.12,.33l.2,.48c.29,.67,.63,1.31,.94,1.92,.6,1.16,1.28,2.48,1.72,3.91l.05,.19c.03,.11,.06,.22,.09,.33l.12,.54c.02,.12,.04,.25,.06,.37l.03,.23s0,.05,.01,.07v.14c.02,.06,.02,.12,.02,.18v.1c.02,.75-.11,1.49-.38,2.19-.14,.35-.32,.69-.53,1-.22,.31-.48,.59-.77,.83h-.02l-.05,.06h0s-.37,.28-.61,.48c-.34,.31-.59,.71-.71,1.15-.05,.2-.07,.41-.07,.63,0,.21,0,.44,.02,.69,.03,.41,.07,.85,.15,1.36,.04,.25,.08,.5,.12,.76,.02,.12,.04,.25,.06,.37,.08,.45,.13,.79,.16,1.1,.04,.35,.06,.67,.07,.98v.34h.7l.46-4.38-.36-.05s-.08-.05-.08-.1h0l.22-2.14s.04-.08,.09-.08h0l1.09,.11s.08,.05,.08,.1l-.23,2.14s-.04,.08-.09,.08h0l-.36-.05-.46,4.38h.38c.25,.02,.5,.03,.81,.05l.31,.02,.28-1.59-.36-.07s-.08-.05-.08-.1h0l.37-2.12s.04-.07,.09-.07h.02l1.08,.19s.08,.05,.07,.1l-.37,2.12s-.04,.07-.09,.07h-.02l-.36-.07-.28,1.56,.39,.03c.35,.03,.69,.06,1,.09l.33,.04,.64-4.06-.37-.05s-.08-.05-.07-.1l.34-2.13s.04-.07,.09-.07h.01l1.08,.17s.08,.05,.07,.1l-.34,2.13s-.04,.07-.09,.08h-.01l-.36-.05-.64,4.03,.35,.05c.29,.04,.54,.08,.78,.13l.34,.06,.25-1.18-.36-.09s-.07-.06-.06-.1l.45-2.1s.05-.07,.09-.07h.02l1.07,.23s.08,.06,.07,.11l-.45,2.1s-.05,.07-.09,.07h-.02l-.36-.07-.25,1.17,.33,.08c.96,.24,.84,.19,1.18,.37,.06,.03,.27,.04,.35,.09-.09,.11-.37,.81-.53,.97l-.18,.35c-3.53,3.45-3.36,8.65-3.49,10.94v.02c.31,18.53,.58,31.38,.76,37.19v.06c.21,1.05,1.34,4.67,2.35,6.45,.97,1.73,2.22,3.5,3.93,5.56,1.39,1.66,2.9,3.28,4.36,4.84l.25,.27c1.76,1.88,3.22,3.46,4.62,5.21,3.55,4.38,5.96,7.94,7.81,11.54,1.08,2.08,1.95,4.26,2.62,6.5l.08,.3c.12,.46,.24,.94,.36,1.41l.17,.87,.1,.49c.03,.13,.05,.25,.06,.36l.12,.89c.01,.09,.02,.18,.04,.28,.03,.2,.05,.39,.06,.58l.07,.9c0,.05,0,.1,.01,.16,0,.09,.02,.18,.02,.27v.44c.11,2.35-.05,4.7-.45,7.01-.42,2.31-1.07,4.57-1.96,6.75h0c-.07,.2-.15,.37-.23,.57-.04,.08-.07,.16-.11,.24l-.36,.8-.44,.88c-.12,.24-.23,.46-.36,.68l-.15,.27c-.23,.42-.47,.85-.73,1.26-.06,.09-.12,.19-.17,.28-.1,.16-.2,.32-.3,.48l-.75,1.1c-.05,.07-.11,.15-.17,.23l-.09,.12-.53,.71c-.11,.15-.23,.29-.35,.44l-.2,.24-.19,.23c-.12,.15-.24,.3-.37,.44l-.89,.98-.31,.31-.63,.63c-.13,.13-.27,.25-.41,.38l-.23,.21c-.87,.79-1.78,1.53-2.73,2.22-.15,.11-.32,.22-.48,.33l-.25,.17-.24,.16c-.16,.11-.32,.22-.48,.31s-.3,.18-.44,.27c-.35,.22-.72,.44-1.08,.63h0c-2.06,1.13-4.26,2.01-6.53,2.61l-1.29,.31c-.09,.02-.17,.03-.26,.05l-.17,.03-.33,.06c-.46,.09-.94,.18-1.4,.24-1.15,.17-2.32,.29-3.49,.37-.89,.06-1.78,.09-2.67,.09Z"/><path d="M253.94,256.21v-.44c-.02-.15-.04-.3-.05-.44l-.07-.89c-.02-.3-.07-.59-.1-.89l-.12-.89c-.02-.15-.05-.29-.08-.44l-.09-.44-.17-.88c-.14-.58-.29-1.15-.44-1.73-.67-2.27-1.55-4.47-2.64-6.57-2.15-4.2-4.92-8-7.85-11.6-1.46-1.83-3.06-3.54-4.63-5.23s-3.15-3.36-4.61-5.1c-1.46-1.74-2.81-3.56-3.9-5.51-.99-1.77-2.1-5.37-2.31-6.35-.32-9.95-.77-37.7-.79-38.88,.06-.9,.23-2.22,.7-3.26,1.09-2.41,1.41-3.35,3-6.53,.43-.85,.62-.79-.18-1.15-.36-.16-.73-.29-1.1-.4l.11-.54h.01c.24,.05,.47-.1,.52-.34l.45-2.1c.05-.24-.1-.47-.34-.52l-1.07-.23c-.24-.05-.47,.1-.52,.34l-.45,2.1c-.05,.24,.1,.47,.34,.52h.01l-.1,.49c-.24-.05-.5-.11-.79-.16l.52-3.31h.01c.24,.03,.46-.13,.5-.37l.34-2.13c.04-.24-.13-.46-.37-.5l-1.08-.17c-.24-.04-.46,.13-.5,.37l-.34,2.13c-.04,.24,.13,.46,.37,.5h.01l-.52,3.31c-.31-.04-.65-.08-1.01-.12l.13-.73h.01c.24,.04,.47-.12,.51-.36l.37-2.12c.04-.24-.12-.47-.36-.51l-1.08-.18c-.24-.04-.47,.12-.51,.36l-.37,2.12c-.04,.24,.12,.47,.36,.51h.01l-.14,.82c-.26-.02-.54-.04-.82-.05l.37-3.51h.01c.24,.02,.46-.15,.48-.39l.23-2.14c.02-.24-.15-.46-.39-.49l-1.09-.11c-.24-.03-.46,.15-.48,.39l-.23,2.14c-.02,.24,.15,.46,.39,.48h.01l-.38,3.58h-.05c-.01-.29-.04-.57-.07-.86-.04-.37-.1-.75-.16-1.12s-.13-.75-.19-1.12c-.07-.44-.12-.88-.15-1.33-.01-.22-.02-.45-.02-.67,0-.18,.01-.36,.05-.53,.1-.38,.31-.72,.6-.98,.23-.2,.59-.45,.59-.45,.02-.01,.04-.03,.06-.05h0c.33-.26,.62-.58,.87-.93,.23-.34,.42-.7,.57-1.08,.29-.74,.42-1.53,.4-2.33,0-.1,0-.2-.02-.3v-.15s-.03-.09-.03-.14c-.03-.19-.05-.37-.08-.56l-.12-.55c-.05-.18-.1-.36-.15-.54-.43-1.43-1.1-2.72-1.75-3.97-.33-.63-.65-1.25-.93-1.89l-.2-.48c-.07-.16-.12-.32-.18-.48s-.1-.33-.15-.49l-.07-.25-.05-.16-.03-.1h0l-.42-1.77s-.02-.02-.03-.02c0,0-.01,0-.02,.02l-.42,1.77h0l-.03,.1-.05,.16-.07,.25c-.05,.16-.09,.33-.15,.49s-.11,.32-.18,.48l-.2,.48c-.28,.64-.6,1.26-.93,1.89-.65,1.25-1.31,2.55-1.75,3.97-.05,.18-.1,.36-.15,.54l-.12,.55c-.03,.19-.06,.37-.08,.56,0,.05-.01,.09-.02,.14v.15c-.02,.1-.02,.2-.03,.3,0,.4,.02,.79,.09,1.18,.07,.39,.17,.78,.32,1.15,.15,.38,.34,.74,.57,1.08,.24,.35,.53,.66,.87,.93h0s.03,.04,.06,.05c0,0,.36,.26,.59,.45,.29,.26,.5,.61,.6,.98,.04,.17,.06,.35,.05,.53,0,.22,0,.45-.02,.67-.03,.44-.08,.89-.15,1.33-.06,.37-.12,.75-.19,1.12s-.12,.75-.16,1.12c-.03,.29-.05,.57-.07,.86h-.05l-.38-3.58h.01c.24-.03,.42-.24,.39-.48l-.23-2.14c-.03-.24-.24-.42-.48-.39l-1.09,.11c-.24,.03-.42,.24-.39,.49l.23,2.14c.03,.24,.24,.42,.48,.39h.01l.37,3.51c-.28,.02-.56,.03-.82,.05l-.14-.82h.01c.24-.04,.4-.27,.36-.51l-.37-2.12c-.04-.24-.27-.4-.51-.36l-1.06,.19c-.24,.04-.4,.27-.36,.51l.37,2.12c.04,.24,.27,.4,.51,.36h.01l.13,.73c-.36,.04-.69,.08-1.01,.12l-.52-3.31h.01c.24-.04,.4-.26,.37-.5l-.34-2.13c-.04-.24-.26-.4-.5-.37l-1.08,.17c-.24,.04-.4,.26-.37,.5l.34,2.13c.04,.24,.26,.4,.5,.37h.01l.52,3.31c-.28,.05-.55,.1-.79,.16l-.11-.49h.01c.24-.05,.39-.29,.34-.52l-.45-2.1c-.05-.24-.29-.39-.52-.34l-1.07,.21c-.24,.05-.39,.28-.34,.52l.45,2.1c.05,.24,.28,.39,.52,.34h.01l.12,.54c-.38,.11-.74,.24-1.1,.4-.79,.35-.6,.29-.18,1.15,1.59,3.17,1.91,4.12,3,6.53,.49,1.1,.66,2.51,.71,3.41,.04,2,.58,34.67-.22,40.84-.56,4.27-1.59,5.67-1.88,6.18-.95,1.69-1.67,2.58-2.74,3.78-2.89,3.26-6.17,5.8-10.28,10.44-5.33,6.01-11.45,14.45-11.45,26.37,0,9.35,2.32,16.04,7.52,21.68,5.54,6.01,14.45,9.83,23.5,10.12,.71,.06,1.41,.09,2.12,.11,1.18,.02,2.36,0,3.53-.08,1.18-.07,2.35-.2,3.51-.37,.58-.08,1.17-.2,1.75-.3,.15-.03,.29-.05,.44-.08l.43-.1,.87-.21c2.3-.6,4.53-1.49,6.61-2.64,.53-.27,1.03-.6,1.54-.9,.26-.15,.5-.33,.75-.49s.49-.33,.74-.5c.96-.7,1.89-1.45,2.76-2.25,.22-.2,.44-.4,.65-.61l.63-.63,.31-.32,.3-.33,.6-.66c.2-.22,.38-.46,.57-.68s.38-.45,.56-.69l.53-.71c.09-.12,.18-.24,.27-.36l.25-.37,.5-.74c.16-.25,.31-.5,.47-.75,.32-.5,.6-1.02,.89-1.54,.15-.26,.28-.52,.41-.79l.4-.8,.36-.81c.12-.27,.25-.54,.35-.82,.89-2.2,1.55-4.48,1.98-6.81,.4-2.34,.55-4.71,.45-7.08Zm-38.62-43.78v-.03c.69-6.5,.77-35.29,.76-41.4h1.76l-.4,57.86c-.83,.17-1.64,.42-2.43,.75l.3-17.18Zm8.23-41.43c.05,1.49,.15,4.33,.27,7.84l.88,50.42c-.74-.24-1.49-.42-2.25-.54l-.4-57.73h1.5Zm-.69,116.62l-.13-18.51h2.67l.31,18.03c-.94,.21-1.9,.37-2.85,.48h0Zm-.16-22.47l-.06-8.7c.86-.14,1.71-.37,2.53-.67l.16,9.36h-2.63Zm-1.56-94.15l.4,57.62c-.4-.03-.8-.05-1.21-.05-.66,0-1.32,.05-1.97,.14l.4-57.7h2.38Zm-1.8,82.99c.8,0,1.59-.07,2.37-.22v1.5c-1.17,.13-2.36,.09-3.54-.11v-1.24c.4,.04,.78,.05,1.17,.05h0Zm.99,2.66c.47,0,.94-.02,1.4-.07l.06,8.57h-3.67l.06-8.67c.71,.11,1.44,.17,2.16,.17h0Zm2.31-1.5v-1.57c.85-.22,1.68-.53,2.48-.93l.03,1.77c-.81,.33-1.65,.58-2.51,.74h0Zm3.38-3c3.6-2.17,6-6.04,6-10.45s-2.56-8.55-6.37-10.67h0c6.4,2.93,9.21,10.5,6.27,16.9-1.21,2.63-3.28,4.78-5.87,6.08l-.03-1.86Zm-12.31,.57v.78c-1.57-.95-2.91-2.23-3.93-3.74,1.11,1.23,2.44,2.24,3.93,2.96Zm.9,.39c.86,.34,1.76,.58,2.67,.72v1.16c-.93-.23-1.83-.56-2.68-.99l.02-.89Zm2.65,3.21l-.06,8.84h-2.8l.17-9.74c.87,.39,1.77,.69,2.69,.89h0Zm-.09,12.8l-.13,18.61c-.98-.08-2-.2-3.03-.37l.32-18.24h2.84Zm.78,18.64l.13-18.64h3.74l.13,18.6c-.81,.07-1.63,.1-2.45,.1-.34,0-.68,0-1.02-.02-.17-.01-.34-.03-.52-.05h0Zm8.67-.82l-.31-17.82h2.91c.19,0,.34-.15,.34-.34h0v-3.27c0-.19-.15-.34-.34-.34h-2.98l-.17-9.73c7.08-3.17,10.24-11.48,7.07-18.55-1.48-3.3-4.17-5.9-7.52-7.26l-.18-10.71c1.11,1.2,5.62,6.13,7.8,8.85,1.39,1.74,2.91,3.44,4.1,4.84,4.18,4.93,10.98,14.73,10.98,25.35,0,14.19-9.08,25.78-21.68,28.99h0Zm-7.92-137.73h0c-.21-.15-.4-.33-.55-.54-.17-.22-.32-.46-.43-.71-.12-.27-.21-.54-.28-.83-.07-.29-.1-.58-.11-.87v-.44c.01-.06,.02-.13,.02-.19,0-.1,.02-.19,.03-.29l.08-.48c.02-.1,.04-.19,.06-.29,.02-.06,.03-.13,.04-.18,.32-1.3,.91-2.57,1.49-3.81,.13-.28,.27-.56,.4-.82,.16-.33,.34-.67,.5-1.04l.06-.15,.06,.15c.16,.37,.34,.71,.5,1.04,.13,.26,.27,.54,.4,.82,.58,1.23,1.17,2.5,1.49,3.8,.01,.06,.03,.13,.04,.19,.02,.1,.05,.2,.06,.28l.08,.49c.01,.1,.02,.19,.03,.29,0,.06,.01,.13,.02,.19v.04s0,.05,0,.07v.33c-.01,.29-.05,.59-.11,.87-.07,.28-.16,.56-.28,.83-.11,.25-.26,.49-.43,.71-.15,.2-.34,.38-.55,.53h0c-.1,.07-.2,.13-.31,.19-.11,.05-.21,.09-.33,.12h-.01c-.11,.03-.23,.05-.34,.07-.03,0-.06,0-.09,0s-.06,0-.1,0h-.27s-.07,0-.1,0-.06,0-.09,0c-.11-.01-.23-.04-.34-.07h-.01c-.11-.03-.22-.07-.33-.12-.11-.05-.21-.11-.31-.18h0Zm-22.56,129.03c-4.88-5.3-7.06-11.63-7.06-20.51,0-11.35,5.89-19.44,11.02-25.23,4.06-4.58,7.03-7.37,10.17-10.33,1.05-.99,2.08-1.8,3.23-2.91l.8-.69-.2,11.48c-6.95,3.44-9.79,11.86-6.35,18.81,1.29,2.61,3.36,4.75,5.92,6.13l-.18,10.19h-2.99c-.19,0-.34,.15-.34,.34v3.27c0,.19,.15,.34,.34,.34h2.92l-.32,18.07c-5.85-1.13-12.26-3.86-16.96-8.96Zm55.58-15.23c-.4,2.21-1.02,4.38-1.87,6.46-.1,.26-.22,.52-.33,.77l-.34,.77-.38,.75c-.13,.25-.25,.5-.39,.75-.27,.49-.54,.99-.84,1.46-.15,.24-.29,.48-.44,.71l-.47,.7-.24,.35c-.08,.12-.17,.23-.25,.34l-.5,.67c-.17,.23-.35,.43-.53,.65s-.35,.44-.54,.65l-.56,.62-.28,.31-.3,.3-.59,.6c-.2,.2-.41,.38-.62,.57-.83,.76-1.7,1.46-2.61,2.12-.23,.16-.46,.31-.69,.47s-.46,.32-.7,.46c-.48,.28-.95,.59-1.45,.85-.4,.22-.8,.43-1.21,.62,1.9-1.19,3.67-2.59,5.26-4.17,5.91-5.86,9.17-13.97,9.17-22.84,0-11.17-7.16-21.46-11.49-26.56-1.18-1.39-2.44-2.95-3.79-4.71-.74-.98-1.42-2.01-2.04-3.08,2.72,2.94,5.78,5.5,8.23,8.54,2.89,3.55,5.58,7.26,7.65,11.29,1.04,2,1.88,4.09,2.52,6.25,.14,.54,.28,1.08,.42,1.63l.16,.82,.08,.41c.03,.14,.06,.27,.07,.41l.11,.83c.03,.28,.08,.55,.1,.83l.07,.84c.01,.14,.03,.28,.03,.42v.42c.1,2.24-.05,4.48-.43,6.69h0Z"/><path d="M306.26,173.67c0-2.68-2.03-4.93-4.69-5.23-.74-9.86-9.01-17.55-18.93-17.55s-18.19,7.69-18.93,17.55c-2.89,.33-4.96,2.94-4.63,5.83,.26,2.24,1.92,4.07,4.13,4.55-1.84,2.25-1.5,5.56,.75,7.39,.7,.57,1.54,.95,2.43,1.11h0c.3,.05,.6,.08,.9,.08,.39,0,.78-.04,1.16-.13,.1-.02,.19-.05,.29-.07-.53,2.86,1.35,5.6,4.21,6.14,.32,.06,.64,.09,.96,.09,.22,0,.44-.01,.66-.04,1.17-.15,2.25-.68,3.08-1.52,.31,.98,.9,1.85,1.7,2.49,.02,.02,.05,.04,.07,.06,1.79,1.39,4.27,1.48,6.16,.23,.13-.09,.26-.18,.38-.28,.57-.46,1.04-1.04,1.38-1.7,.13-.25,.24-.52,.33-.79,.91,.93,2.14,1.48,3.44,1.56,.1,0,.2,0,.3,0,.82,0,1.63-.19,2.37-.56,1.08-.55,1.94-1.45,2.44-2.55,.3-.67,.46-1.41,.46-2.15,0-.32-.03-.65-.09-.96,.47,.13,.96,.2,1.45,.2,.13,0,.26,0,.38-.01,.67-.05,1.33-.23,1.93-.52h0c2.61-1.27,3.69-4.42,2.41-7.03-.18-.36-.4-.7-.65-1.02,2.42-.52,4.16-2.66,4.16-5.14Zm-23.62-20.92c9.44,0,17.12,7.68,17.12,17.12v.24c0,.26-.01,.54-.03,.81-.01,.2-.03,.39-.05,.57h0c-.2,2.17-.82,4.28-1.82,6.21-.12,.23-.24,.44-.35,.65-.01,.02-.02,.04-.04,.06-.16,.28-.33,.55-.49,.8-.89,1.37-1.98,2.6-3.22,3.67-.26,.22-.53,.44-.79,.64-.35,.27-.73,.54-1.13,.79-.5,.32-1.01,.61-1.54,.88-.45,.22-.89,.42-1.32,.59-1.33,.53-2.73,.9-4.16,1.08-2.86,.37-5.77,0-8.46-1.05-.49-.2-.96-.41-1.4-.63-.52-.26-1.02-.55-1.51-.86-.37-.24-.74-.5-1.11-.77-.27-.21-.54-.42-.79-.63-1.26-1.07-2.35-2.32-3.26-3.7-.16-.24-.32-.5-.48-.77-.02-.03-.03-.06-.05-.08-.13-.23-.24-.44-.35-.63-.88-1.69-1.47-3.52-1.73-5.41h0v-.02h0c-.04-.24-.07-.5-.09-.78h0c-.02-.21-.03-.41-.05-.59-.02-.28-.03-.56-.03-.81h0v-.23c-.01-9.44,7.67-17.12,17.11-17.12Zm8.77,39.16c-1.09,0-2.13-.47-2.84-1.3,.48-.17,.95-.36,1.42-.57,1.33-.6,2.58-1.34,3.73-2.23,.33-.26,.66-.52,.98-.8l.04-.04,.18-.16c.17,.43,.25,.89,.25,1.35,0,2.07-1.68,3.75-3.75,3.76Zm-12.38-.68c2.39,.5,4.86,.5,7.25,.01-.44,1.64-1.93,2.77-3.62,2.76-1.69-.01-3.17-1.14-3.62-2.77Zm7.98-2.09c-.17,.05-.36,.1-.58,.15-.07,.02-.13,.03-.2,.05-.4,.09-.8,.17-1.2,.23-1.98,.3-4,.21-5.95-.24h-.01c-.06-.01-.11-.03-.17-.04h-.03c-.16-.05-.36-.1-.57-.16l-.05-.02-.16-.05c-.23-.07-.46-.15-.69-.23-1.99-.7-3.83-1.78-5.41-3.17-.06-.05-.13-.11-.2-.17-.03-.03-.06-.05-.09-.08-.09-.08-.19-.17-.28-.26l.29,.21,.59,.42c1.65,1.08,3.46,1.89,5.37,2.41,.29,.08,.61,.16,.92,.22,.11,.03,.23,.05,.35,.07,.32,.07,.64,.12,.99,.17,1.81,.26,3.64,.26,5.44,0,.32-.04,.65-.1,.98-.17,.15-.03,.26-.05,.36-.08,.34-.07,.65-.15,.93-.23,1.9-.52,3.7-1.33,5.35-2.41,.09-.06,.19-.12,.29-.19,.11-.07,.22-.15,.32-.22,.06-.04,.12-.09,.17-.13,.11-.08,.23-.17,.36-.27-.06,.06-.11,.11-.18,.17-.12,.12-.25,.24-.42,.39l-.18,.16-.05,.04c-1.77,1.54-3.84,2.68-6.09,3.35-.08,.02-.15,.04-.21,.06h0Zm-13.11,2.76c-2.07,0-3.75-1.68-3.75-3.75,0-.47,.09-.94,.26-1.38l.19,.17,.05,.04c.26,.23,.52,.45,.79,.66,.22,.18,.45,.35,.68,.52,1.42,1.03,2.98,1.85,4.64,2.44-.71,.83-1.76,1.31-2.85,1.31h0Zm-4.62-6.26s.02-.04,.03-.06v.08h-.01l-.02-.02Zm.86,.87h0Zm25.04,.03h0Zm-34.63-12.89c.01-1.82,1.32-3.37,3.11-3.7v.06c0,.27,0,.54,.02,.81,.03,.54,.08,1.08,.15,1.6v.02c.07,1.67,.34,3.33,.8,4.94-.11,.01-.22,.02-.33,.02-2.07,0-3.75-1.68-3.75-3.76Zm2.98,8.46c0-1.24,.62-2.41,1.65-3.11,.08,.21,.17,.43,.27,.67,0,.01,0,.02,.01,.03,.54,1.27,1.2,2.49,1.99,3.63,.5,.72,1.04,1.41,1.63,2.07-.55,.3-1.17,.46-1.8,.46-.18,0-.37-.01-.55-.04-1.84-.28-3.2-1.85-3.2-3.71h0Zm36.49,3.18c-1.14,.71-2.57,.76-3.75,.13,.47-.52,.91-1.06,1.33-1.63,.92-1.26,1.69-2.63,2.3-4.06,0-.01,.01-.03,.02-.04,.1-.23,.18-.44,.26-.66,1.7,1.18,2.12,3.52,.94,5.22-.29,.42-.67,.78-1.1,1.05h0Zm.99-7.89c-.1,0-.19,0-.28-.01,.54-1.89,.82-3.84,.83-5.8h0c.03-.3,.04-.54,.05-.76,.01-.27,.02-.54,.02-.81v-.07c2.04,.34,3.43,2.27,3.08,4.32-.3,1.81-1.87,3.14-3.71,3.14h0Z"/><polygon points="265.69 172.31 265.69 172.31 265.69 172.3 265.69 172.31"/><path d="M269.31,185.59v.08h-.01l-.02-.02s.02-.04,.03-.06Z"/><path d="M270.19,186.52l-.03,.02h-.01l.05-.02Z"/></svg>