<?xml version="1.0" encoding="UTF-8"?><svg id="Outros" xmlns="http://www.w3.org/2000/svg" viewBox="0 0 500 500"><defs><style>.cls-1{fill:#f0f0f0;}</style></defs><path class="cls-1" d="M250.01,420.21c-66.18-.31-109.12-34.99-123.23-46.39-7.13-5.76-15.84-13.77-19.93-24.62-1.53-4.07-2.07-7.56-2.22-10.11-8.52,2.15-17.68,1.38-24.91,.41-4.74-.64-9.21-2.12-13.53-3.55-1.19-.4-2.39-.79-3.59-1.17-9.95-3.13-20.46-4.24-32.17-5.28-4.22-.37-8.31-.57-12.17-.59-.82,0-1.71-.04-2.64-.07-2.35-.09-5.02-.19-7.05,.22-.96,.19-1.92,0-2.71-.54-.8-.54-1.34-1.35-1.53-2.3-.19-.97,.03-2,.62-2.82,2.01-2.75,5.54-4.96,7.87-6.42l.14-.09c3.1-1.94,6.66-3.64,11.21-5.34,1.65-.62,3.3-1.22,4.94-1.82,6.45-2.36,12.59-4.6,18.56-7.48-5.63-5.61-10.12-12.14-14.47-18.49-3.19-4.65-6.49-9.45-10.14-13.73-.77-.9-2.41-2.73-3.64-4.1-1.32-1.5-1.19-3.77,.28-5.08,.95-.85,2.3-1.13,3.51-.74,5.5,1.85,19.82,6.89,34.38,13.77,10.37,4.9,22.12,10.45,34.08,8.68,3.65-.54,7.19-1.57,10.94-2.66l1.02-.3c2.53-.73,5.1-1.57,7.59-2.38,1.76-.57,3.52-1.14,5.29-1.69,5.33-1.64,10.03-2.21,14.34-1.72,1.72,.19,3.38,.51,4.93,.95V79.79h228.45v195c1.54-.43,3.19-.75,4.93-.94,4.33-.48,9.02,.08,14.34,1.73,1.77,.54,3.52,1.11,5.28,1.69,2.49,.81,5.06,1.64,7.6,2.38l1.01,.29c3.75,1.09,7.29,2.12,10.94,2.66,11.95,1.77,23.71-3.78,34.08-8.68,14.54-6.87,28.88-11.91,34.36-13.76,.93-.31,1.91-.23,2.76,.2,.86,.44,1.49,1.18,1.79,2.09,.39,1.2,.11,2.54-.72,3.49-1.42,1.57-2.94,3.27-3.67,4.13-3.66,4.28-6.95,9.08-10.14,13.73-4.35,6.34-8.84,12.88-14.47,18.49,5.98,2.87,12.12,5.12,18.58,7.48,1.64,.6,3.28,1.2,4.92,1.81,4.55,1.7,8.11,3.4,11.21,5.34l.09,.06c2.35,1.47,5.9,3.68,7.92,6.45,1.16,1.55,.84,3.81-.73,5-.82,.62-1.87,.86-2.88,.65h0c-2.03-.42-4.7-.32-7.05-.23-.93,.04-1.82,.07-2.64,.07-3.86,.02-7.96,.22-12.18,.59-11.71,1.03-22.21,2.14-32.17,5.28-1.2,.38-2.39,.77-3.59,1.17-4.32,1.43-8.8,2.92-13.53,3.55-7.23,.97-16.39,1.75-24.91-.41-.15,2.55-.68,6.05-2.22,10.11-4.09,10.86-12.8,18.86-19.93,24.62-14.11,11.4-57.04,46.08-123.2,46.39Zm-143.28-87.52c.07,0,.15,0,.22,0,1.97,.12,3.48,1.82,3.36,3.8-.09,1.49-.09,5.51,1.86,10.7,3.6,9.56,11.61,16.88,18.18,22.19,13.73,11.09,55.5,44.82,119.65,45.12,64.13-.3,105.9-34.04,119.62-45.12,6.57-5.3,14.57-12.62,18.18-22.19,1.88-4.99,1.98-8.85,1.86-10.7-.03-.47,.03-.93,.19-1.38,.3-.9,.95-1.64,1.81-2.06,.86-.43,1.84-.49,2.75-.18,8.13,2.76,17.68,1.97,25.09,.97,4.21-.57,8.24-1.9,12.5-3.31,1.22-.41,2.45-.81,3.67-1.2,10.51-3.31,21.34-4.46,33.39-5.52,4.38-.38,8.63-.59,12.64-.61,.76,0,1.59-.04,2.46-.07,.63-.02,1.28-.05,1.94-.07-.73-.48-1.42-.92-2-1.28l-.1-.06c-2.77-1.73-6-3.27-10.18-4.83-1.63-.61-3.26-1.2-4.89-1.8-7.26-2.66-14.76-5.4-21.91-9.1-.41-.21-.75-.48-1.04-.82-1.3-1.47-1.17-3.74,.3-5.06,6.19-5.58,10.86-12.38,15.8-19.58,2.83-4.13,5.75-8.37,8.98-12.36-6.85,2.5-16.5,6.27-26.23,10.86-10.55,4.98-23.69,11.19-37.35,9.16-4.04-.6-7.93-1.73-11.7-2.83l-1.01-.29c-2.62-.76-5.24-1.61-7.78-2.43-1.73-.56-3.46-1.12-5.2-1.66-4.57-1.41-8.5-1.9-12.03-1.51-2.71,.3-5.19,.98-7.15,1.95l-4.11,2.03V85.49H141.47v198l-4.11-2.03c-1.97-.97-4.45-1.65-7.15-1.95-3.52-.39-7.46,.1-12.03,1.51-1.74,.54-3.48,1.1-5.21,1.66-2.53,.82-5.14,1.67-7.76,2.43l-1.02,.3c-3.76,1.09-7.66,2.23-11.69,2.82-13.65,2.02-26.79-4.18-37.35-9.16-9.74-4.6-19.37-8.36-26.23-10.86,3.23,3.99,6.15,8.24,8.98,12.36,4.94,7.2,9.61,14,15.81,19.58,.33,.3,.59,.64,.79,1.03,.9,1.76,.21,3.93-1.54,4.84-7.14,3.7-14.64,6.44-21.89,9.1-1.63,.6-3.27,1.2-4.91,1.81-4.18,1.56-7.41,3.1-10.18,4.83l-.14,.09c-.56,.35-1.24,.78-1.95,1.25,.66,.02,1.31,.04,1.93,.07,.86,.03,1.69,.07,2.46,.07,4.01,.02,8.27,.23,12.64,.61,12.06,1.06,22.89,2.22,33.39,5.52,1.23,.39,2.45,.79,3.67,1.2,4.26,1.41,8.29,2.75,12.5,3.32,7.41,1,16.96,1.79,25.1-.97,.37-.13,.75-.19,1.15-.19Zm285.85,5.59h0Zm-285.16,0h0Zm383.02-11.51l.02,.03-.02-.03Zm2.13-3.29h0Zm-42.45-19.11h0Z"/></svg>