<?xml version="1.0" encoding="UTF-8"?><svg id="Expanded_copy" xmlns="http://www.w3.org/2000/svg" viewBox="0 0 500 500"><defs><style>.cls-1{fill:#efefef;}</style></defs><path class="cls-1" d="M483.91,266.07c-6.79-9.35-16.01-16.33-26.77-20.3,.25-4.17,.4-8.37,.4-12.61,0-44.71-14.36-86.12-38.69-119.89,11.69-15.2,15.16-34.94,9.21-53.26-9.89-30.41-42.67-47.12-73.08-37.23-10.98,3.57-20.47,10.18-27.57,19.17-23.35-9.24-48.78-14.32-75.38-14.32-21.78,0-42.78,3.42-62.5,9.73-10.85-15.76-28.53-25.13-47.77-25.13-31.98,0-58,26.02-58,58,0,11.58,3.37,22.67,9.78,32.22-29.16,35.29-46.77,80.46-47.02,129.65-18.36,5.44-32.73,19.36-38.67,37.65-9.88,30.41,6.82,63.2,37.23,73.08,5.87,1.91,11.91,2.86,17.95,2.86,5.27,0,10.54-.73,15.69-2.19,25.22,39.47,63.56,69.79,108.81,84.79-.51,19.12,8.28,37.09,23.85,48.39,10.28,7.46,22.2,11.06,34.02,11.06,17.95,0,35.67-8.29,46.99-23.89,6.78-9.33,10.57-20.24,11.03-31.69,46.41-11.99,86.5-39.84,114.15-77.38,6.36,2.26,12.94,3.39,19.48,3.39,12.03,0,23.93-3.77,34.02-11.11,12.53-9.11,20.77-22.55,23.19-37.85,2.42-15.3-1.26-30.63-10.36-43.16ZM356.75,28.24c27.4-8.92,56.95,6.14,65.86,33.55,5.19,15.99,2.44,33.19-7.31,46.7-21.35-27.9-49.68-50.19-82.36-64.24,6.28-7.46,14.44-12.97,23.81-16.01ZM89.49,70.24c0-28.82,23.45-52.27,52.27-52.27,16.78,0,32.27,7.9,42.11,21.3-33.68,11.88-63.37,32.29-86.45,58.64-5.19-8.29-7.93-17.78-7.93-27.66ZM46.85,337.39c-27.4-8.91-42.45-38.45-33.55-65.86,5.18-15.96,17.48-28.24,33.27-33.46,.86,36.6,11.35,70.85,29.01,100.34-9.47,2.36-19.33,2.02-28.72-1.03Zm240.91,123.11c-16.93,23.31-49.69,28.5-73.01,11.56-13.58-9.86-21.45-25.35-21.52-41.96,18.64,5.58,38.37,8.59,58.8,8.59,15.66,0,30.91-1.77,45.57-5.1-.69,9.71-4.06,18.96-9.84,26.92Zm-35.73-27.55c-110.16,0-199.79-89.62-199.79-199.79S141.86,33.37,252.02,33.37s199.79,89.62,199.79,199.79-89.62,199.79-199.79,199.79Zm215.69-90.51c-13.6,9.88-30.8,12.58-46.66,7.49,19.67-28.39,32.38-61.94,35.64-98.18,9.03,3.66,16.79,9.72,22.58,17.69,16.94,23.31,11.75,56.06-11.56,73Z"/></svg>