<?xml version="1.0" encoding="UTF-8"?><svg id="Cor" xmlns="http://www.w3.org/2000/svg" viewBox="0 0 500 500"><defs><style>.cls-1{fill:#232323;}.cls-2{fill:#e1e1e1;}.cls-3{fill:#b1b1b1;}</style></defs><g id="Pandeireta"><path class="cls-3" d="M484.34,267.95c18.11,24.93,12.59,59.81-12.34,77.92-16.03,11.66-36.22,13.53-53.38,6.72,21.52-29.92,35.18-65.89,37.96-104.85,10.79,3.51,20.6,10.34,27.77,20.22Z"/><path d="M457.11,232.95c0,4.96-.17,9.89-.53,14.78-2.77,38.96-16.44,74.94-37.96,104.85h-.01c-28.03,38.95-69.38,67.69-117.39,79.49-15.75,3.87-32.21,5.93-49.16,5.93-21.72,0-42.65-3.38-62.29-9.64-46.84-14.92-86.36-46.2-111.87-87.13-19.4-31.13-30.67-67.84-30.89-107.16v-1.13c0-50.36,18.15-96.47,48.28-132.16,24.14-28.62,55.98-50.54,92.34-62.56,20.27-6.7,41.92-10.34,64.44-10.34,27.34,0,53.43,5.35,77.28,15.07,35.29,14.36,65.68,38.28,87.96,68.54,25.02,34,39.81,75.99,39.81,121.44Z"/><path class="cls-3" d="M427.41,58.66c6.14,18.86,1.67,38.63-10.12,52.85-22.28-30.26-52.68-54.18-87.96-68.54,6.68-9.14,16.21-16.34,27.79-20.11,29.29-9.52,60.77,6.52,70.28,35.81Z"/><path class="cls-3" d="M301.21,432.07c-.03,11.32-3.49,22.75-10.65,32.61-18.11,24.93-53,30.45-77.93,12.34-16.03-11.65-24.05-30.24-22.88-48.65h0c19.64,6.25,40.58,9.63,62.29,9.63,16.95,0,33.41-2.05,49.16-5.93Z"/><path class="cls-3" d="M140.48,12.32c19.82,0,37.24,10.34,47.13,25.91-36.35,12.02-68.2,33.94-92.34,62.56-6.66-9.19-10.58-20.47-10.58-32.69,0-30.81,24.97-55.78,55.78-55.78Z"/><path class="cls-2" d="M150.03,25.34c1.59,0,3.16,.09,4.72,.23-4.82-1.94-10.08-3.01-15.6-3.01-23.08,0-41.78,18.71-41.78,41.78,0,.85,.03,1.69,.08,2.53,5.65-23.81,27.04-41.53,52.58-41.53Z"/><path class="cls-2" d="M414.23,57.11c.9,1.31,1.71,2.66,2.48,4.02-1.13-5.07-3.23-10.02-6.35-14.56-13.07-19.02-39.08-23.84-58.1-10.77-.7,.48-1.37,.99-2.04,1.5,22.82-8.83,49.54-1.24,64,19.81Z"/><path class="cls-2" d="M467.79,333.61c-1.01,1.23-2.07,2.39-3.16,3.51,4.55-2.51,8.71-5.91,12.19-10.18,14.58-17.88,11.91-44.2-5.97-58.79-.66-.54-1.33-1.04-2.01-1.53,14.88,19.43,15.09,47.2-1.05,66.99Z"/><path class="cls-2" d="M204.47,453.14c-.98-1.25-1.87-2.55-2.73-3.86,1.44,4.99,3.84,9.8,7.24,14.14,14.22,18.17,40.48,21.38,58.65,7.16,.67-.52,1.31-1.07,1.94-1.62-22.24,10.22-49.37,4.29-65.1-15.82Z"/><path class="cls-3" d="M77.89,341.23c-10.79,3.47-22.74,3.71-34.34-.06-29.29-9.52-45.33-40.99-35.81-70.3,6.14-18.87,21.37-32.24,39.25-36.81,.22,39.32,11.5,76.03,30.89,107.16Z"/><path class="cls-2" d="M35.64,252.89c1.11-1.14,2.27-2.2,3.45-3.22-4.75,2.1-9.19,5.12-13.04,9.07-16.1,16.53-15.74,42.99,.79,59.08,.61,.59,1.23,1.16,1.87,1.7-13.12-20.66-10.89-48.34,6.93-66.64Z"/><path class="cls-1" d="M83.33,259.13v-1.13c0-50.36,18.15-96.47,48.28-132.16,24.14-28.62,55.98-50.54,92.34-62.56,19.58-6.48,40.46-10.08,62.15-10.31-11.61-2.42-23.64-3.7-35.97-3.7-19.28,0-37.82,3.11-55.17,8.85-31.13,10.29-58.39,29.06-79.06,53.56-25.79,30.56-41.34,70.04-41.34,113.16v.96c.12,20.74,3.84,40.62,10.55,59.07-1.11-8.44-1.73-17.02-1.78-25.75Z"/></g></svg>