<?xml version="1.0" encoding="UTF-8"?><svg id="Expanded_copy" xmlns="http://www.w3.org/2000/svg" viewBox="0 0 500 500"><defs><style>.cls-1{fill:#efefef;}</style></defs><path class="cls-1" d="M470,216.11v-23.4c0-7.27-5.91-13.18-13.18-13.18H43.17c-7.27,0-13.18,5.91-13.18,13.18v23.4c0,6.99,5.47,12.7,12.35,13.14v216.04c-6.88,.43-12.35,6.15-12.35,13.13v23.4c0,7.27,5.91,13.18,13.18,13.18H456.83c7.27,0,13.18-5.91,13.18-13.18v-23.4c0-6.99-5.47-12.7-12.35-13.13V229.24c6.88-.43,12.35-6.15,12.35-13.14Zm-82.48,229.14l64.83-210.1v210.1h-64.83ZM47.64,232.79l65.22,212.46H47.64V232.79Zm5.58-3.5h126.75l-63.52,205.96L53.22,229.29Zm130.24,10.23l63.16,205.73H120.02l63.45-205.73Zm3.51-10.23h126.75l-63.52,205.96-63.23-205.96Zm130.24,10.24c12.29,40.04,57.73,188.04,63.16,205.72h-126.6l63.45-205.72Zm3.51-10.24h126.79l-63.56,205.96c-12.3-40.06-58.02-189.01-63.23-205.96Zm-285.43-13.18v-23.4c0-4.34,3.53-7.88,7.88-7.88H456.83c4.34,0,7.88,3.53,7.88,7.88v23.4c0,4.34-3.53,7.88-7.88,7.88H43.17c-4.34,0-7.88-3.53-7.88-7.88Zm429.41,242.31v23.4c0,4.34-3.53,7.88-7.88,7.88H43.17c-4.34,0-7.88-3.53-7.88-7.88v-23.4c0-4.34,3.53-7.88,7.88-7.88H456.83c4.34,0,7.88,3.53,7.88,7.88Z"/><path class="cls-1" d="M173.68,131.08c-2.55,8.56-.46,18.22,6.29,24.96,4.89,4.89,11.32,7.34,17.75,7.34s12.86-2.45,17.75-7.34c9.79-9.79,9.79-25.71,0-35.5-6.75-6.75-16.41-8.84-24.96-6.29L84.72,8.47c-2.24-2.24-5.23-3.47-8.41-3.47s-6.17,1.23-8.41,3.47c-4.64,4.64-4.64,12.18,0,16.82l105.79,105.79Zm38.04-6.79c7.72,7.72,7.72,20.29,0,28.01-7.72,7.72-20.29,7.72-28.01,0-7.72-7.72-7.72-20.29,0-28.01,3.86-3.86,8.93-5.79,14-5.79s10.14,1.93,14,5.79ZM71.64,12.22c1.24-1.24,2.9-1.92,4.66-1.92s3.43,.68,4.66,1.92l104.3,104.3c-1.9,1.08-3.69,2.41-5.31,4.02-1.62,1.62-2.94,3.41-4.02,5.31L71.64,21.55c-2.57-2.57-2.57-6.76,0-9.33Z"/><path class="cls-1" d="M302.28,163.38c6.43,0,12.86-2.45,17.75-7.34,6.75-6.75,8.84-16.41,6.29-24.96L432.1,25.29c4.64-4.64,4.64-12.18,0-16.82-2.24-2.24-5.23-3.47-8.41-3.47s-6.17,1.23-8.41,3.47l-105.79,105.79c-8.56-2.55-18.22-.46-24.96,6.29-9.79,9.79-9.79,25.71,0,35.5,4.89,4.89,11.32,7.34,17.75,7.34ZM419.03,12.22c1.24-1.24,2.9-1.92,4.66-1.92s3.43,.68,4.66,1.92c2.57,2.57,2.57,6.76,0,9.33l-104.3,104.3c-1.08-1.9-2.41-3.69-4.02-5.31-1.62-1.62-3.41-2.94-5.31-4.02L419.03,12.22Zm-130.75,112.07c3.86-3.86,8.93-5.79,14-5.79s10.14,1.93,14,5.79c7.72,7.72,7.72,20.29,0,28.01-7.72,7.72-20.29,7.72-28.01,0-7.72-7.72-7.72-20.29,0-28.01Z"/></svg>