<?xml version="1.0" encoding="UTF-8"?><svg id="Cor" xmlns="http://www.w3.org/2000/svg" viewBox="0 0 500 500"><defs><style>.cls-1{fill:#fff;}.cls-2{fill:#b68c3b;}.cls-3{fill:#e7e2c7;}.cls-4{fill:#a90000;}.cls-5{fill:#721717;opacity:.61;}.cls-6{fill:#d7af56;}</style></defs><g id="Percussão"><rect class="cls-4" x="42.53" y="222.11" width="414.93" height="232.92"/><path class="cls-1" d="M456.81,226.21l-65.6,224.57h-10.7c-6.14-20.6-48.03-161.27-62.13-208.63l-62.42,208.63h-10.72l-62.13-208.63-62.42,208.63h-10.72L43.27,226.77l-.17-.54,1.41-.02h8.69l62.15,208.72,62.44-208.72h10.67l62.15,208.72,62.44-208.72h10.66c6.12,20.52,48.07,161.41,62.16,208.73l62.47-208.73h8.47Z"/><path class="cls-6" d="M432.5,7.73c-1.82-1.82-4.22-2.73-6.61-2.73s-4.79,.91-6.61,2.73l-108.11,108.1h0c-8.09-3.05-17.56-1.32-24.07,5.18-8.86,8.87-8.86,23.24,0,32.1,8.87,8.87,23.23,8.87,32.1,0,6.51-6.5,8.25-15.98,5.18-24.07L432.5,20.95c3.63-3.64,3.63-9.59,0-13.22Z"/><path class="cls-2" d="M432.5,7.73c-.46-.46-.96-.87-1.49-1.21,2.36,3.62,1.96,8.55-1.21,11.73l-108.11,108.1c3.06,8.09,1.33,17.57-5.18,24.07-8.41,8.41-21.76,8.83-30.68,1.28,.41,.48,.82,.96,1.28,1.42,8.87,8.87,23.23,8.87,32.1,0,6.51-6.5,8.25-15.98,5.18-24.07L432.5,20.95c3.63-3.64,3.63-9.59,0-13.22Z"/><path class="cls-6" d="M213.49,121.02c-6.51-6.5-15.98-8.24-24.07-5.18L81.31,7.73c-1.81-1.82-4.21-2.73-6.61-2.73s-4.79,.91-6.61,2.73c-3.63,3.63-3.63,9.58,0,13.22l108.11,108.1c-3.05,8.09-1.32,17.57,5.18,24.07,8.87,8.87,23.23,8.87,32.1,0,8.86-8.86,8.86-23.23,0-32.1Z"/><path class="cls-5" d="M457.47,222.11v232.92H42.53v-11.19l386.19-.76-.63-160.69c-.07-20.38-15.48-39.6-35.87-39.84l-349.69,.77v-21.21H457.47Z"/><path class="cls-3" d="M469.73,460.7v23.66c0,5.87-4.76,10.64-10.64,10.64H40.91c-5.88,0-10.64-4.77-10.64-10.64v-23.66c0-5.88,4.76-10.65,10.64-10.65H459.09c5.88,0,10.64,4.77,10.64,10.65Z"/><path class="cls-3" d="M469.73,192.08v23.66c0,5.87-4.76,10.64-10.64,10.64H40.91c-5.88,0-10.64-4.77-10.64-10.64v-23.66c0-5.88,4.76-10.65,10.64-10.65H459.09c5.88,0,10.64,4.77,10.64,10.65Z"/><path class="cls-2" d="M68.09,7.73c.46-.46,.96-.87,1.49-1.21-2.36,3.62-1.96,8.55,1.21,11.73l108.11,108.1c-3.06,8.09-1.33,17.57,5.18,24.07,8.41,8.41,21.76,8.83,30.68,1.28-.41,.48-.82,.96-1.28,1.42-8.87,8.87-23.23,8.87-32.1,0-6.51-6.5-8.25-15.98-5.18-24.07L68.09,20.95c-3.63-3.64-3.63-9.59,0-13.22Z"/></g></svg>