<?xml version="1.0" encoding="UTF-8"?><svg id="Expanded_copy" xmlns="http://www.w3.org/2000/svg" viewBox="0 0 500 500"><defs><style>.cls-1{fill:#efefef;}</style></defs><path class="cls-1" d="M490.92,131.68l5.52-5.52c1.02-1.02,1.02-2.66,0-3.68-1.02-1.02-2.66-1.02-3.68,0L172.28,442.97c-1.01,1.01-1.02,2.64-.02,3.66l14.81,15.06-28.87,28.87c-1.02,1.02-1.02,2.66,0,3.68,.51,.51,1.17,.76,1.84,.76s1.33-.25,1.84-.76L490.85,165.27c.16-.17,15.74-16.91,.07-33.59ZM177.78,444.82l19.76-19.76,13.08,13.09-19.87,19.87-12.98-13.19ZM487.13,161.64L214.3,434.47l-13.08-13.09L487.24,135.35c12.07,13.04,.36,25.78-.11,26.28Z"/><g><path class="cls-1" d="M164.95,248.31c.75,1.21,2.33,1.59,3.54,.86,1.23-.74,1.63-2.33,.89-3.56-.13-.23-3.39-5.5-11.16-4.78-3.88,.36-10.95,5.04-22.14,12.7-6.09,4.17-13.67,9.36-15.77,9.76-3.37,.63-5.16-1.94-5.34-2.21-.76-1.22-2.36-1.59-3.58-.83-1.22,.76-1.59,2.36-.83,3.58,.13,.22,3.04,4.76,8.65,4.76,.65,0,1.33-.06,2.06-.2,3.02-.57,8.71-4.39,17.75-10.58,7.12-4.87,16.86-11.55,19.68-11.81,4.38-.4,6.13,2.13,6.24,2.3Z"/><path class="cls-1" d="M191.23,267.35c-1.22-.73-2.77-.34-3.52,.87-.75,1.2-.38,2.8,.81,3.57,.11,.07,2.72,1.82,2.31,6.25-.26,2.82-6.94,12.56-11.81,19.68-6.19,9.04-10.01,14.73-10.58,17.75-1.31,6.96,4.33,10.56,4.57,10.71,.43,.27,.9,.39,1.36,.39,.86,0,1.69-.43,2.19-1.21,.77-1.2,.41-2.8-.78-3.58-.3-.19-2.86-1.98-2.23-5.35,.39-2.1,5.59-9.68,9.76-15.77,7.66-11.18,12.34-18.26,12.7-22.14,.72-7.78-4.55-11.03-4.77-11.16Z"/><path class="cls-1" d="M424.72,30.93c7.55-7.55,9.32-17.61,4.03-22.9-2.67-2.67-6.63-3.62-11.15-2.67-4.12,.87-8.29,3.25-11.75,6.7-.07,.07-.13,.13-.2,.2-1.92-.77-3.99-1.17-6.08-1.17-4.36,0-8.45,1.69-11.51,4.75-1.35,1.35-2.44,2.91-3.24,4.63-2.45,5.28-1.85,11.42,1.35,16.1l-11.91,11.07c-.2-.42-.46-.83-.81-1.17l-7.65-7.65c-1.63-1.63-4.31-1.63-5.94,0l-.85,.85c-1.63,1.63-1.63,4.31,0,5.94l7.65,7.65c.26,.26,.56,.47,.86,.64l-7.44,6.91c-.2-.43-.46-.84-.82-1.2l-7.65-7.65c-1.63-1.63-4.31-1.63-5.94,0l-.85,.85c-1.63,1.63-1.63,4.31,0,5.94l7.65,7.65c.27,.27,.57,.48,.89,.66l-87.09,80.93c-6.22-4.22-41.41-26.41-73.61-12.02-16.38,7.33-21.48,16.44-26.4,25.25-2.17,3.89-4.42,7.9-7.66,11.79-7.46,8.93-19.71,15.63-19.83,15.69-.87,.47-1.4,1.4-1.36,2.39,.04,.99,.64,1.87,1.55,2.28,.09,.04,8.73,3.94,9.74,11.57,.9,6.82-4.52,15.17-15.67,24.14-17.52,14.1-32.96,17.17-39.88,14.06-4.31-1.94-8.13-8.5-9.24-10.86-.42-.89-1.3-1.47-2.28-1.5-.96-.03-1.9,.5-2.36,1.37-.09,.16-8.65,15.73-27.03,22.42-.57,.21-1.19,.43-1.87,.67-14.72,5.2-53.82,19.03-47.62,72.68,2.81,24.3,18.42,50.69,32.92,66.51-.26,3.25,.06,6.2,.95,7.09,.68,.68,1.54,1.01,4.61,1.01h.02c.67,0,1.57-.02,2.6-.1,19.2,17.1,43.99,29.19,64.98,31.62,3.89,.45,7.56,.66,11.05,.66,44.55,0,56.8-34.62,61.63-48.27,.24-.68,.46-1.31,.67-1.88,6.68-18.38,22.26-26.95,22.41-27.03,.87-.46,1.4-1.38,1.37-2.36s-.6-1.87-1.49-2.29c-2.36-1.11-8.92-4.93-10.86-9.23-3.12-6.93-.05-22.36,14.06-39.88,8.97-11.15,17.3-16.55,24.13-15.67,7.64,1,11.54,9.64,11.57,9.73,.4,.91,1.28,1.52,2.27,1.56,1,.05,1.93-.48,2.4-1.36,.07-.12,6.76-12.38,15.69-19.83,3.89-3.25,7.91-5.49,11.8-7.66,8.81-4.92,17.92-10.01,25.25-26.39,14.39-32.2-7.81-67.39-12.02-73.61,30.51-32.83,63.66-68.51,86.04-92.59,.17,.29,.37,.56,.62,.81l7.65,7.65c1.63,1.63,4.31,1.63,5.94,0l.85-.85c1.63-1.63,1.63-4.31,0-5.94l-7.65-7.65c-.34-.34-.72-.58-1.13-.78,2.49-2.68,4.79-5.15,6.88-7.41,.17,.28,.36,.55,.61,.79l7.65,7.65c1.63,1.63,4.31,1.63,5.94,0l.85-.85c1.63-1.63,1.63-4.31,0-5.94l-7.65-7.65c-.33-.33-.71-.57-1.11-.77,2.74-2.95,4.76-5.13,5.93-6.39,2.69,1.86,5.88,2.86,9.23,2.86,4.36,0,8.45-1.69,11.51-4.75,4.63-4.64,5.98-11.61,3.58-17.59,.06-.06,.13-.13,.19-.19ZM40.82,397.34c-.03-2.74,.45-7.57,1.75-8.88,26.92-26.92,33.13-42.68,36.84-52.11,1.08-2.74,1.94-4.91,3-6.56,3.76-5.85,12.22-14.14,15.94-17.68l27.69,27.69c-3.53,3.72-11.82,12.17-17.68,15.94-1.65,1.06-3.82,1.92-6.57,3-9.42,3.71-25.19,9.92-52.11,36.84-1.31,1.31-6.13,1.79-8.87,1.75Zm255.23-155.32c-6.63,14.8-14.23,19.05-23.04,23.97-4.09,2.29-8.33,4.65-12.59,8.21-6.53,5.45-11.8,12.98-14.64,17.49-2.43-3.41-6.76-7.87-13.24-8.74-8.84-1.19-18.57,4.72-28.9,17.56-15.56,19.33-18.62,36.66-14.75,45.27,1.88,4.19,6.22,7.55,9.45,9.6-5.55,3.95-15.71,12.78-21.03,27.4-.21,.58-.44,1.23-.68,1.92-5.28,14.93-17.67,49.89-67.18,44.17-18.62-2.15-41.34-12.9-59.14-27.75,1.18-.46,2.26-1.06,3.07-1.87,26.15-26.15,41.29-32.12,50.34-35.68,3.01-1.19,5.39-2.12,7.47-3.46,8.15-5.24,19.9-18.07,20.4-18.62,.94-1.03,.9-2.61-.08-3.59l-31.25-31.25c-.98-.98-2.56-1.02-3.59-.08-.54,.5-13.38,12.25-18.62,20.4-1.34,2.08-2.28,4.46-3.46,7.47-3.56,9.04-9.53,24.18-35.68,50.33-.77,.77-1.4,1.93-1.89,3.28-12.85-15.08-26.58-39.15-29.08-60.74-5.72-49.54,29.25-61.91,44.18-67.19,.69-.24,1.33-.47,1.91-.68,14.62-5.32,23.46-15.48,27.4-21.03,2.05,3.23,5.41,7.57,9.61,9.46,8.61,3.87,25.94,.81,45.27-14.75,12.84-10.34,18.75-20.06,17.56-28.91-.87-6.48-5.32-10.81-8.74-13.24,4.51-2.84,12.04-8.11,17.49-14.64,3.56-4.26,5.92-8.49,8.21-12.59,4.92-8.81,9.17-16.42,23.98-23.04,27.92-12.48,59.72,5.9,67.55,10.93l-77.96,72.44c-.52,.48-.82,1.15-.83,1.86-.01,.71,.26,1.39,.76,1.89l24.63,24.63c.49,.49,1.15,.76,1.84,.76h.05c.71-.01,1.38-.31,1.86-.83,.79-.85,34.05-36.64,72.43-77.94,5.02,7.82,23.42,39.58,10.93,67.56Zm-85.33,4.86l-20.82-20.82L388.96,41.08l6.74,6.74c-17.63,18.98-166.67,179.36-184.98,199.06ZM419.67,28.52c-.95,.81-1.19,2.17-.58,3.25,2.42,4.31,1.67,9.76-1.82,13.26-2.08,2.08-4.86,3.23-7.83,3.23s-5.75-1.15-7.83-3.23l-9.85-9.85c-3.27-3.27-4.16-8.31-2.2-12.53h0c.54-1.17,1.28-2.23,2.2-3.14,2.08-2.08,4.86-3.23,7.83-3.23,1.91,0,3.78,.49,5.43,1.41,1.08,.61,2.45,.36,3.25-.59,.4-.47,.81-.92,1.27-1.37,2.75-2.75,6-4.63,9.14-5.29,1.59-.33,4.53-.61,6.41,1.26,3.12,3.12,1.27,10.24-4.03,15.55-.45,.45-.91,.87-1.38,1.27Z"/><path class="cls-1" d="M171.16,296.83c1.02-1.02,1.02-2.66,0-3.68l-27.52-27.52c-1.02-1.02-2.66-1.02-3.68,0s-1.02,2.66,0,3.68l27.52,27.52c.51,.51,1.17,.76,1.84,.76s1.33-.25,1.84-.76Z"/></g></svg>