<?xml version="1.0" encoding="UTF-8"?><svg id="Cor" xmlns="http://www.w3.org/2000/svg" viewBox="0 0 500 500"><defs><style>.cls-1{fill:#c6b198;}.cls-2{fill:#3f1505;}.cls-3{fill:#140701;}.cls-4{fill:#dccaa1;}.cls-5{fill:#542105;}.cls-6{fill:#d9e3e9;}</style></defs><g id="Violino"><path class="cls-5" d="M420.66,28.05c2.94,5.24,2.18,12.04-2.26,16.49-2.68,2.68-6.21,4.02-9.75,4.02s-6.86-1.27-9.51-3.8c-.08-.07-.16-.15-.23-.22l-9.91-9.91c-.08-.08-.16-.16-.23-.24-4-4.19-4.84-10.32-2.51-15.33,.66-1.42,1.57-2.74,2.74-3.92,2.67-2.67,6.21-4.02,9.74-4.02,2.33,0,4.66,.59,6.74,1.76,.45-.52,.92-1.04,1.42-1.54,6.47-6.47,15.14-8.29,19.36-4.06,4.22,4.22,2.41,12.89-4.06,19.36-.5,.5-1.02,.97-1.54,1.41Z"/><path class="cls-2" d="M422.2,26.64c6.47-6.47,8.28-15.14,4.06-19.36-.7-.7-1.52-1.21-2.43-1.59,2.32,4.58,.22,11.87-5.4,17.49-.5,.5-1.02,.97-1.54,1.41,2.94,5.24,2.18,12.04-2.26,16.49-2.68,2.68-6.21,4.02-9.75,4.02-2.78,0-5.55-.85-7.91-2.51l1.94,1.94c.07,.07,.15,.15,.23,.22,2.65,2.53,6.07,3.8,9.51,3.8s7.07-1.34,9.75-4.02c4.44-4.45,5.2-11.24,2.26-16.49,.52-.44,1.04-.91,1.54-1.41Z"/><g><path class="cls-6" d="M400.45,66.73l-.34,.34c-1.7,1.7-4.33,1.82-5.88,.29l-8.23-8.25-.07-.07c.31-.34,.63-.67,.93-1l.97-1.04c.7-.76,1.39-1.49,2.04-2.19l1.24-1.32c.37-.39,.73-.78,1.07-1.15,.11,.08,.21,.17,.31,.27l8.24,8.24c1.53,1.53,1.41,4.18-.29,5.88Z"/><path class="cls-6" d="M387.9,80.33l-.35,.35c-1.69,1.69-4.33,1.82-5.86,.28l-8.25-8.25c-.05-.05-.11-.11-.15-.17l1.04-1.11,4-4.27c.41-.43,.81-.86,1.21-1.28,.14,.1,.27,.21,.4,.34l8.25,8.25c1.53,1.53,1.4,4.17-.28,5.86Z"/><path class="cls-6" d="M376.05,46.34l-.97,.91-4.92,4.62h-.01l-.79,.74-8.14-8.14c-1.54-1.54-1.41-4.17,.28-5.86l.34-.34c1.69-1.69,4.32-1.82,5.86-.28l8.24,8.24s.08,.08,.11,.13Z"/><path class="cls-6" d="M361.47,59.98h0l-4.73,4.44-.91,.85-8.24-8.24c-1.54-1.54-1.4-4.17,.28-5.86l.35-.35c1.69-1.7,4.32-1.82,5.87-.28l8.24,8.23c.07,.07,.13,.15,.2,.22l-1.06,1Z"/></g><path class="cls-3" d="M399.14,44.76c-.98,1.07-3.94,4.26-8.45,9.1-.36,.39-.73,.8-1.12,1.2l-1.3,1.4c-.68,.74-1.4,1.51-2.14,2.31l-1.03,1.1c-.31,.35-.65,.7-.97,1.06-2.07,2.22-4.31,4.63-6.7,7.21-.42,.44-.84,.9-1.27,1.35l-4.2,4.51c-.37,.39-.72,.79-1.09,1.17-22.84,24.58-55.92,60.17-86.17,92.72-39.68,42.71-74.51,80.2-75.01,80.73l-17.59-17.58c-2.18-2.18-3.53-3.54-3.53-3.54l-3.7-3.7,80.76-75.04,87.14-80.97,.96-.89,4.99-4.64h0l1.12-1.06,7.2-6.69,.84-.77h.01l5.2-4.84,1.03-.96,14.61-13.58c.07,.08,.15,.16,.23,.24l9.91,9.91c.07,.07,.15,.15,.23,.22Z"/><path class="cls-5" d="M285.46,168.6s27.66,38.45,12.48,72.44c-10.24,22.9-23.52,22.45-36.59,33.35-9.51,7.94-16.43,20.74-16.43,20.74,0,0-12.66-29.08-40.39,5.38-14.88,18.48-18.03,35.04-14.5,42.87,2.78,6.19,12.21,10.59,12.21,10.59,0,0-16.61,8.89-23.8,28.63-4.67,12.85-16.69,54.41-71.1,48.12-22.22-2.56-47.3-16.03-64.86-31.94,2.66-.29,5.46-.96,6.84-2.33,34.92-34.91,50.64-34.61,58.65-39.76,8.01-5.15,20.03-18.31,20.03-18.31l-31.47-31.46s-13.16,12.01-18.31,20.02c-5.15,8.01-4.85,23.72-39.76,58.65-1.37,1.37-2.05,4.25-2.33,6.96-15.49-16.51-30.64-43.43-33.3-66.38-6.28-54.4,35.28-66.43,48.13-71.1,19.74-7.18,28.63-23.79,28.63-23.79,0,0,4.4,9.42,10.59,12.21,7.83,3.52,24.38,.38,42.87-14.5,34.46-27.74,5.38-40.39,5.38-40.39,0,0,12.8-6.93,20.74-16.44,10.9-13.07,10.46-26.34,33.35-36.58,33.98-15.19,72.45,12.48,72.45,12.48l.68,.73-80.76,75.04,3.7,3.7,3.53,3.53c4.1,4.1,11.15,11.14,17.59,17.58,.5-.52,35.33-38.01,75.01-80.73l.74,.69Zm-90.48,108.13c.74-7.94-4.66-11.26-4.89-11.4-1.32-.8-3.03-.36-3.82,.96-.79,1.32-.36,3.03,.96,3.82,.03,.01,2.62,1.69,2.21,6.1-.26,2.8-7.24,12.99-11.87,19.73-6.24,9.12-10.1,14.86-10.68,17.93-1.06,5.68,2.44,9.57,4.68,10.96,.45,.28,.96,.42,1.46,.42,.92,0,1.81-.46,2.35-1.29,.83-1.29,.45-3-.83-3.84-.29-.19-2.78-1.94-2.18-5.22,.4-2.07,5.83-10.02,9.8-15.81,7.73-11.29,12.45-18.43,12.81-22.37Zm-25.06,18.54c1.09-1.09,1.09-2.85,0-3.94l-27.71-27.71c-1.09-1.09-2.86-1.09-3.95,0-1.08,1.09-1.08,2.85,0,3.94l27.72,27.71c.54,.54,1.26,.82,1.97,.82s1.42-.27,1.97-.82Zm-2.71-47.97c1.32-.79,1.75-2.49,.95-3.81-.14-.23-3.47-5.63-11.4-4.89-3.95,.37-11.08,5.08-22.36,12.81-5.8,3.97-13.74,9.4-15.82,9.8-3.29,.61-5.03-1.89-5.2-2.15-.82-1.31-2.53-1.71-3.83-.89-1.31,.81-1.71,2.52-.89,3.83,1.21,1.96,4.32,4.87,8.88,4.87,.66,0,1.35-.05,2.07-.19,3.08-.58,8.83-4.44,17.93-10.68,6.75-4.63,16.95-11.61,19.74-11.87,4.23-.38,5.93,1.95,6.12,2.25,.81,1.29,2.49,1.7,3.8,.91Z"/><g><path class="cls-2" d="M285.46,168.6l-.74-.69c-.91,.98-1.81,1.94-2.71,2.91,6.49,10.68,22.15,41.02,9.9,68.45-10.24,22.9-23.52,22.45-36.59,33.35-6.22,5.19-11.33,12.46-14.12,16.87,2.51,2.83,3.72,5.63,3.72,5.63,0,0,6.92-12.8,16.43-20.74,13.07-10.91,26.35-10.46,36.59-33.35,15.18-33.98-12.48-72.44-12.48-72.44Z"/><path class="cls-2" d="M198.5,298.75c-14.88,18.48-18.03,35.04-14.5,42.87,2.78,6.19,12.21,10.59,12.21,10.59,0,0-16.61,8.89-23.8,28.63-4.67,12.85-16.69,54.41-71.1,48.12-3.63-.42-7.33-1.13-11.06-2.09,5.77,1.88,11.52,3.21,17.09,3.85,54.41,6.29,66.43-35.27,71.1-48.12,7.18-19.74,23.8-28.63,23.8-28.63,0,0-9.42-4.41-12.21-10.59-3.53-7.83-.38-24.39,14.5-42.87,10.79-13.41,19.3-17.2,25.67-16.82-6.59-3.61-17.04-3.16-31.7,15.06Z"/></g><path d="M190.08,265.33c.23,.14,5.63,3.47,4.89,11.4-.37,3.95-5.09,11.09-12.81,22.37-3.97,5.79-9.4,13.74-9.8,15.81-.61,3.29,1.88,5.04,2.18,5.22,1.28,.84,1.65,2.55,.83,3.84-.53,.83-1.42,1.29-2.35,1.29-.49,0-1.01-.14-1.46-.42-2.24-1.39-5.74-5.28-4.68-10.96,.58-3.08,4.44-8.81,10.68-17.93,4.63-6.74,11.61-16.94,11.87-19.73,.41-4.42-2.18-6.09-2.21-6.1-1.32-.8-1.75-2.5-.96-3.82,.8-1.32,2.5-1.76,3.82-.96Z"/><path class="cls-4" d="M169.91,291.34c1.09,1.09,1.09,2.85,0,3.94-.54,.54-1.26,.82-1.97,.82s-1.42-.27-1.97-.82l-27.72-27.71c-1.08-1.09-1.08-2.85,0-3.94,1.09-1.09,2.86-1.09,3.95,0l27.71,27.71Z"/><path d="M168.15,243.49c.8,1.32,.37,3.03-.95,3.81-1.31,.79-2.99,.38-3.8-.91-.2-.3-1.89-2.63-6.12-2.25-2.8,.26-12.99,7.24-19.74,11.87-9.11,6.24-14.86,10.1-17.93,10.68-.72,.14-1.41,.19-2.07,.19-4.55,0-7.66-2.91-8.88-4.87-.82-1.31-.42-3.03,.89-3.83,1.3-.82,3.02-.42,3.83,.89,.18,.25,1.92,2.75,5.2,2.15,2.08-.4,10.02-5.83,15.82-9.8,11.29-7.74,18.42-12.45,22.36-12.81,7.94-.74,11.26,4.66,11.4,4.89Z"/><path class="cls-3" d="M96.53,306.91l31.47,31.46s-12.02,13.16-20.03,18.31c-8.01,5.15-23.72,4.85-58.65,39.76-1.37,1.37-4.18,2.04-6.84,2.33-3.14,.34-6.08,.16-6.3-.06s-.39-3.08-.06-6.17h0c.28-2.72,.96-5.6,2.33-6.97,34.91-34.92,34.61-50.64,39.76-58.65,5.15-8.01,18.31-20.02,18.31-20.02Z"/><g><path class="cls-1" d="M496.27,123.57L199.13,420.71l-3.94-3.94L492.33,119.63c1.09-1.09,2.85-1.09,3.94,0,1.09,1.09,1.09,2.85,0,3.94Z"/><path class="cls-5" d="M212.04,433.66l-27.63,27.63-14.8-15.05c-1.07-1.09-1.06-2.84,.02-3.92l25.55-25.55,16.58,16.58c.1,.1,.18,.2,.27,.3Z"/><path class="cls-5" d="M490.65,162.93L159.4,494.18c-1.09,1.09-2.85,1.09-3.94,0-1.08-1.08-1.09-2.85,0-3.94L486.66,159.04c.46-.49,12.1-13.13,.24-26.1l3.95-3.95c12.53,13.5,5.44,28.03-.2,33.94Z"/></g><rect class="cls-2" x="198.07" y="415.56" width="6.52" height="23.87" transform="translate(-243.31 267.57) rotate(-45)"/></g></svg>